<?xml version="1.0" encoding="UTF-8"?>
<svg width="45px" height="39px" viewBox="0 0 45 39" version="1.1" xmlns="http://www.w3.org/2000/svg" xmlns:xlink="http://www.w3.org/1999/xlink">
    <title>chevrons-favicon</title>
    <g id="Symbols" stroke="none" stroke-width="1" fill="none" fill-rule="evenodd">
        <g id="pathscale/-pink" fill="#FF3EAB">
            <g id="Group-25">
                <g id="chevrons-favicon" transform="translate(0.116446, 0.319108)">
                    <path d="M37.7750749,37.9086725 L43.4396354,12.3931978 L27.6511431,1.42108547e-14 C25.5516705,1.15298901 22.5791387,2.3707978 19.3863343,3.43258022 L33.9059651,14.8299626 L27.457831,37.9086725" id="Fill-17"></path>
                    <path d="M15.9545571,4.4887411 C15.3488077,4.66025538 14.7436319,4.8237389 14.1430451,4.97747077 C12.5248451,5.39048176 10.8561659,5.75530813 9.21444725,6.06047736 L23.706544,17.436062 L18.3649352,37.9087873 L24.2480473,37.9087873 L30.3021,15.7507477 L15.9545571,4.4887411 Z" id="Fill-19"></path>
                    <path d="M5.23434066,6.68693473 C3.29663077,6.93359407 1.49888571,7.06954352 2.34479103e-13,7.06667538 L15.7884923,19.4604468 L11.3245319,37.9088446 L15.1552088,37.9088446 L20.1021626,18.3579369 L5.23434066,6.68693473 Z" id="Fill-21"></path>
                </g>
            </g>
        </g>
    </g>
</svg>
