<?xml version="1.0" encoding="UTF-8"?>
<svg width="112px" height="90px" viewBox="0 0 112 90" version="1.1" xmlns="http://www.w3.org/2000/svg" xmlns:xlink="http://www.w3.org/1999/xlink">
    <title>Group 8</title>
    <defs>
        <polygon id="path-1" points="0.104 0.666 40.791 0.666 40.791 82.5979 0.104 82.5979"></polygon>
    </defs>
    <g id="Page-1" stroke="none" stroke-width="1" fill="none" fill-rule="evenodd">
        <g id="Vue-dark-gray-with-red" transform="translate(-84.000000, -28.000000)">
            <g id="Group-8" transform="translate(84.000000, 28.000000)">
                <polygon id="Fill-1" fill="#AA1E02" points="0 1 34.804 89.232 50.986 89.232 51.019 89.15 42.665 58.064 24.658 1"></polygon>
                <g id="Group-7" transform="translate(45.000000, 0.334100)">
                    <g id="Group-4">
                        <mask id="mask-2" fill="white">
                            <use xlink:href="#path-1"></use>
                        </mask>
                        <g id="Clip-3"></g>
                        <path d="M19.762,36.7659 C18.271,36.0419 17.585,34.3409 18.131,32.7199 L18.243,32.3849 L18.431,32.0849 C18.788,31.5139 19.516,30.4379 20.656,28.7959 C21.896,27.0079 23.607,25.1629 25.741,23.3119 C27.888,21.4529 30.491,19.7799 33.477,18.3389 C33.613,18.2729 33.755,18.2169 33.892,18.1539 L40.791,0.6659 L16.132,0.6659 L0.104,51.4599 L8.471,82.5979 L25.803,38.6619 L19.969,36.8669 L19.762,36.7659 Z" id="Fill-2" fill="#EC4F26" mask="url(#mask-2)"></path>
                    </g>
                    <path d="M18.8275,73.9739 L33.8535,69.6809 C34.0495,69.6169 34.2105,69.6489 34.3415,69.7789 C34.6005,70.0389 34.8295,70.2999 35.0245,70.5589 C35.6745,71.2759 36.5525,72.0389 37.6595,72.8519 C38.7645,73.6659 40.3575,74.0719 42.4395,74.0719 C43.8695,74.0719 45.0415,73.8439 45.9525,73.3879 C46.8635,72.9339 47.5775,72.3809 48.0995,71.7299 C48.6195,71.0799 48.9775,70.3809 49.1725,69.6319 C49.3675,68.8849 49.4655,68.1849 49.4655,67.5349 C49.4655,66.8849 49.3675,66.2019 49.1725,65.4859 C48.9775,64.7699 48.6195,64.1199 48.0995,63.5339 C47.5775,62.9489 46.8795,62.4599 46.0015,62.0709 C45.1235,61.6799 44.0015,61.4849 42.6355,61.4849 L35.0245,61.4849 C34.8295,61.4849 34.7315,61.3869 34.7315,61.1919 L34.7315,46.8489 C34.7315,46.6539 34.8295,46.5559 35.0245,46.5559 L42.6355,46.5559 C44.0015,46.5559 45.1235,46.3609 46.0015,45.9709 C46.8795,45.5799 47.5775,45.0919 48.0995,44.5069 C48.6195,43.9219 48.9775,43.2729 49.1725,42.5559 C49.3675,41.8409 49.4655,41.1579 49.4655,40.5069 C49.4655,39.8579 49.3675,39.1579 49.1725,38.4099 C48.9775,37.6619 48.6195,36.9619 48.0995,36.3109 C47.5775,35.6609 46.8635,35.1089 45.9525,34.6529 C45.0415,34.1979 43.9035,33.9689 42.5375,33.9689 C40.6505,33.9689 39.2685,34.3439 38.3905,35.0909 C37.5125,35.8399 36.7155,36.7019 36.0005,37.6769 L35.9025,37.8719 L35.5125,38.2619 C35.3815,38.3939 35.2195,38.4259 35.0245,38.3599 L21.0715,34.0669 C20.9405,34.0029 20.9085,33.8709 20.9735,33.6769 C21.2995,33.1569 22.0145,32.0999 23.1205,30.5049 C24.2255,28.9119 25.7555,27.2699 27.7065,25.5779 C29.6585,23.8869 32.0155,22.3749 34.7815,21.0409 C37.5445,19.7079 40.6835,19.0399 44.1965,19.0399 C47.0575,19.0399 49.7735,19.5129 52.3445,20.4549 C54.9125,21.3989 57.2055,22.7159 59.2225,24.4079 C61.2385,26.0999 62.8325,28.1149 64.0035,30.4559 C65.1745,32.7979 65.7605,35.3349 65.7605,38.0679 C65.7605,39.7599 65.5965,41.4509 65.2725,43.1409 C64.9465,44.8329 64.3455,46.4099 63.4675,47.8729 C62.5895,49.3369 61.4015,50.6059 59.9055,51.6779 C58.4085,52.7519 56.5225,53.5179 54.2465,53.9719 C56.1325,54.5569 57.8235,55.2569 59.3205,56.0699 C60.8155,56.8829 62.1015,57.9399 63.1745,59.2409 C64.2475,60.5419 65.0775,62.1199 65.6625,63.9729 C66.2475,65.8269 66.5405,68.0559 66.5405,70.6569 C66.5405,73.2589 66.0355,75.6809 65.0285,77.9259 C64.0185,80.1699 62.5395,82.1209 60.5885,83.7809 C58.6375,85.4389 56.2135,86.7239 53.3195,87.6339 C50.4245,88.5439 47.0575,88.9999 43.2215,88.9999 C39.3175,88.9999 36.0155,88.5439 33.3175,87.6339 C30.6175,86.7239 28.3895,85.6019 26.6335,84.2679 C24.8765,82.9359 23.4775,81.5359 22.4375,80.0729 C21.3965,78.6089 20.5505,77.3259 19.9015,76.2179 C19.5745,75.5029 19.1845,74.8859 18.7295,74.3649 C18.6645,74.1689 18.6969073,74.0389 18.8275,73.9739" id="Fill-5" fill="#AA1E02"></path>
                </g>
            </g>
        </g>
    </g>
</svg>