<svg xmlns="http://www.w3.org/2000/svg" xmlns:xlink="http://www.w3.org/1999/xlink" width="375.7" height="113.3"><defs/><defs><linearGradient id="a" x1="174.5" x2="174.5" y1="290.9" y2="218" gradientUnits="userSpaceOnUse"><stop offset="0" stop-color="#f78c33"/><stop offset=".4" stop-color="#df6135"/><stop offset=".6" stop-color="#a61e14"/><stop offset=".8" stop-color="#9d100b"/><stop offset="1" stop-color="#68100b"/></linearGradient><linearGradient id="b" x1="138.4" x2="138.4" y1="285.6" y2="224.3" xlink:href="#a"/><linearGradient id="c" x1="206.2" x2="206.2" y1="289.4" y2="213.5" xlink:href="#a"/><linearGradient id="d" x1="238.3" x2="238.3" y1="292.5" y2="218" xlink:href="#a"/><linearGradient id="e" x1="272" x2="272" y1="290.1" y2="225.4" xlink:href="#a"/><linearGradient id="f" x1="322" x2="322" y1="286.2" y2="224.1" xlink:href="#a"/><linearGradient id="g" x1="363" x2="363" y1="293.5" y2="204.9" xlink:href="#a"/><style>.d,.f,.r,.w,.x,.y{fill-rule:evenodd}.d{fill:#fff}.f,.l{fill:#a53335}.h{fill:#fefefe}.n,.y{fill:#ec5f37}.o,.r{fill:#fcb82e}.x{fill:#f68b34}.w{fill:#68100b}</style></defs><path fill="#777778" d="M85.2 95c-.7-.3-1.8-.2-1.6.8s1.7 2 2.5 1.5 0-1.8-.9-2.3zm196.3-5.5l-26.1 4.6-9.2-.4s10.1 10.6 19.2 10.5 13.4-4 10.6-8.3c0 0 5 2.4 8.5 0s-3-6.4-3-6.4zm-6.4 21.8c1.9-1.2-.3-3.4-1.8-4.5s-3.4-.4-3.7 1.2 3.6 4.5 5.5 3.3zM252 105c-.7-.4-1.8-.3-1.7.7s1.8 2 2.6 1.5 0-1.7-.9-2.2zm-67.4-13.7a8.3 8.3 0 00-.8 1.2l.8-1.2zM51.5 92.6c-.7 0-1.9 1.2-1 2.2s3.4-.5 3-1.4-1.6-.8-2-.8zm26.1-68.2c-2.6 1.6-1.4 4.1-.1 5.1s-2.3.3-8.6-2.1-13.3-.4-14.7 2.2a7 7 0 00-1 4.7 4.6 4.6 0 01-3 .7 1.1 1.1 0 00-.1-1.4c-.7-.7-3.8.2-3.6 2.7 0 0-1.1.2-.6-1.1s.9-3.1-1-3-5.1 2.6-4.8 4 1.5 1.4 1 2.8-3.8 5.1-7.1 5.7-2.7-1.1-2.3-1.5.6-4.3-3.4-3.4-9.8 5.6-6.5 9.6a4.2 4.2 0 00-2.3 2.7c-.2 1.9.7 2.9 2.3 3.8s1.9 4.4-1.6 4.6-4.3-2.7-4.4-4-2.4-5.2-5.5-4.8-3.4 2-1.5 2.7a3.2 3.2 0 01-2.5 1.4c-1.6 0-.9-.6-1-1.2s-2.1-1.4-3.8-.3-2.4 4.4-.2 5.4 3.1.2 4.8 0 2.3.2 2.3.6-1.4 1.2-.5 2.2-2.1 2.6-2 4.6 3.7 5.5 10 4.6c0 0 .4.7 1.8.2l4-1.6s-.7 2.1 1.4 1.8 4.3-1.8 4.9-.6-.8 1.2-.9 2.7 3.1 1.9 5.7 1a3.2 3.2 0 002.6 1.3A7.7 7.7 0 0039 75s-4.4-2.5-5-6.8 6.5-6.6 12.1-3S59 46.7 59 46.7l9.7-5.9-11.8-2.4s-1.3-1.3.8-4.9 8-1.9 8-1.9c-3.4.9-3 3.2-1.3 4.3s5.2 1.6 5.2 1.6v2.7l15-9.1-.6-5.9s-3.7-2.3-6.4-.8zM204.4 6.6c1.9-1.2-.3-3.5-1.9-4.5s-3.3-.5-3.7 1.2 3.7 4.5 5.6 3.3zM372.7 37c-1.3 0-2.8 2-4.1 2.2s-2.5 0-2.5-1.1-2.3-2.3-4.4-1.6-5.2.9-5.9 1.8a4.4 4.4 0 00-1 3.3 4.9 4.9 0 01-4.4 4.6c-3.6.6-6.3-.4-4.9-2.8s6.5-5.3 8.2-7.4a4.1 4.1 0 00-2.7-6.7c-3.8-.4-6.2-.4-5.3-2.8s2.2-5.5-1.3-6.2a17 17 0 00-10 1.3c-3 1.3-4.4 2.7-5.5 2.6a2.6 2.6 0 01-2.6-1.8c-.4-1.1-2.9-.7-2.7-2.1s1.8-2.2.1-3.6-3.7-2.3-10.4-.2c0 0 2.2-2.2 0-4.3s-10.3-2.8-19 3 25.2 25.4 34.7 31.2v-.5c0-2.5 3.3-4.5 7.5-4.5 13.4 0-.3 10.7-7.8 13.1l19 10c8.7-.8 14-12.3 10.8-14.6s-1.7-4.2.1-5.3 3.9-1.4 3.7.5-.7 3.5 1.3 3.2 3.3-4.2 4.3-5 1.4-.6 2.7-1.1.1-1.2 1.7-1.3h1c.8.2 1.3.3 2.1-1s-1.5-3-2.7-3zm-30.3-9c-1.8.6-3.7-.1-4-1.4s.7-2.8 2.6-3.3 3.7.1 4 1.4-.7 2.8-2.6 3.3zm-118-23.5c-1.1.6-1.3 3.1-2.4 3.9s-2.1 1.2-2.8.3-3.1-.9-4.5.8-4 3.4-4.3 4.5a5.2 5.2 0 00.8 3.4 4.6 4.6 0 01-1.4 6.1c-2.8 2.3-5.7 2.8-5.7.1s3-7.9 3.4-10.5a4.1 4.1 0 00-5.7-4.4c-3.5 1.5-5.5 2.7-6 .1s-.8-5.8-4.2-4.7a18.1 18.1 0 00-8 6.1c-2 2.7-2.5 4.5-3.5 5.1a2.7 2.7 0 01-3.1-.3c-.9-.8-2.9.8-3.5-.5s.6-2.8-1.7-3.2-4.3-.1-9 5.1a3.1 3.1 0 00-2.2-3.8c-2.9-.8-10.3 2.8-14.9 12.1s34.5 9.5 45.6 9.7l-.3-.4c-1.2-2.1.7-5.6 4.3-7.6s7.5-2.1 8.8.1.2 3.6-1.5 5.4l19.6-4.8s-.5-3.4-3.5-4.4-3.7-2.8-2.6-4.6 2.7-3.2 3.4-1.4 1.1 3.3 2.7 2 .8-5.2 1.2-6.4 1-1.2 1.9-2.3-.6-1.1.7-2l1-.4c.8-.3 1.3-.4 1.3-1.9s-2.7-1.9-3.9-1.2zm-34.9 8.1zM181.2.2c-.6-.3-1.8-.2-1.6.8s1.8 2 2.6 1.5 0-1.8-1-2.3zM18.9 74.6c-1.3-.1-3.5.7-3.1 2.2s2 1.7 3.4 1.1 2.4-3.2-.3-3.3zm28.7-45.4c1 0 1.8-.5 1.8-1.2s-.8-1.1-1.8-1.1-1.9.5-1.9 1.1.9 1.2 1.9 1.2zM17.2 69.7c-1.4 0-2.6-.5-2.6-1.1s1.2-1.1 2.6-1.1 2.6.5 2.6 1.1-1.2 1.1-2.6 1.1zm55.6 28.1c-.7-.1-1.9.7-2.6 1.7s-.9 2.7.7 2.7 3.5-2.4 3.5-2.8-.4-1.6-1.6-1.6zM62.9 92c-4.3.7-3.7-.6-3.1-2.7s2.8-2.7 4-2.8h.9a30.4 30.4 0 00-1.9-2.5l-2-.2s-5.7 1.5-5.6 3.6 3.4 1 3.4 1-1.2 3.1.5 3.8a28.2 28.2 0 01-2.5 2.5c-.8.7-1.9 3.6 2.8 5.1s9.1-2.5 12-3.8a62.6 62.6 0 018.3-2.6l.9-2.8-14.4-3c.8 1.5-.3 4-3.3 4.4zM175 98.8h-1.7a7.3 7.3 0 01-4-2.7 4.5 4.5 0 00-2.6 1.7 1 1 0 01.9 1.1c0 .9-2.8 2.5-4.5.5 0 0-.8.7.4 1.3s2.9 1.6 1.5 2.8-5.5 1.8-6.4.6.2-2.1-1.2-2.7-6.3-.9-9 1-1.1 2.6-.6 2.7 3.5 2.5 0 4.7-10.9 3.1-11.4-2.2c0 0-2.1.9-3.5-.2s-1.6-2.5-1.1-4.3-10-2.1-17.3.7c-2.4.9-2.4-1.4-2.4-1.5a10.7 10.7 0 014.4-6.2s-.2-.8 1.1-1.4l4-1.7s-2-1-.3-2.3 4.2-1.8 3.9-3.1-1.5-.2-2.6-1.2.9-3.6 3.4-4.7a3.4 3.4 0 01.8-2.8 8.5 8.5 0 013.6-1.5s-1.3 4.9 1.4 8.4 9.2 0 10.6-6.5 22.3 4 22.3 4l11-2.7-6.7 10s0 1.9 4 2.9 7.1-4.3 7.1-4.3c-3 1.7-4.3.1-4.1-1.8h-.1c-.7-1.4.1-2.5 1.4-3a14.2 14.2 0 011.4-2l-2-1.9 10.3-2.6a11 11 0 012.1-1.4 3.3 3.3 0 01.9-2.8c1.1-1.1 3.6-1.4 3.6-1.4a10.1 10.1 0 00-.3 4.1h.4l3.8 4.6-.3 1c3 .5 7.2-2.7 8.3-7.8s22.3 4 22.3 4l11-2.7-6.7 10.1s0 1.9 4 2.9 7.1-4.4 7.1-4.4c-3.1 1.8-4.4-.1-4-2.1s2.6-5 2.6-5l-2-1.9 17.1-4.2 3.7 4.6s-1 4.3-3.9 5.1-3.9-1.9-3.7-3.5c0 0-1.8 1.4-4.6 7.5s-9.1 9.7-12 8.9a6.8 6.8 0 01-4-2.7 4.5 4.5 0 00-2.6 1.7 1.2 1.2 0 01.9 1.1c0 1-2.8 2.5-4.5.6 0 0-.8.6.4 1.2s2.9 1.6 1.5 2.8-5.5 1.8-6.3.6.1-2-1.2-2.7-6.4-.9-9.1 1-1.1 2.6-.6 2.7 3.5 2.6 0 4.7-10.8 3.1-11.3-2.2c0 0-2.1.9-3.6-.2s-1.6-2.5-1-4.3-1.9-4.4-4.5-2.1-1.1 4.9-.2 5.9 2 5.4-.6 7.3-3.7 1-2.8-.8a3.2 3.2 0 00-2.8.7c-1.2 1.1-.3 1.1.1 1.6s-.5 2.5-2.4 2.9-4.9-1.5-4.1-3.7 2.1-2.3 3.5-3.3 1.4-1.9 1.1-2.1-1.8.1-1.9-1.3-3.3-.2-4.6-1.8a4.4 4.4 0 01-.8-2.3zm57.1-.3c.7-.8 1.6-1 2.1-.5s.2 1.4-.5 2.1-1.7.9-2.1.5-.3-1.4.5-2.1zm-115.5-6.6c-.9 1-3 2-3.8.6s.2-2.6 1.6-3.1 4 .5 2.2 2.5zm52.3 11.8c.8-.7 1.7-.9 2.2-.5s.2 1.4-.5 2.2-1.7.9-2.2.5-.2-1.4.5-2.2zm-50.1-7.1c-1 1-1.5 2.1-1 2.6s1.6-.1 2.6-1.1 1.4-2.2 1-2.6-1.6.1-2.6 1.1zm170.8-5.3a1.5 1.5 0 00-1.9.8s-.2 1.3 1.7 1.1 1.3-1.6.2-1.9zm-181.3 10.1c2-1.2-.3-3.5-1.8-4.5s-3.4-.4-3.7 1.2 3.6 4.5 5.5 3.3z"/><path fill-rule="evenodd" d="M90.3 57.8h-.2l.2 1.6zm235.5 33.5l-7.6 9.6 1.2-6-2.3-1.3.8-1.5a86.3 86.3 0 00-13.6-6.8h-.6l-.5-16.2-11.7-50.3c.9-2.2.1-5.9-.4-8.2l22.7-3.7 15.8-2.7V5l7.6-1.3c.2 3.6 1.8 19.2-1.8 21.4l-15.5 7.5.9 5.4c4.4-1.4 8.8-2.6 12.9-5l3.1 17.4-5.5 4.8 9.7 1.9 8.2-6.7-6.2 27.7-15.4 21.6-1.9-8.2zm-44-7.5c-2.2 3.7-4.4 7.3-6.3 10.8-.8-3-1.7-6.8-5.4-7.5h-.1c-6.8-.4-13.7.5-20.4 1.5l-9.3 9.6-18.5-2.6-6.9 6.2-1.2-6.2-.6-10-1.1-.4-12.9 13.9.8-3.4-4.3 4.5v-4.3l5.6-5.6 4.8-21.6-9.1 7.4-10.5-2.1a6.1 6.1 0 01-.5 1.2l-24 21.3.3-.9a28.5 28.5 0 001.5-6.7l-5 1.7.3-5.6-1.5.6-9.7-20.7c-3.9-16.2-7.5-34-16.6-48.2l-1 .2h-.6l1.6-.5-1.5-4.8 30.5-4.2 1.2 3.9-2.2.7h.1l2.1-.4a61.9 61.9 0 015.9 11.8v.6l16.6-4.8 17.5-1.5-.2 1 10.4-2a79.6 79.6 0 012.3 9.1l12.8-1.9 3.4.8 5.1.4.8 3.1.2 1.2L263 13.9h.2l.4-.2a66.7 66.7 0 018-1.9c3.5-.6 6.8-.7 10.3-1.1l.8 6.3-2 1.3h1.2l-.3 65.8zM129.1 94.4l8.3-5.4a196 196 0 011.9 7.3h.8v.4l-4.4 3.3-4.1-3.6-3.2 2.2.8-4.1zm-19.7-68l-2 .4 1.5-1 .5.6zm23.9 49l-.4.2-17.6-3.4 15-5.4c1.1 2.8 2 5.7 3 8.6zm-8.5-22.6l-12.5 2.4-1-6.5h.4l9.3-3.2h.3l3.5 7.6zm-25 35.4l-3.4 1.2 3.3-1.6v.4zm-3.2-3.4l-19.2 8.1c.3-7.9-.9-14.5-3.1-22.1a.4.4 0 01-.1-.3.4.4 0 01-.1-.3H74v-.3l2.2.5a29.2 29.2 0 0113.4 6.9l4.7 4.6h.1l.3 2.3 1.6.2.2.3zm-35 2.6l-13 4.4 3.7-1.6-1-1.7 1.2-.2v-.2l-.4-1.2h8.2v.3h1.2zm34.5-48.9c-.4-4.3-3.3-8.7-7.3-10.2l-1.2-.3h-2l25.9 1.5h2.2l-17.6 9zM68.4 56.8L65.6 51l-.3-.4a19 19 0 014.3-2.1 2 2 0 011.1-.2 2.8 2.8 0 010 1.3 13.8 13.8 0 01-1.1 4.1l-.9 2.3v.2l-.3.6zm-22.3.4l-12 1.5 3.7-3.3 1.6.9 1.6.8.9.5.9-.7L53 48.3h.2a97 97 0 00-5 5.9 25.3 25.3 0 00-2.1 3.2zm23-23.2a34.5 34.5 0 00-1.8-7.2l16 .9a20.4 20.4 0 00-7 2.1 43.6 43.6 0 00-7.2 4.2zm-1.8-7.2zM45.5 72.3a30.1 30.1 0 00-6.7.2h-1.6l7.7-1.6.6 1.3zm-.8-1.8l11.6-2.4a8.7 8.7 0 00.7 1.7h-.5v-.3a113 113 0 00-11.7 1zm-8.2 5.1L39 75h.1l-2.6.5zm12.3-41.3h10.5L51 42.1c.5-2.3-1.2-5.7-2.2-7.9zm5.4 28.9l-3.5.6 1.2-1.4 1.2-1.4a22.6 22.6 0 011.1 2.2z"/><path fill="#fff" d="M90.1 58.2zm0 0zm-.1-.1zm-.2-.1zm-.1 0zm-.1-.1zm-.2-.1h-.2l-.4-.2.2-.4h.2V57h.2l.2-.2h.4v.3h.4l.2 1.6.2.8-.8-.4-.7-.4zm236.2 34.4l-7.1 9-.7-.4 1.1-5.7-2-1.1-.3-.2v-.4l.7-1.2a97 97 0 00-6.3-3.4 62.1 62.1 0 00-7-3.1h-.8v-.3l-.4-16.4-11.7-50.3v-.2c.8-2 .1-5.3-.4-7.5a1.3 1.3 0 00-.1-.5v-.4h.4l22.7-3.7h.3l15.4-2.6h.5v.7l7.2-1.2h.4v.4a3.8 3.8 0 00.1 1c.3 4.9 1.4 18.7-2.1 20.9L320.3 33l.7 4.6 1.5-.5c3.8-1.2 7.5-2.3 10.9-4.3l.5-.3v.5l3.1 17.4v.3h-.2l-4.9 4.2 8.7 1.7 8.1-6.6.6.4-5.8 27.6v.2l-15.3 21.6-.6.7-.2-.9-1.7-7.4zm-6.7 7.2l6.6-8.4.5-.6.2.8 1.7 7.4 14.8-20.8 6-26.6-7.3 6h-.4l-9.6-1.8-.8-.2.6-.5 5.3-4.6-3-16.7a56.1 56.1 0 01-10.5 4.2l-2 .6h-.4v-.4l-.9-5.4v-.3h.3l15.4-7.5c3.1-2 2-15.4 1.7-20.2a.7.7 0 01-.1-.5l-7.2 1.3h-.4v-.8L314.1 7h-.4l-21.9 3.7c.5 2.3 1.2 5.7.4 7.9l11.6 50.1.5 15.9h.3c2.4 1 4.8 2 7 3.1l6.7 3.7.3.2-.2.4-.6 1.2 1.7.9.3.2h.2v.3l-.9 4.4zm-81-76.9a47.4 47.4 0 00-1 4.9l26.5-14 4.3-1.4a25.9 25.9 0 014-.9 52.6 52.6 0 016.7-.7l3.7-.4h.4v.4l.8 6.2v.3h-.2l-.8.6h.2v.4l-.3 65.8v.2l-2 3.5-4.3 7.3h-.7a2 2 0 01-.1-.5c-.8-2.8-1.7-6.1-4.9-6.8h-.1a86.9 86.9 0 00-10.2.3c-3.4.3-6.7.8-10 1.3l-9.2 9.5h-.4L222.1 96l-6.9 6-.5.4v-.6l-1.2-6.3-.9-8.4-.6-.3-12.4 12.5-.6-.4.4-2-3.3 3.5-.7-.3v-4.3h-.1l.2-.2 5.4-5.5 4.6-20.4-8.2 6.7h-.4l-10.1-2v.2l-.3.7h-.1l-24 21.3-.7-.5.3-.8a22.6 22.6 0 001.4-5.7v-.3h-.3l-4.3 1.7h-.6v-.5l.2-5-.9.3-.3.2-.2-.4-9.5-20.6h-.1l-1-4.5c-3.6-14.8-7.3-30.5-15.4-43.4l-.8.2h-1.7l-.2-.8h1.2l1.2-.4-1.4-4.5V11h.5l30.5-4.2h.3v.3l1.2 3.8v.4a38.6 38.6 0 013.3 5.8l2.5 5.9v.3l16.3-4.7h.1l17.5-1.5h.6l-.2.6v.3l9.8-1.8 1.1.3c.3 1.3 2 7.5 2.3 9.1l11.8-2.9 3.4 1.9 7.6-1.9m-8.7 2.8l-2.3-1.7-13.2 2.2v-.5l-1-4.9c-.3-1.5-.5-1.9-.9-3l-10.3 1.3-.6.2.2-.7V18l-16.9 1.5-16.6 4.8h-.4v-1.2c-.8-1.9-1.5-3.8-2.4-5.6a45.7 45.7 0 00-3.2-5.5h-.3l-1.6.3h-.1l-.2-.8h.1l1.7-.6h.1l-1-3.1-29.7 4.1 1.4 4.3v.4h-.1c8.2 13 12 28.8 15.5 43.8l1.1 4.5 9.5 20.2 1.1-.4.6-.2v.6l-.3 5L163 89l.9-.3.6-.3v.7a5.5 5.5 0 00-.1.9 30.2 30.2 0 01-1.2 5.2L185.6 75l.2-.5.2-.6v-.3h.4l10.2 2 9-7.2.6.4-4.8 21.6v.2l-5.4 5.5v3.1l3.6-3.8.7.4-.4 1.9 11.5-11.5.2-.2h.2l1.1.4h.3v.3l.9 8.6 1 5.5 6.5-5.7h.3l18.2 2.5 9.2-9.5h.3c3.3-.5 6.7-1 10.1-1.3a71.1 71.1 0 0110.3-.2h.2c3.6.7 4.6 3.9 5.4 6.9l3.8-6.5 2-3.4.3-65.3h-.8l-12 7.4V25l13.7-8.5-.7-5.6-3.4.3a51.1 51.1 0 00-6.6.7l-4 .8c-1.3.4-2.4 1-3.8 1.4L253 19.8l-14.3 14.6-3.6-5.7.4-3.9-6.2.5M128.9 94l8.3-5.3.4-.3.2.5 1 3.7.8 3.2h.9v1.1h-.1l-4.4 3.3-.3.2-.2-.2-3.9-3.4-3 2-.6-.4.8-4.1v-.2zm8.3-4.3l-7.7 4.9-.6 3 2.4-1.6.2-.2.3.2 3.8 3.4 3.6-2.7h-.3v-.3l-.9-3.6-.8-3.1zm-27.7-62.9l-2 .4-.3-.7 1.5-1.1.3-.2.2.3.5.7.5.5zm24 49h-.7l-17.6-3.4v-.8l15-5.4h.4v.3l1.5 4.3 1.5 4.4v.3l-.3.2zm-16.7-3.7l16 3.1-1.3-4-1.4-3.9-13.3 4.8zm8.1-18.9l-12.5 2.4h-.4v-.4l-1-6.5v-.4h.7l4.7-1.7a42.6 42.6 0 014.7-1.5h.6v.3a31.4 31.4 0 011.8 3.7l1.8 3.8.2.5zm-12.3 1.6l11.6-2.3-1.5-3.3-1.6-3.5-4.7 1.5-4.6 1.7h-.1l.9 5.9zM99.9 88.6l-3.4 1.1-.3-.7 3.4-1.5.4-.3v1.3zm-3.2-3.4l-19.2 8-.6.3v-.7a65.2 65.2 0 00-.6-11 77.2 77.2 0 00-2.5-10.9v-.4h-.1l-.2-.7h.6l1.2.3 1.1.2a39.8 39.8 0 017.5 2.8 27.6 27.6 0 016.1 4.2l2.4 2.3 2.3 2.4v.2l.4 1.9 1.2.2h.3l.1.2h.1l.1.1.2.4-.4.2zm-18.9 7.1l17.9-7.6h-1.3v-.3l-.3-2.2-2.3-2.4-2.4-2.2a22.3 22.3 0 00-5.9-4.1 30.4 30.4 0 00-7.3-2.7l-1.1-.2h-.5v.3a78 78 0 012.6 10.9 62.3 62.3 0 01.6 10.7zm-16.1-4.5l-12.9 4.4-.3-.7 3.2-1.5-.8-1.3-.3-.4.6-.2h.8v-.3l-.2-.7v-.5h9v.3H62v.7zm-9 2.2l7.4-2.5v-.2h-7.4l.3.7v.6h-1.1l.8 1.1zm43-51.5a12.3 12.3 0 00-2.3-6.1 10.5 10.5 0 00-4.8-3.8l-.5-.2h-.6l-.2-.1h-1.7v-.8l25.8 1.5h2.4v.7l-17.6 9-.6.3v-.6zM94 31.9a13.6 13.6 0 012.4 6l16.2-8.3h-1.1l-21.8-1.3A11.8 11.8 0 0194 32zm-7.6-3.8zm-18 29.1h-.2V57h-.1l-1.5-3.1-1.3-2.6-.2-.5-.2-.3.3-.2 2.1-1.2a10.9 10.9 0 012.3-.9l.7-.2h.8a1.4 1.4 0 01.2.7 1.7 1.7 0 01-.1.8 7.8 7.8 0 01-.4 2.2l-.7 2.1-.9 2.3h-.1l-.2.6v.3zm-1.2-3.7l1.2 2.3.8-2.2a11.8 11.8 0 00.7-2 7.9 7.9 0 00.4-2 1.9 1.9 0 00.1-.8h-.7a18.9 18.9 0 00-2.1.9l-1.7 1v.2l1.3 2.6zm-21.1 4.1l-12 1.5-.3-.7 1.9-1.6 1.8-1.7h.5l1.6 1 1.5.8.8.3.6-.5 7.6-6.4 2.6-2.2h1.4l-.6.7-2.5 2.8a31.5 31.5 0 00-2.4 3l-1.2 1.5-1 1.6v.2zm-10.8.6l5.4-.7-1.5-.8-1.3-.9-1.7 1.6-.9.8zm7.8-1l2.7-.4a13 13 0 011-1.5l1.1-1.6 1.5-1.8-6.3 5.3zM68.7 34a34 34 0 00-1.5-6.3 4.5 4.5 0 01-.2-.8l-.2-.6h.6l15.9.9v.7l-3.5.8-3.4 1.3-3.6 2-3.4 2.3-.6.4V34zm-.7-6.6a39 39 0 011.4 5.9l3-1.9a33.5 33.5 0 013.7-2 19.9 19.9 0 013.4-1.3l.6-.2-12.2-.7v.2zM45.5 72.7a24.2 24.2 0 00-6 .1h-.7l-1.6.2v-.8l7.6-1.6v-.4l11.6-2.5h.3l.2.3a2 2 0 00.3.8 4.6 4.6 0 01.3.9l.3.6h-1.4V70l-5.5.3-5.3.7.6 1.2.3.7zm-2.6-.9h2l-.2-.4-1.8.4zM56 68.6l-3.2.7 3.4-.2a1.7 1.7 0 00-.2-.5zm-19.6 6.6l2.6-.6h.2l.2.2.4.5h-.6l-2.6.5h-.1V75zm12.8-41.3h10.1l.3.7h-.1l-4.1 3.9-4.1 3.9-.6-.4c.4-2-1-4.9-1.9-7l-.2-.5.6-.7zm9.1.8h-8.8a17 17 0 012 6.5l3.4-3.2 3.4-3.3zm-4 28.9l-3.5.6-.4-.6 1.2-1.5.6-.7.7-.7.3-.4.3.5a11.7 11.7 0 01.5 1.1l.6 1.2.2.4zm-2.6-.4l1.9-.3-.3-.6-.3-.6-.2.2-.6.7-.5.6z"/><path d="M109.4 84.9h.5a74.7 74.7 0 0117.8 7.2l.7.4-.9 4.4-1.3-.5a280.2 280.2 0 00-19.6-7l-2.8-.7-2-.4h-.9l-.8-4.6-3.6-.4h-.9l-5-29.9-5.7 2.6 6-13.5.4-.2 8.9-4.6 5.1-2.5c4.8-2.3 9.4-5 14-7.6l1.4-.9a46.2 46.2 0 006.4-4.5l1.2-1 .5 1.5c1.6 4.5 2.7 9.8 1.4 14.5a15 15 0 01-1.6 3.4l3.9.4-5.5 1.5h-.2l-3.4 1-6.2 2-6.6 2.3-.5.2 1.4 8.7 5.7-1.8 4.2-1.4 1.5-.6 2.3-.3a12.2 12.2 0 011.7 2.9l1.5 4 1.6 4.9.5 1.8.1.2h.3l.4 2.2-17.4 2.6.3 1.7 19 3.7 8-6.5L135 98l-1.4-1.3a45 45 0 00-17.2-10.2 54.7 54.7 0 00-7-1.6z" class="d"/><path d="M129.1 94.4l-.8 4.1-2.4-1c-4.3-1.7-8.5-3.3-12.8-4.8l-6.7-2.2-2.8-.7a6.3 6.3 0 00-1.9-.3l-1.7-.2-.8-4.6-2.8-.3-1.7-.2-4.9-29.4-7 3.3 7.3-16.5.7-.3 8.9-4.7 5.2-2.5a267 267 0 0013.9-7.5l1.4-.9a43.7 43.7 0 006.2-4.4l2.4-2 1 3a26 26 0 011.4 15.1 20.4 20.4 0 01-.9 2.2l7.9.8-10.9 3h-.3l-3.3 1-6.2 2-6.2 2.2 1 6.5 11.3-3.9 1.8-.7.9 1.7 1.2 3 1.6 4.2 1.7 4.7.4 1.1h.6l.7 4.3-17.2 2.6 17.6 3.4 10-8.2-7.3 32.5-2.7-2.4c-1.3-1.1-2.5-2.2-3.8-3.1z" class="d"/><path fill="url(#a)" fill-rule="evenodd" d="M153 238.2l-4.6 10.4 13-6.1-8.5 5.3 4.9 29.4c16.1 1.8 24.7 2.1 37.7 13.7l5.1-22.8-5.9 4.8-20.3-3.9-.3-1.8-16.8 6.8-.2-.7 17-6.6v-.4l-17 5.9v-.6l17.1-5.3v-.9l17.3-2.7c-.4.1-4.3-11.8-5.7-14.4l-13.7 4.9-1.2-7.5-6.6 1.9 6.5-2.7-.3-1.4-9.2 2.6 9.1-3.7 1.3-.5a171.6 171.6 0 0116.4-5.4c-.8.2 6.2-3.9 1.2-18.4a44.7 44.7 0 01-7.9 5.4c-16 9.2-12 6.2-28.1 14.8zm9.5 41.2a75.6 75.6 0 0125.8 8.8l-.4 2.3s-19.1-7.8-24.9-8.2l-.5-2.9z" transform="translate(-61.2 -195)"/><path d="M106.8 85.4l20.1 8.7.2-.9a75.6 75.6 0 00-20.3-7.8z" class="f"/><path fill="#6f2b31" fill-rule="evenodd" d="M117.9 44l8.7-2.6c-.8.2 6.2-3.9 1.2-18.4a44.7 44.7 0 01-7.9 5.4l-8.5 4.8a91.9 91.9 0 015.2 8.5 17.1 17.1 0 011.3 2.3z"/><path d="M128.4 68l1.6-.3c-.4.1-4.3-11.8-5.7-14.4l-1.6.6 1.2 2.8c1.6 3.7 3.1 7.5 4.5 11.3zM135.5 90.3l3.9-17.2-5.9 4.8-1.8-.3 3.8 12.7zM92.6 58.4l3.6 21.1a22.9 22.9 0 00.8 2.8c10.8 1.1 12.8-.2 20.5 3.7 4 .5 4.6-1.1 4-2.9s-1.6-4.3-2.8-6.9l-.6-1.3-4.9-.9-.3-1.8L96.1 79l-.2-.7 17-6.6v-.4l-17 5.9v-.6l17.1-5.3v-.9l1.9-.3a44.7 44.7 0 00-22-11.7z" class="f"/><path d="M42.7 54.6h.9l3.1-4.8-.5-.6-3.5 5.4zM42.1 52.5h.5l1.5-2.3c0-.1-.2-.4-.4-.4a27.1 27.1 0 00-1.6 2.7zM58.7 44.9c.3 0 .7-.1.7-.4s-.2-.3-.4-.3a.5.5 0 00-.4.2.4.4 0 00.4.6c.4 0 .5-.4.5-.7s-.1-.3-.2-.3a.8.8 0 00-.7.8c0 .1.1.2.3.2a1 1 0 00.7-.2v-.2h.1c.1-.2 0-.3-.1-.4a.6.6 0 00-.9 0 1.8 1.8 0 00-.4.9c0 .3.3.4.5.4a1.4 1.4 0 001-.8c.2-.6-.6-.9-1-.5a.4.4 0 00.3.6h.1v-.2h-.4a.8.8 0 00.4.4.4.4 0 01.1-.3h-.1v-.1h-.3l.2.3c0-.2.1-.3.2-.3l-.2-.2v.2h-.2l-.2.2c-.1 0-.1.1 0 .1zM60.9 43.5h.1l.2-.3c0-.1 0-.3-.2-.3a.2.2 0 00-.4.1c-.1.2.2.4.4.3h-.4V43c-.1.1-.2.3-.1.4 0 .2.2.3.3.2z" class="h"/><path d="M56.5 69.8h.5c-1.2-3-2.5-6-3.9-8.8l-1.2 1.4-1.2 1.4c-1.4-1.5-4.8-3.5-5.2-5.6l.5-.9a37.8 37.8 0 012.2-3.3l3.9-4.7 1.1-1.2-5.7 4.9-4.7 3.9-.9.7-.9-.5-1.6-.8-1.6-.9-2.8 2.5-.9.8-3.6-1.7 1.1-1.7c.9-1.4 2-2.7 3-4l4.4-5.5 4.9-5.8 3.2-3.8 1.7-1.9 1.1 2.4c.6 1.2 1.4 4.1 1.1 5.5l8.3-7.8 6-5.8 2-1.8.9 2.6.4 1.8a20.5 20.5 0 01.5 2.4v.4a43.6 43.6 0 017.2-4.2c3.8-1.8 8.4-3.1 12.5-1.6a11.5 11.5 0 016.5 7 9.5 9.5 0 01.8 3.7v.9l.4-.2-.7 3.5-1 3.7a44.4 44.4 0 01-4 8.2 17.6 17.6 0 01-1.4 2.3l2.9 1.6q4.6 2.5 9 5.4a54.7 54.7 0 015.4 4.1 40.1 40.1 0 019.6 12 2.7 2.7 0 01.1 2.3l2.4-.8-.7 3-.8 3.4-.3 1-18.6 4.6-2-4.5 11-3.7-10 1.7-.4-1.5a4.3 4.3 0 00-.5-1.2 20.1 20.1 0 00-2.2-2.9 102 102 0 00-4.7-4.6 29.2 29.2 0 00-13.4-6.9l-2.2-.5c1 3.4 1.9 7 2.7 10.4l.4 3.6a51.7 51.7 0 01.4 6.8v2.2l-2.1-.6a97.7 97.7 0 00-12-2.3l-1.3-.2-.4-2.5h-1.2v-.3h-8.2l.4 1.4-1.2.2 1 1.7-3.7 1.6-.8-1.1-9.7-12.9-1.6-2.2 2.6-.5-1.9-2.5 3.1-.3h5.2l-.8-1.8 2.3-.3a73.8 73.8 0 018.1-.7h1.3v.3zM68.7 56l.9-2.3a13.8 13.8 0 001.1-4.1 2.8 2.8 0 000-1.3 2 2 0 00-1.1.2 9.9 9.9 0 00-2.8 1.2l-1.5.9.3.4c.6 1.5 1.4 2.8 2.1 4.2l.7 1.6.3-.6V56z" class="d"/><path fill="none" d="M39.5 14.5h75.7v76.2H39.5z"/><path fill="url(#b)" fill-rule="evenodd" d="M110.4 284.7l-9.7-12.9 1.8-.3 8.5 12.9-.6.3zm.4-2.6l-7.9-11.3-1.2-1.7h4.8a125.2 125.2 0 015 13zm1-25.8c-.2-.6-3-2.7-3.1-3.2 3.4-6.7 37.5-43.6 46.2-22.2a10.1 10.1 0 01.7 3.1 4.3 4.3 0 01-2.2 3.9l-21 11.5c6.7-17.7-14.2-.9-20.6 6.9zm9.4 23.9h-7.3c-.6-1.5-3.7-9.6-5.4-13.3 1.2-.1 4.3-.5 7.9-.7.5 1.6 3.5 9.5 4.8 14zm15.7 5.4c-3.8-1-8.3-1.8-12.2-2.4l-.3-1.7c5.1.7 10.7 2 10.7 2a61.8 61.8 0 00-12.2-2.9l-4.7-14h2.6l-.3-.6a147 147 0 00-4.9-11.5c1.5-.9 6.9-6.6 9.6-7.8 1.1 2.4 3.4 6.3 4 8.9l-.6 3.5 2.9-7.4a6.3 6.3 0 012.9-3.3l20.9-10.8c-1.4 7.2-7 14.8-7 14.9l-.3.4.4.2c.1 0 11.5 5.6 18.4 11.5a41 41 0 019.2 11.5 1.1 1.1 0 01-.9 1.6l-15.3 2.6a12 12 0 00-.6-1.7 48.7 48.7 0 00-7.2-7.8c-9-8.2-21.4-8.3-22.2-8.3l3.2.8h-.1s1.7 5.1 2.9 10.7a8.5 8.5 0 01.4 1.7 76.1 76.1 0 01.7 9.8z" transform="translate(-61.2 -195)"/><path fill="#7a2d2e" d="M68.6 67.6l3.8 3-.6-2.2-3.2-.8z"/><path d="M98.8 90.4l17.2-4.5.5-1.4-17.7 5.9z" class="l"/><path fill="#943132" d="M59.2 71.6l2.5 14L57 71.5l2.2.1z"/><path d="M54.8 71.9a52.4 52.4 0 00-5.6.2l-.3.3a.2.2 0 00.1.3c.5.4 1.6 0 2.1-.1l3.7-.7c.1 0 0-.1 0-.1zM86 59.2c1.6 1.1 3.7 1.7 5.5 2.6l5 2.8a101.3 101.3 0 0110 7.2 62.7 62.7 0 00-9.5-7.5 44 44 0 00-5.2-3 23.4 23.4 0 00-5.6-2.5.3.3 0 00-.2.5zM64.3 56l-8.2 3.9.7 1 7.5-4.2V56zM59.5 60.3s.6.5.8.5 4.2-2.7 4.2-2.7l-.1-.6-4.9 2.8z" class="n"/><path d="M63.1 84.6a45.9 45.9 0 0112.6 3.2l.2-.2a51.3 51.3 0 00-.9-6.7l-1.5-.6c-1.1-.7-1.8 2.1-3.8.3s-4 .4-6.1-3.3a2.1 2.1 0 00-2.4-1.2l1.9 8.5zM50.9 77.1a7 7 0 002.3.5 7.8 7.8 0 003-1.1l2.6 7.7-5.1-.2-2.8-6.9zM49.9 86.1l-4.7-7.4 1.4.3 3.3 7.1z" class="o"/><path d="M68.1 79a.5.5 0 00.5.8c.5.1 1.1-.3.9-.8a.9.9 0 00-.7-.5.8.8 0 00-.9.3.4.4 0 000 .5.5.5 0 00.1.3.8.8 0 00.7.3.3.3 0 00.3-.3.2.2 0 000-.3.5.5 0 00-.4-.2.4.4 0 01-.1.3h.3a.3.3 0 00-.1-.2V79h-.1a.3.3 0 00-.5-.2zM66.9 78.2c-.1-.1-.3 0-.4.1a.4.4 0 00.1.3h.3l.2-.3-.3-.3a.3.3 0 00-.3.3c-.1.2.1.3.3.2h.2l.1-.1a.2.2 0 000-.3h-.4c-.2.1.1.5.3.3h-.1a.1.1 0 01-.1-.1l.1.2a.3.3 0 00-.1.2h-.1v-.2l.2-.2a.1.1 0 00.1.1.1.1 0 01-.1-.1v.3h.1a.4.4 0 00-.1-.3zM73.4 80.2h-.1l.2.1.3-.2a.3.3 0 00-.1-.2c-.1-.3-.5-.1-.4.2l.2-.2c-.1-.3-.6 0-.4.2.1.2.2.2.3.1zM53.9 76.8c.2.3.5.1.8.1s.3-.5 0-.6-.5-.2-.7 0a.5.5 0 00-.3.6.7.7 0 00.6.3.9.9 0 00.7-.3.4.4 0 00-.1-.7H54a.5.5 0 00-.3.7c.1.3.5.3.8.3a1 1 0 00.8-.4.6.6 0 00-.1-.4c-.3-.2-.6-.4-.9-.2a.2.2 0 00-.1.4h.3l.1.1.3.2h.1l-.3-.5h-.5v.4h.3v-.6c-.1.1-.2.3-.3.2h.3v-.6l-.4.2a.4.4 0 00-.1.3z" class="o"/><path d="M54.9 76.8l-.2.2.2.3c.1.1.2-.1.2-.2s-.2-.3-.4-.2 0 .4.2.3h.1c.2-.1.1-.3-.1-.3a.4.4 0 00-.5.3l.1.1h.4V77h-.1l.1.3h-.1l.2-.2c.1 0 0-.1 0-.1zM61.8 74.8l-.2-.3a.3.3 0 00-.4 0c-.1.1-.2.3 0 .4s.2.1.4-.1a.2.2 0 000-.3c-.2-.2-.4-.1-.4.1s.1.3.3.3.3-.1.2-.3h-.1c-.1 0-.1 0 0 .1l-.3.2a.1.1 0 01-.1-.1v-.2h.3l-.1.4h.2c-.1.1-.1 0 0 .1s.2 0 .2-.1zM61.4 73.2h-.2c-.1-.1-.1-.1-.2 0h.3l.1-.2zM43 75.6l4.3 6.4c0 .1.1 0 .1 0a34.7 34.7 0 00-4.4-6.4zM98.6 90.4l17.3-4.5-.4 1.9-16.2 4-.7-1.4z" class="o"/><path d="M75.7 87.8a61.4 61.4 0 00-12.6-3.2l-.4-1.1a55.8 55.8 0 0113 4.3z" class="l"/><path d="M100.3 82.8h-.4l-.2.2a.5.5 0 00.8.2c.2-.4-.2-.9-.6-.6s-.2.4-.1.5a.4.4 0 00.5.2h.2a.4.4 0 00.1-.3c-.1-.2-.3-.4-.5-.3l-.3.2.1.2h.2-.1v.2h.3zM102.5 83.4l-.2-.1a.1.1 0 000 .2l.3.2a.4.4 0 00.2-.5c-.1-.2-.3-.1-.4.1s-.1.1 0 .1c-.1.1 0 .1 0 .1h.1c0 .1.1 0 .1 0h-.1l.1-.1a.1.1 0 01-.1.1.1.1 0 00.1-.1.1.1 0 00-.1-.1h-.2c0 .1.2.1.2 0zM96.5 79.4a.4.4 0 00.6.2.3.3 0 00.1-.2c-.1-.2-.5-.3-.6-.1s0 .4.2.3h.1a.1.1 0 00.1.1v-.3h-.3l-.2.2z" class="o"/><path d="M98.9 82a.6.6 0 00.3.8 1.1 1.1 0 00.9.3h-.3c.3.3.7.1.9-.2a.8.8 0 00-.4-1.2.9.9 0 00-1.2.2 1.1 1.1 0 00.6 1.8 1.1 1.1 0 001.2-1.4 1 1 0 00-1.7-.1c-.1.3-.1.7.2.8a.7.7 0 00.9-.2.3.3 0 01-.6-.2c0-.1.1-.2.3-.2s.2.2.2.3-.2.4 0 .2h-.4l-.2-.2.3-.7a.5.5 0 01-.6-.2c-.2-.1-.4 0-.4.1zM102.5 82.9h-.3a.5.5 0 00-.2.4.5.5 0 00.8.2.4.4 0 00.2-.5c-.2-.2-.4-.3-.6-.2s-.4.2-.4.5.1.3.2.3.4 0 .4-.2v.1h-.3a1.1 1.1 0 00.1-.5h.2a.1.1 0 01.1.1l.1.2-.3-.4zM110 81.3c0 .3.2.4.5.5a.9.9 0 00.7-.1c.4-.2.3-.6 0-.8s-.6-.4-1-.2a.8.8 0 00-.5.7.8.8 0 00.8.7l1-.3c.4 0 .5-.5.2-.8a1 1 0 00-1.3-.1.4.4 0 00-.2.5c0 .3.4.4.6.3h.2a2.4 2.4 0 00.2-.8h-.8l.4.4-.1.2a1.7 1.7 0 00-.1-.7c.1-.1 0-.1 0-.1h-.3c-.2.1-.3.2-.3.4zM96.6 79.7a1.5 1.5 0 00.7.3c.4.1.8-.2.6-.6a.7.7 0 00-.7-.6.7.7 0 00-.7.6.3.3 0 00.3.5c.4.1.7-.1.7-.4s-.2-.4-.3-.3h.1v.2a.8.8 0 00-.2.5h-.2l.3-.9h-.3c-.2 0-.4 0-.5.2s0 .4.1.5zM95.4 77.5c-.2 0-.3.3-.2.5s.2.1.3 0 .2-.2.1-.3h.1l-.3-.2zM100.6 79.6c-.3 0-.3.3-.1.5.2.1.4 0 .4-.1s-.1-.4-.3-.4zM71.9 80.4c.5.5 1.4 0 1.4-.7a.9.9 0 00-1.5-.5c-.2.3-.3.7 0 .9a1.8 1.8 0 001.4.4c.6-.1 1.1-.6.8-1.2a1.4 1.4 0 00-1.4-.8 1.1 1.1 0 00-1.1 1.3 1.5 1.5 0 002.6.1c.2-.5-.2-.9-.6-1.2a2.2 2.2 0 00-1.6-.2 1.2 1.2 0 00-.6 1.5c.3.4 1.2.7 1.6.2a.5.5 0 000-.8c-.1-.1-.3-.3-.5-.2h-.1v.5c0 .1.1 0 .1 0h.5v-.3c.3-.1.3-.2.1-.2h-.1s-.2-.1-.2 0 .2.6-.1.6a.1.1 0 00.1.1l.2.1-.2-.3h.1v-.4l.2-.3h-.4v.9c-.2.1-.3.1-.5-.1v-.3l.2-.2c.1 0 .5-.2 0-.1a.6.6 0 00-.4 1zM63.9 76.3l.3.2h.3c.2 0 .4-.2.3-.4a.7.7 0 00-.6-.3.2.2 0 00-.2.2.2.2 0 000 .3.5.5 0 00.7.1c.2-.1.3-.4 0-.5a.3.3 0 00-.5.3l.1.2h.1a.9.9 0 00.1-.5l-.3.5h.1a.1.1 0 00.1.1v-.4h-.2c-.1-.1-.3 0-.3.2z" class="o"/><path d="M136.3 25.7l.3.9.5.9h-.1a24.4 24.4 0 011 2.4l.4.9v.4l.2.5a197.2 197.2 0 019.1 33.1L159.6 26l21.9-1.9-24 61.5 1.5-.6-.3 5.6 2.3-.8 2.7-.9-.4 2.8a16 16 0 01-1.1 3.9l-.3.9-.9.2a36.9 36.9 0 01-4.6.8 238 238 0 01-14.5 1.6l-2.1.2.3-3.1h-.8l-.6-2.5-.3-1.1a286 286 0 00-12.9-38.2c-2.2-5.1-4.6-10.2-7.3-15.1a82.7 82.7 0 00-8.5-12.7l-.8-.9-1.5 1-1-1.6c-.8-1.3-.1-4.2.4-5.6l.2-.7.6-.3a64.8 64.8 0 0117.3-6.5l3.4-.5 1.4-.3 1.5 4.8-1.6.5-1.2.4 1.8-.2 1-.2.7.9a64.7 64.7 0 014.4 8.2z" class="d"/><path fill="url(#c)" fill-rule="evenodd" d="M172.2 220.6c14.5 17.4 24.4 49.2 29.1 66.6l.5 2.1c1.7-.2 11.2-2.1 16.4-4.5v-2.3c-1.9.8-10.2 2.7-14.8 3.9l12.9-4.7 23.7-60.6-18 1.5-13.3 44.4-1.6-8a243.8 243.8 0 00-8.8-31.6l-15.3 7.5 14.6-9.3-1.1-2.8-8.4 2.5 7.9-3.6a44.4 44.4 0 00-4.4-8.2c-6.1.9-9.1 1.3-19.4 7.1z" transform="translate(-61.2 -195)"/><path d="M157.5 80.8l18.9-48.4c-2.7 1.5-5.3 3-8.1 4.3l-5.1 2.5-6.8 3.5-4.3 14.2 1.3-.6 4.1 24.5z" class="f"/><path d="M170.7 89.8l-4.7-.5h-1.5l-.4-4.9-3.9-.4h-1.3L154 54.3l-6.5 3.1 6.8-15.3.5-.2 8.9-4.7 5.2-2.5c4.7-2.3 9.3-4.9 13.9-7.6l1.4-.8a47.2 47.2 0 006.3-4.4l1.9-1.6.8 2.3c1.5 4.3 3.1 10.3 1.8 14.9a7.1 7.1 0 01-2.9 4.4h-.7l-.6.2-2.1.8-7 2.6c-2.4.8-4.8 1.7-7.1 2.7l1.2 7.5 5.3-1.8 4.2-1.4 3-.8 1.7-.4 2.7 18.1-14.3 2.2v.7l18.3 3.6 9.2-7.5-6.9 30.5-2.1-2-1.5-1.2v4.3l-2.5-1.2a54.1 54.1 0 00-9.1-3.1c-4-1-8.1-1.8-12.2-2.4l-1.8-.3.7-3.4z" class="d"/><path fill="url(#d)" fill-rule="evenodd" d="M216.8 238.2l-4.6 10.4 13-6.1-8.5 5.3 4.9 29.4c16.1 1.8 24.7 2.1 37.7 13.7l5.1-22.8-5.9 4.8-20.3-3.9-.3-1.8-16.8 6.8-.2-.7 17-6.6v-.4l-17 5.9v-.6l17.1-5.3v-.9l14.3-2.3-2.2-14.5c-2.3.4-14.2 4.6-14.2 4.6l-1.2-7.5-6.6 1.9 6.5-2.7-.3-1.4-9.2 2.6 9.1-3.7 1.3-.5c5.5-2.3 17.7-6.6 17-6.4s5.6-2.9.6-17.4a44.7 44.7 0 01-7.9 5.4c-16 9.2-12 6.2-28.1 14.8zm16.9 46.9c7.6 1.4 15.2 2.8 21.3 5.4v2a85.8 85.8 0 00-21.8-5.7l.4-1.7zm-6.7-6.5s21.7 4 25.8 8.8l-.9.8a78.5 78.5 0 00-24.6-5.6l-.3-4z" transform="translate(-61.2 -195)"/><path d="M165.8 83.6c4.1 1.1 23.3 6.5 25.3 9.2l.5-.4c-4.1-4.8-25.8-8.8-25.8-8.8zM198.8 92.8l4.4-19.7-5.9 4.8-6.5-1.2.5 3h.1l.6 5.8 1.8.9-1 2.4 6 3.9zm-9.4-24.4l1.4-.3-2.2-14.5c-.9.2-3.4.9-6 1.8l.3 2 4.4-1.6 2.1 12.6zm0-27.4l1.6-.6a4.9 4.9 0 001.6-1.7h-.1l-3.1 2.3zm3.4-2.7a5.9 5.9 0 00.6-1.6l-1.1.9.5.7z" class="f"/><path d="M161.5 81.4s18.1.1 25.4 4.9a83.2 83.2 0 0110.5 7.7l.3-2-4.9-3.1.9-2.1-.6-.5c-.7-.2-1.9.4-2.9-1.2s-1.6-5.3-3.7-4.7-4.2 1.3-5.3 0-2-1.7-3.1-1.2a8.1 8.1 0 01-5.3-.5 1.8 1.8 0 00-2.5.1 2 2 0 01-1.9.5c-.7-.2-.9-1.1-1.5-.5a3.6 3.6 0 01-3.2 1c-1.6-.3-3-.2-2.2 1.6z" class="r"/><path d="M211.3 37.3l23.7-8.6 4 6.4-.2.5a43.6 43.6 0 00-3.8 15.1 89.9 89.9 0 001 19.4c.9 7.1 2.2 14 3 21.1l.2 2 1.1 5-14.9 3.4-1.7-3.8-.8.2-.9-2-3.2-7.4-4.3-9.2c-1.5-3-2.2-5-3.4-7.4l1.3 9.3.2 1.4-2.5 1.8 3 1.1 4.4 11.9-3.8-1.9 1.2 6.2-21.1-13.9.9-2.3-1.8-.9-.6-5.8h-.1l-4-23.9-4.4 1.6-.4-3-.8-6.1-.2-1.5 11-8.1.9.2-1.1-1.3 1.8-1.5 3.7-2.8 2.2-1.6 1.7-1.2.8-.4a10.6 10.6 0 013.9 1.3l.3.2 1.5-.8 2.2 7.4" class="d"/><path fill="url(#e)" fill-rule="evenodd" d="M297.7 286.5l-12.2 3.6c-4.2-10.2-17-36.7-17.1-37l-1.3-2.7.6 2.9c1.1 5.3 3.2 21.2 3.5 23.3l-2.1 1.4-13.5-5.9-1.5-9 14.5-3.7-14.6 3-2.7-15.8-4.3 1.6-.8-6.2 22.4-13.4 6.7 31.2v-26.5c2.1-.8 16.5-6.3 22.4-7.9v4.2c-8.1 18.1-2.2 36.5 0 56.9z" transform="translate(-61.2 -195)"/><path d="M236.5 91.5l-3.7 1.1c-5.4-12-15.7-38.4-5.3-49.7h-.1l.4-.4h-.1l1.2-.9.5-.5 1-.8a37.6 37.6 0 015-3.1c-6.4 17.3-.9 34.8 1.1 54.2z" class="f"/><path d="M228.8 40.3h-.1l.4-.3h-.1l1.2-1 .5-.4 1-.8a34 34 0 015.2-3.1l1.7-.9 5.3-2a83.5 83.5 0 0114.8-3.4l5.4-.7 2.9-.2h.9l.5.8a5.4 5.4 0 01.7 1.3l.8 2.1 2.4 5.4a23.6 23.6 0 003.5 5.7l1.7 1.8-2.3 1-3 1.2c-4.1 1.7-8.3 3.3-12.5 4.7l-1.4.5-3.4-7.2-.4.2-2.8 1.4a36.9 36.9 0 00-7.2 5h-.1l-.7.7c-2.1 2.9-1.4 7.9-.6 11.1a39.2 39.2 0 002.9 7.4c.4.8 1.8 3.1 2.6 3.4a35.3 35.3 0 008.5 1.5 55.3 55.3 0 009.1-.1l3.8-.6-1.6-1.8a17.1 17.1 0 00-7.4 1.1l-1.1.3-.7-.8a4.8 4.8 0 00-1.1-.9l-1.4-.8-.6.2a18.3 18.3 0 00-2.5.6l-1.2.3-.7-1c-2.2-3.5-1.7-7.9-.4-11.5l1.1-2.4.8-.3 3.8-.7 5.4-.8 5.7-.7a28.1 28.1 0 014.1-.1 5.8 5.8 0 014.1 2.5 21.3 21.3 0 011.6 2.5l2.3 3.9a53 53 0 006.8 8.8 30 30 0 009.2 6.6l3.2 1.3-3 1.8-6.3 3.6-7.7 4.3-2.8 1.4-1.8.8-1.5.3-.5-1.4-.5-1.1a15.1 15.1 0 00-1.6-3.1 20.3 20.3 0 00-1.8-2.3c-3.5-.5-14.1 1.5-17.6 2s-7.7 1.4-11.5 2.2l-6.5 1.7-1.4.5-.7-1.4c-5.3-11.8-16-38.7-5.4-50zm8.7 56.2l-1.7-5 1.7-.5a11 11 0 012.6-.6 35.8 35.8 0 014.5-.9c4.2-.8 8.5-1.4 12.7-1.9a67.5 67.5 0 0112.7-.5h.2c2.4.5 4 2.8 4.6 5l.7 2.5-2.6-.3H269l-7.4.2c-6.7.3-13.6.8-20.3 1.7l-2.4.3-1.4.2zm29.6-70.6a35.6 35.6 0 00-5.7.8l-7.4 1.6c-2.7.7-5.3 1.4-8 2.3a36.6 36.6 0 00-5.5 2.1l-1.7.9-.7-1.8c-.8-1.9 1-6.1 1.8-7.9l.3-.6.7-.2a82.7 82.7 0 0116.8-4.2 47.5 47.5 0 015.3-.5l3.3-.3 1.7-.2.9 7.9z" class="d"/><path fill="url(#f)" fill-rule="evenodd" d="M292 235.7l4.2 3.3 8.3 6.1c-7 6.3 1.3 24.5 4.8 25.6 9.1 2.8 25.7 1.7 24.1-.8a34.9 34.9 0 00-3-3.5 20.6 20.6 0 00-8.8 1 4.4 4.4 0 00-1.5-1.2 30.9 30.9 0 017.1-1.2 19.8 19.8 0 013.5.3 20.8 20.8 0 016 1.8 19.3 19.3 0 00-7.3-2.7l-2.3-.2a39.7 39.7 0 00-10.2 1.2l-2.6.6c-2.1-3.3-1-7.6-.2-9.9l.8-1.7c2.8-.7 15.7-2.6 18.2-2.2a4 4 0 013.1 1.7c3.3 4.3 3.1 9.8 9 15.6 3.6 3.5 7 5 11.5 6.8-6.5 3.8-16.9 9.6-18.1 9.9-.9-2.4-2.7-5.6-4-6.7s8.3-1.6 8-1.7c-5.6-.8-39.4 4.8-45.6 6.8-4.8-10.7-16.2-38.7-5-48.9zm12.5 9.4l-8-6.5.3-.3-.3.3-4-3.4.4-.3 4 3.2 1 .9-.9-.8a15.4 15.4 0 01-1.9-1.7c-.7-.5-1.3-1.2-2-1.6a27.5 27.5 0 015.8-3.7h.1c11.3-5.5 27.3-6.9 29.2-6.9s4.1 11.1 7.5 14.8c-6.8 3-15.3 5.8-15.3 5.8l-3.4-7.1c-.4-.1-7.1 2.6-12.5 7.5z" transform="translate(-61.2 -195)"/><path d="M275.1 59.1c3.2 4.3 3.1 9.7 8.9 15.4 3.6 3.5 7 5 11.5 6.8l-11.6 6.6c-.6-3.1-.3-1.5.2-4.1l-3.7-.4-1.2-.2a8.6 8.6 0 002.2-.4 18.9 18.9 0 00-2.4 0l-3.9-23.7zm-7-12.6l3.3-7.4a21 21 0 003.1 4.8l-6.4 2.6z" class="f"/><path d="M195.3 76.6l12.1 5.2.9-1.1-13-4.1zM225.4 96l11.4-3.2-.2-1.2-11.2 4.4zM199.2 39.3l4.1-2a26.4 26.4 0 003.7-2c.1 0 0-.2-.2-.2a24.7 24.7 0 00-3.6 1.9l-4 2.3zM215.5 38.1c6.7-2.3 13.4-4.3 20.2-6.4a.2.2 0 00-.2-.4 248 248 0 00-20 6.8z" class="l"/><path d="M217.4 40.3s-.3.3-.2.5 10.5-2.4 10.6-2.7l.8-1.2-11.2 3.4zm-2.1-.4l19.7-5.8v-1.3l-19.7 6.7v.4zM205.6 64.1l-12.2 2.3.1-2.2 12.2-.8-.1.7z" class="n"/><path d="M194.3 69.6l1 7 12.9 4.2s-1.1-11.6-1.5-11.9-.4-.6-2.9 0-3.4.9-5.1.7a8.2 8.2 0 00-4.4 0z" class="o"/><path d="M202 68.6a.5.5 0 00-.4.8c.1.2.3.2.5.1h.3l.3-.2c.3-.1.3-.4 0-.6a1.6 1.6 0 00-1.2-.1c-.2.1-.6.4-.4.7s.6.2.9.2a.7.7 0 00.8-.5c.2-.9-1.4-.7-1.7-.4s-.2.6.1.8.7.1 1-.1 0-.3-.1-.3-.8.1-.7-.1v.2h.7-.5v.2h.8v-.5l-.2-.2V69.5c.3-.1.2-.6-.1-.7zM203.9 68.6l.4.2c.2.1.3-.3.1-.5h-.1c-.3-.1-.5.3-.2.4a.2.2 0 00.3 0h-.1l.2.1c.1 0 .3-.2.2-.4l-.5-.2c-.1.1-.3.2-.3.4a.2.2 0 00.2.2c.2 0 .3 0 .4-.2s0-.2-.1-.2h-.3l.2.3.2-.4h-.2l-.2.4h.2l-.2-.2h-.1a.1.1 0 00-.1.1zM199.2 68.6l.2.3h.3l.1-.1a.2.2 0 00-.1-.3h-.3c-.1 0-.1.2 0 .2s.3.1.3-.1-.2-.3-.3-.2 0 .4.2.3h.1c.1 0 0-.1 0-.1a.1.1 0 01-.1-.1v.3l-.2.3h.3l-.2-.3c0 .1-.1.2 0 .2h-.3zM206.1 67.5a.1.1 0 00-.1-.1h-.1c-.1 0-.2.1-.1.2h.3c.1 0 .1-.1 0-.1zM197 86.2l14.1 7.3.6 3.4-15-9.9.3-.8zM195 81.1l.2 2 17.9 9.3-1.9-4.9-16.2-6.4z" class="o"/><path d="M195 81.1l15.1 7 3 4.3-1.9-4.9-16.2-6.4zM197 86.2l13.1 7.9 1.6 2.8-.6-3.4-14.1-7.3z" class="l"/><path d="M207 55.2l18 38.3 7.3-2-1.4-3.4a5.1 5.1 0 01-3-1.5c-.6-.9-3.4-1.1-3.4-3s-2.5-2.6-3.4-3.4-14.1-25-14.1-25z" class="o"/><path fill="#f68b34" d="M225.4 96l11.4-3.2.9 3.7-11 2.5-1.3-3z"/><path d="M227.6 85.2h-.2a.3.3 0 00-.3.3c.1.3.5.4.8.5l.3-.3a.8.8 0 00-1.2-.9c-.2.1-.3.4-.1.5s.1.4.3.5a.9.9 0 00.7.1c.4 0 .9-.1.8-.6s-1.7-1.1-1.8-.2 1.2 1.3 1.8.7.2-.7-.2-1a.6.6 0 00-.9 0l.2.1c.1 0 .6.3.5.6s-.7.1-.9-.1-.1-.3.1-.3h.3c.1.1.3.2.1.2s-.4 0-.4-.2l-.1.3a.3.3 0 01.1.2l.3-.5h-.5l.3.3.1-.3zM226 83.5a.2.2 0 00-.3.1.2.2 0 00.1.4c.1.1.3 0 .4 0l.2-.2a.2.2 0 000-.3.7.7 0 00-.9-.1c-.3.3.2.8.5.6s.4-.2.3-.4-.4-.3-.5-.1 0 .4.2.3h.2v-.2h-.3c.1.1.2 0 .1-.1z" class="o"/><path d="M234.5 90.8l-9.5 2.7-.4-1.1 9.9-1.6z" class="l"/><path d="M201.3 68a1 1 0 00-.4.5c-.1.2.1.5.3.6h1.3a.7.7 0 00.4-1 1.3 1.3 0 00-1.4-.5 1.1 1.1 0 00-1 .6 1 1 0 00.3 1.3 1.3 1.3 0 001.2.2 1.6 1.6 0 001.1-.7.8.8 0 00-.6-1.2.7.7 0 00-1 .6l.3.4c.1.1.2.2.1 0l.2.2-.2-.3v-.5l-.1.1h-.4l.2.2c.1.1-.1-.1 0 .1s-.1.3-.2.3h.8a3.5 3.5 0 01-.5-.8h-.1l.2-.2h-.6l.4.6a.8.8 0 00.1-.4.4.4 0 00-.5-.4zM199.1 68.5a.4.4 0 00.1.3.2.2 0 00.4.1c.2-.1.2-.3.2-.5s-.7-.3-1-.3-.3.2-.3.4.2.5.5.6a.8.8 0 00.7-.3.4.4 0 00-.2-.5c-.2-.2-.4-.1-.5.1s0 .3.1.5a4.3 4.3 0 00-.1-.5h.3c-.1-.1.1.2 0 .1l-.2.5h.4l-.4-.4h.1a.1.1 0 00-.1.1zM196.2 68.7a.3.3 0 100-.6c-.3 0-.3.6 0 .6zM205.8 67.7l.2.1v-.5h-.1a.2.2 0 00-.2.2c-.1.1 0 .2.1.3h.2a.3.3 0 000-.5h-.2a.1.1 0 100 .3z" class="o"/><path d="M275.7 36.2a.4.4 0 00.2.5h-.1a.2.2 0 00.4.1c.3-.3 0-.7-.2-.8a.4.4 0 00-.6.3 1.4 1.4 0 00.2.6.6.6 0 00.8 0 .7.7 0 00-.7-1.1.4.4 0 00-.1.6h.2c.1 0 0-.1 0-.1.1-.2.2-.2.3-.1s.1.1.1 0h-.1l-.4.4h.2a.6.6 0 00-.1-.4h.2c0-.2-.2-.2-.3-.1zM274.3 35.2a.4.4 0 00.2.5.3.3 0 00.3-.3c.1-.2-.1-.4-.2-.5s-.4 0-.5.2.1.5.4.5.2 0 .2-.1l-.1-.3c-.1-.1.1.1 0 .2h-.3a.4.4 0 00.1-.3h-.1z" class="h"/><path d="M317.1 93.6l1.2.7 1.1.6-1.2 6-1.9-.8c-5-2-10.1-3.9-15.2-5.7l-8-2.6a29 29 0 00-5.7-1.2l-1.4-.2c-1.1-6.2-1.4-3.7-.5-8.2l-3.7-.4h-1.3l-5.9-35.3-7.2 3.4 7.6-17.2.5-.3 2.8-1.4-1.2-1.1-1.4-1.2-3.3 1.9-1 .5-3.2-2.5 1.5-1.4 3.8-3.2 5.5-4.4 6-4.6 4-3 2.1-1.5.6 2.6c.2 1.3.4 4.4-.2 5.6l9.8-5.8 7.2-4.2 2.3-1.4.2 2.7a12.1 12.1 0 01.1 1.9v1.7a65.1 65.1 0 006.8-4.9l2.5-2.2.3 3.4c.2 3.5.4 7 .3 10.5a50.7 50.7 0 01-.4 6.8c-.2 1.5-.7 5.2-2.1 6.1h-.5a279 279 0 00-12.1 3.7l-7.2 2.6-.3.2 1.6 9.5 6.4-2.2 4.8-1.7 2.8-1.1 2.1-1.3 3.9 21.8-17 2.6.2 1.4 22 4.3 10.3-8.4-7.8 34.7-2.2-1.9c-6-5.4-12.3-9.6-20.1-12l-1.7-.5 6.1 2.6c2.2 1.1 4.6 2.2 6.7 3.5l1.4.9-.8 1.5z" class="d"/><path fill="url(#g)" fill-rule="evenodd" d="M337.5 228.9l-5.5 12.4 15.5-7.3-10.1 6.2 5.8 34.9c19.1 2.1 29.3 2.5 44.7 16.2l6-27-7 5.7-24-4.6-.2-1.3-20.1 7.2-.2-.9 20.1-7.7v-.5l-20.2 6.9v-.6l20.3-6.3-.2-1.1 17-2.7-3.1-17.5c-2.4 1.3-35 12.1-35 12.1l18.4-7.9-1.1-7.3-7.9 2.2 7.7-3.2-.3-1.7-11.1 3.2 10.7-4.5 1.6-.6c6.5-2.7 18.1-6.1 19.4-6.5s2.7-5.2 1.5-21.8a55.5 55.5 0 01-9.4 6.5c-18.9 10.9-14.2 7.3-33.3 17.5zm10.7 50c4.5.5 11.5 1.2 28.6 8.8 0 0-15.1-9.2-28.5-9.7v.9zm-.1 1.5a89.3 89.3 0 0130.5 10.4l-.5 2.7s-22.6-9.1-29.4-9.7l-.6-3.4z" transform="translate(-61.2 -195)"/><path d="M33.8 56.7l-.8-.4c2.6-3.8 13.1-16.5 15.3-18.9.5 1.1 1.2 3.7 1 4.5s-9.7 9.5-15.5 14.8zm7.9-1.1l-1.4-.8 26.2-24.9.9 3.9-25.7 21.8zM279.4 29.6l-1.1-1 31-18.6a26.4 26.4 0 010 4l-29.9 15.6zM271.5 29l-.6-.6c3.3-3.1 16.4-13.1 19.1-15a13.5 13.5 0 010 4.5A259 259 0 01271.5 29zM129.1 15c-6.9 2.2-18.5 7.4-21.2 9.3a9.1 9.1 0 01.5-4.2 58 58 0 0120.1-6.8l.6 1.7z" class="w"/><path d="M160.6 95c-1.2.3-4.4 1.1-18.9 2.4v-.8a190.5 190.5 0 0019.8-5.1 25.9 25.9 0 01-1 3.5z" class="x"/><path d="M141.8 96.8v-.2a190.5 190.5 0 0019.8-5.1 6.4 6.4 0 00-.2.9c-2.8 1.2-19.6 4.4-19.6 4.4z" class="f"/><path d="M267 24.2a104 104 0 00-27.3 7c-.3-.8.3-3.5 1.8-6.5 14.1-4.9 21.5-4.5 25-4.9l.5 4.4zM197.4 38.3l-1-1.2c1.3-1 6-4.7 7.4-5.5a7.9 7.9 0 012.3.9l-8.7 5.8z" class="w"/><path d="M238.6 94.6l-.6-2c2.3-.7 20.9-4.5 31.9-3.8 1.8.4 2.9 2.6 3.2 3.7-2.8-.4-19.1-.1-34.5 2.1z" class="f"/><path d="M238.6 94.6l-.6-1.9c5.3-1.2 20.7-4 30.3-3.4 1.3.2 2.6 1.8 3.4 3.1a230.7 230.7 0 00-33.1 2.2z" class="x"/><path d="M120.6 78.2s2.9 7 2.9 8.1c4.5 2.9 9.3 6.5 9.7 7.1s1.5-3.6 1.5-3.6.3-1.2-1.3-.7a2.4 2.4 0 01-3.1-1.9c-.1-.9-1.3-2.3-2.3-1.8a3.4 3.4 0 01-4.5-1.8c-1.1-2.7-1.8-4.7-2.9-5.4z" class="r"/><path d="M127 84.7a.7.7 0 00.5.9.7.7 0 00.9-.9.9.9 0 00-.7-.5.8.8 0 00-.9.3.5.5 0 000 .5.5.5 0 00.1.3.8.8 0 00.7.3.3.3 0 00.3-.3.3.3 0 000-.4h-.4a.4.4 0 01-.1.3h.1l-.2.1h.4l-.1-.2v-.2h-.1a.3.3 0 00-.5-.2zM132.3 85.9h.1c.1 0 .3 0 .3-.2v-.2c-.1-.3-.5 0-.4.2l.2-.3c-.1-.3-.6 0-.4.2a.2.2 0 00.3 0z" class="o"/><path d="M131.5 86.1a.8.8 0 10-.1-1.1.6.6 0 000 .8 1.5 1.5 0 001.4.4c.6-.1 1.1-.6.8-1.2a1.6 1.6 0 00-1.4-.8 1.1 1.1 0 00-1.1 1.3c.3 1 2.2 1.2 2.6.2s-.2-1-.6-1.3a2 2 0 00-1.5-.1.9.9 0 00-.6 1.4 1 1 0 001.5.2.5.5 0 000-.8l-.5-.2h-.1v.6h.4l.1.1h.1c.1.1.1 0 0 0v-.3c.3-.1.3-.2.1-.2h-.3c.2.4.2.6-.1.7h.3l-.1-.3v-.3h-.1l.2-.2h-.3v.8c-.3.1-.4.1-.6-.1v-.3l.2-.2c0-.1.5-.2 0-.1a.6.6 0 00-.4 1z" class="o"/><path d="M123.5 86.3s9 6.2 9.7 7.1l.5-.8s-3.6-2.4-10.2-6.3z" class="f"/><path d="M129.1 20.1l-15 5.6.7.9 14.3-5.8v-.7zM117.5 26.1a2.6 2.6 0 00.9.4l10.9-4.3s0-.6-.2-.6l-11.6 4.5zM298.2 24.2l17.7-8.5 1.1 10.7.3-12.7-19.1 10.1v.4z" class="n"/><path d="M71 35.5c8.1-4.9 16-8.9 21.8 1 0 0-6.5-9.6-21.8-1zM245.7 34.1s14.5-3.6 20.2-4.2a34 34 0 012.6 5.2l-2.7-3.8s-1.7-.6-20.1 2.8z" class="y"/><path d="M173.2 36.8l16.9-9.9 2 10.5-.9-12.7-18.1 11.7.1.4zM177.5 26.8l-15.8 1.6.4 1.1 15.3-2 .1-.7z" class="n"/><path d="M229.6 68.4a95.2 95.2 0 007 18.9c-.2.1 29-5 39-5.3 0 0-18-.4-19.8-.7s-.3-.3-3.1-.2a14 14 0 01-6-1.4c-.8-.3 0-.8-2.8-1s-3.2.2-5.1-.3-2.4 2.4-2.9 1.5l-6.3-11.5z" class="o"/><path d="M241.7 77.8h-.2a.1.1 0 01.1.1c-.1-.2-.4 0-.3.2l.5.2c.2 0 .3-.2.2-.4a1 1 0 00-.7-.2c-.2 0-.3.2-.2.4h.2a.1.1 0 01-.1-.1l.3.3a.4.4 0 00.5 0c.2 0 .2-.3.1-.4s-.4-.2-.6-.1v.2a.1.1 0 00.1.1v.2a.8.8 0 00.1-.4h-.3l-.2.3h.5l-.2-.4h-.1a.3.3 0 00.1.2h.1s.1-.1 0-.1zM235.1 74.3c-.1.4.5.6.7.5s.2-.3.1-.5-.4-.1-.6-.1-.1.1-.1.2a.6.6 0 00.1.4h.4c.3-.1.1-.5 0-.6s-.7-.2-.7.1.2.4.4.2a.1.1 0 00-.1-.1l.2.1h.1l-.1-.2v.2h.3c.1.1-.1.1-.2.1s-.3-.1-.3-.3zM236.8 75.1c-.1.3.5.4.4.1s-.2-.2-.4-.2a.3.3 0 000 .4h.2c-.1 0-.1-.1-.2 0zM254.9 81.1h-.1a.5.5 0 00.7-.3.5.5 0 000-.5l-.4-.2c0-.1-.1-.1 0 0h-.6a.3.3 0 00-.3.3.8.8 0 00.2.4h.1v-.2l.6-.4h-.2l-.6-.2a.6.6 0 00-.5.6.5.5 0 00.3.5.6.6 0 00.8-.1zM257.5 81.1c.1.3.3.3.5.2s.2-.2.1-.3h-.3l-.2.1.1.3h.2a.4.4 0 01-.1-.3h-.1c-.1 0-.3.1-.2.2z" class="o"/><path d="M236.6 87.3l.3.8s21.7-4.5 38.1-6.1c-.1 0-14.5.5-38.4 5.3z" class="l"/><path d="M238.1 76.8a1.1 1.1 0 00-1.1-.4.8.8 0 00-.8.7c-.1.5.3.8.7 1.1a3.7 3.7 0 001.8.4 1.2 1.2 0 001.1-1.1c0-.6-.5-.9-1-1a3.8 3.8 0 00-1.8-.3 1.3 1.3 0 00-.8 1.2c.1.3.5.5.7.3h.1a.4.4 0 00.1-.3h.3l.7.2h.3c.2 0 .1.1.1 0s-.1-.1 0-.1l-.1-.1c-.1 0-.3.1-.4 0l-.7-.2c-.2 0-.3 0-.2-.2s.7-.1.9-.2z" class="o"/><path d="M136.3 72.8l5.1 16.4 12.3-4.1 3.1-8.6s-2.8 3.3-3.7 4.7-.9.2-3.2.4-1.8 2-3.6 1.4-.7-2.8-3.5-2.6-6.5-7.6-6.5-7.6z" class="r"/><path d="M141.4 89.2s12.1-4.9 12.5-4.9l-.3 1.4-12.2 3.5z" class="f"/><path d="M145.2 79.3c-.3.4.1.8.5.9s1.1-.3.9-.8-.5-.5-.7-.6a.9.9 0 00-.9.3.9.9 0 00-.1.5v.3a.6.6 0 00.7.3l.4-.2-.1-.3c-.1 0-.1-.2-.3-.2l-.1.2h.2c.1.1.1.1.1 0l-.2-.2.1-.2c0 .1-.1 0-.1 0 0-.3-.4-.5-.5-.2zM149.7 80.7c.5.6 1.3 0 1.3-.6a.9.9 0 00-1.5-.5.6.6 0 000 .8 1.7 1.7 0 001.5.5c.5-.2 1-.7.8-1.2a1.6 1.6 0 00-1.5-.9 1 1 0 00-1 1.3c.3 1.1 2.2 1.3 2.5.2a.9.9 0 00-.6-1.2 1.6 1.6 0 00-1.5-.2 1 1 0 00-.6 1.4 1.1 1.1 0 001.6.3.6.6 0 000-.8l-.6-.3v.6h.7v-.3c.2-.1.3-.1.1-.1h-.4c.3.4.2.6 0 .7h.1l.2.1-.2-.3v-.3l.2-.3h-.4v.8c-.2.2-.4.1-.5-.1V80l.1-.3c0-.1.5-.1.1-.1a.6.6 0 00-.4 1zM176.7 77.5a.6.6 0 00.5.8c.5.1 1.1-.3.9-.8a1.2 1.2 0 00-.7-.5c-.3-.1-.8 0-.9.3a.7.7 0 00-.1.5 1 1 0 01.1.3 1.1 1.1 0 00.7.3c.2 0 .3-.1.4-.3v-.3l-.4-.2-.1.3-.2.1h.2l.2.1h.1a.3.3 0 01-.1-.2v-.2h-.1c-.1-.1 0-.1 0 0a.3.3 0 00-.5-.2zM181.2 78.9a.8.8 0 001.3-.7c0-.7-.9-.9-1.4-.5a.6.6 0 000 .9 1.8 1.8 0 001.4.4.9.9 0 00.8-1.2 1.7 1.7 0 00-1.4-.9 1.2 1.2 0 00-1.1 1.4 1.5 1.5 0 002.6.1 1.2 1.2 0 00-.7-1.2 1.9 1.9 0 00-1.5-.2 1.1 1.1 0 00-.6 1.4 1.1 1.1 0 001.6.3.6.6 0 000-.8c-.1-.1-.4-.3-.6-.2v.5h.7V78c.3-.2.3-.2.1-.2h-.3c.2.4.1.7-.1.7a.1.1 0 00.1.1l.2.1-.2-.3V78l.2-.3h-.4v.9c-.2.1-.4.1-.5-.2v-.3a.4.4 0 00.1-.3c.1 0 .6-.1.1-.1a.7.7 0 00-.4 1.1zM168.2 78.3c-.1.2.1.4.3.4a.3.3 0 00.4-.4l-.3-.3c-.1-.1-.4 0-.5.2v.2a.3.3 0 00.1.2h.5v-.2h-.2a.1.1 0 01-.1.1h.1l-.1.1h.1l.1-.1h-.1c0-.2-.2-.3-.3-.1zM190.4 83.6a.7.7 0 00.5.9c.5.1 1.2-.3 1-.9a2 2 0 00-.7-.6 1.2 1.2 0 00-1 .4.5.5 0 000 .5.5.5 0 00.1.3.8.8 0 00.7.3c.2 0 .3-.1.4-.3a.6.6 0 00-.1-.4h-.3l-.2.3h.3V84a.3.3 0 01.1-.2h-.2a.3.3 0 00-.5-.2zM188.3 81.1c-.3.5 0 .9.5 1a.7.7 0 00.9-.9 1.1 1.1 0 00-.7-.6 1 1 0 00-1 .4v.5a.5.5 0 00.1.3 1.1 1.1 0 00.7.3c.2 0 .3-.1.4-.3a.2.2 0 000-.3l-.4-.2-.1.3-.2.2h.5v-.2h-.2v-.2c-.1-.1 0-.1 0 0s-.4-.5-.5-.3z" class="o"/><path d="M283.9 79.1c18.2 1.3 26.9 2.6 41.6 13.4l3.9-15.6-5.7 10.3c-.2.2-1.8-2.1-2.5-2.4s-1.9.4-2.8-1.2-1.7-5.3-3.8-4.7-4.2 1.3-5.3 0-2-1.7-3.1-1.2a7.8 7.8 0 01-5.2-.5 1.8 1.8 0 00-2.5.1 2.2 2.2 0 01-1.9.5c-.7-.2-1-1.1-1.6-.5a4.3 4.3 0 01-5.4-.6c-1-1.1-2.9.9-3.5.8s-3-.2-2.2 1.6z" class="r"/><path d="M305.1 77.4h-.1c-.1-.2-.4 0-.3.2l.5.2c.2 0 .4-.2.2-.4s-.4-.2-.7-.2-.2.2-.1.3l.1.2h-.1l.4.3h.4a.3.3 0 00.2-.4c-.2-.2-.5-.3-.6-.1a.3.3 0 00-.1.2h.2l.1.2v-.5a.1.1 0 01-.1.1h-.2a.1.1 0 01.1.1l-.2.2.4.2-.1-.4h-.1v.2h.1c.1 0 .1-.1 0-.2zM298.5 74c-.1.4.5.6.8.4s.2-.3 0-.4-.4-.2-.6-.1a.3.3 0 00-.1.2.8.8 0 00.2.4c.1 0 .3.1.4 0a.4.4 0 00-.1-.6.4.4 0 00-.7.1c0 .2.3.4.4.2s0-.2-.1-.1h.1v.2h.1a.3.3 0 01-.1-.2l-.1.2h.3c.1.1-.1.1-.1 0a.4.4 0 01-.4-.2c0-.1-.1-.1-.1 0zM318.3 80.8h-.1a.7.7 0 00.8-.4.8.8 0 00-.1-.4l-.4-.3h-.5a.3.3 0 00-.3.3c-.1.1 0 .3.2.3h.1a.3.3 0 01-.1-.2l.6-.5h-.2a.5.5 0 00-.6-.2.6.6 0 00-.5.6.7.7 0 00.4.5.9.9 0 00.7-.1zM320.9 80.8a.5.5 0 00.6.2v-.3l-.2-.2c-.2 0-.3.1-.3.2l.2.3h.1v-.4h-.2c-.1-.1-.2.1-.2.2zM301.5 76.5c-.1-.4-.7-.5-1.1-.5a1.3 1.3 0 00-.8.8c-.1.5.3.8.8 1a2.6 2.6 0 001.7.5 1.1 1.1 0 001.1-1.1c0-.6-.5-.9-1-1.1a5 5 0 00-1.7-.2 1.1 1.1 0 00-.8 1.2c0 .3.4.5.6.3h.2v-.3c-.1-.1-.1 0 .1 0h.3l.6.2h.3c.2 0 .1.1.1 0v-.2h-.5l-.7-.2c-.1 0-.3 0-.2-.2s.7-.1 1-.3zM290 76c-.1.3.5.5.7.4s.2-.3.1-.5-.4-.1-.6-.1-.1.1-.1.2l.1.4c.1.1.3.1.4 0s.1-.5 0-.6-.7-.2-.7.2.2.3.4.2 0-.2-.1-.2l.2.1h.1l-.1-.2h.2c.1.1-.1.1-.2.1l-.3-.2c0-.1-.1-.1-.1 0zM294.8 75.9a.5.5 0 00-.7-.3c-.2 0-.5.2-.5.4a.6.6 0 00.4.7l1.1.3a.7.7 0 00.7-.7.7.7 0 00-.6-.7 2 2 0 00-1.1-.1.8.8 0 00-.5.7.3.3 0 00.4.2h.1a.1.1 0 00.1-.1h.2l.4.2h.2c.1 0 0 .1 0 0h-.9c.1-.3.5-.1.7-.2z" class="o"/><path d="M160.3 81.6c15.4-1 25.7.5 37.3 10.9l-.2 1.5c-1.7-.4-13.5-13.3-37.1-12.4zM283.9 79.1l-.2-.7c19.2.5 32.4 5 41.8 14.1 0 0-13.2-11.9-41.6-13.4z" class="f"/><path d="M311.8 49.5l3 8.3-1.6-10.3-20.7 7.6 19.3-5.6z" class="n"/><path d="M289.5 86.7c5.9 1.4 20.5 5.1 27.9 9.5v-.4a93.2 93.2 0 00-26.6-9.8l-2.7-.4-1.2-.2v.8l2.5.5z" class="f"/><path d="M246.6 23.9a145 145 0 019.5-1.9l4.7-.8 2.3-.3a21.3 21.3 0 002.5-.3c.1 0 .1-.2 0-.2a35.9 35.9 0 00-4.6.5l-4.8.8a96 96 0 00-9.6 2.2z" class="n"/><path d="M212.6 82.3l3.2-.9v.6l-3.3.8.1-.5zM212.8 85.5l3.9-2.2.3.7-4.1 2.1c.2 0-.1-.6-.1-.6zM217.5 97.5l4.5-3.4-.7-.7-4.4 3.5.6.6zM320 64.9l16.5-14.8-.2-1.1s-17.1 14.7-16.8 14.7.5 1.2.5 1.2zM316.1 43.1l17.3-10 .6.6s-17.9 11.6-17.7 11.6-.2-2.2-.2-2.2zM131.3 14.8l29.9-4.4-.3 1.5-29 5.6-.6-2.7zM266.9 18.1l14.2-7.6 1.1.2v1.2l-14.7 7.7s-.2-1.6-.4-1.6zM320.4 6.4l16.5-2.5c.4 0 .1 1.2.1 1.2l-16.6 3.2c.2-.1 0-1.9 0-1.9zM335.5 64.8l13.2-14.1-.1 2.9-13.7 14.1-.4-1.7 1-1.2zM252.4 58l14.6-9.2s1.9-1 1.6-1.1.5 1.6.4 1.3-15.2 9.3-15.3 9-1.3 0-1.3 0zM319.4 31c.3.2 16.7-6.8 16.7-6.8l-15.6 8.5-2.5.7 1.4-2.4zM179.7 24.3l12-3.6.7-.7 9.8-2.2 9.6-.4-19 3.8-12 3.6-1.1-.5zM159.6 26l8.1-2.8v.8l-6.2 2.1zM203.5 29.1l10.3-3.3 13.1-2.3-19.8 5.4-1.9.9-1.7-.7zM209.2 29.9l20-4.7 6.2-.4-26 6.4-.2-1.3z" class="d"/></svg>