<?xml version="1.0" encoding="UTF-8"?>
<svg width="238px" height="259px" viewBox="0 0 238 259" version="1.1" xmlns="http://www.w3.org/2000/svg" xmlns:xlink="http://www.w3.org/1999/xlink">
    <title>meteor</title>
    <defs>
        <path d="M171.90679,0.291440326 L171.863033,0.335300219 C171.068024,1.13259981 159.503851,12.7473967 142.416148,30.8648299 C142.148219,31.1507013 141.878443,31.4347164 141.608666,31.7243004 C135.714233,32.2125094 132.164639,34.4864864 132.201595,41.7724946 C132.002034,41.98597 131.802473,42.2013017 131.60476,42.4166334 C130.004579,44.1355744 128.374833,45.8953542 126.71737,47.6922602 L126.148252,48.3085543 L126.148252,48.3085543 C124.431661,52.9883063 119.588617,55.5889936 116.768898,58.5498045 C116.569337,58.7707051 116.367929,58.9916058 116.168368,59.2125064 C114.961765,60.5397665 113.745922,61.881877 112.518994,63.238838 C112.332367,63.4448882 112.142045,63.6527947 111.955419,63.8625575 C105.386545,64.6867581 103.451915,67.9334405 102.7553,74.124227 C102.561282,74.341415 102.367265,74.5604593 102.173248,74.7795037 C101.393483,75.6556809 100.61187,76.5355708 99.8265613,77.4210297 C99.6380873,77.6363614 99.4459177,77.8516931 99.2555959,78.0670248 C96.3601175,83.5134319 91.1937118,84.81656 89.4457076,89.2475667 C89.2128867,89.5167313 88.9800659,89.7840397 88.7398539,90.0494917 C83.4496467,92.2863426 81.1898061,94.2354658 79.6154937,100.632302 C79.3882162,100.92003 79.1535476,101.194764 78.9188789,101.469497 C52.6359912,132.304626 26.0777836,165.94278 7.17864305,195.859037 L0.546944232,194.899325 C0.546944232,194.899325 29.8417208,150.047216 74.4694137,97.6473595 C74.6966912,97.3781949 74.9276642,97.1090303 75.1567895,96.8398656 C76.6682773,92.6167654 81.834683,91.3136373 83.584535,87.0812555 C83.8321381,86.8046656 84.0723501,86.5317884 84.3291921,86.2254976 C87.315212,80.2778874 94.0965814,79.9474646 95.7337185,73.545059 C96.0681675,73.0995451 96.4229421,72.7097205 96.7777168,72.3217521 C97.1306436,71.9319275 97.487266,71.5421028 97.8438885,71.1541345 C98.1986631,70.7643099 98.5571333,70.3763415 98.9137557,69.9865169 C100.220139,65.9898862 103.769734,63.7140528 107.616821,60.6418634 C107.986378,60.2538951 108.355935,59.8659267 108.725492,59.4761021 C109.447976,58.7131596 110.176003,57.9502171 110.90403,57.1872746 C111.269891,56.8048752 111.635752,56.4224758 112.042265,56.0549268 C117.648443,53.3187291 121.523248,52.3423112 122.02215,45.7839757 C122.395402,45.4034326 122.770502,45.0266021 123.14745,44.6479154 C124.620135,43.1721506 126.102058,41.7019549 127.591372,40.2336154 C127.962777,39.8660664 128.336029,39.5003738 128.709282,39.1328249 C130.547828,33.5156374 134.099269,31.2398041 138.899814,29.3240944 C139.282305,28.9639707 139.664797,28.603847 140.047288,28.2455796 C150.374556,18.544515 161.023338,9.14602856 171.90679,0.291440326 Z" id="path-1"></path>
        <linearGradient x1="3.77961235%" y1="63.7262259%" x2="96.4976203%" y2="37.0487853%" id="linearGradient-3">
            <stop stop-color="#FF1515" stop-opacity="0.205474213" offset="0%"></stop>
            <stop stop-color="#FF6291" stop-opacity="0.140843531" offset="100%"></stop>
        </linearGradient>
        <radialGradient cx="50.0011209%" cy="50.0001033%" fx="50.0011209%" fy="50.0001033%" r="49.9896495%" id="radialGradient-4">
            <stop stop-color="#FFFFFF" stop-opacity="0.289526879" offset="0%"></stop>
            <stop stop-color="#FF0069" stop-opacity="0" offset="100%"></stop>
        </radialGradient>
        <radialGradient cx="49.9999355%" cy="50.0002212%" fx="49.9999355%" fy="50.0002212%" r="13.8647876%" gradientTransform="translate(0.499999,0.500002),scale(1.000000,0.841270),rotate(39.435981),scale(1.000000,4.474355),translate(-0.499999,-0.500002)" id="radialGradient-5">
            <stop stop-color="#FFEDED" stop-opacity="0.230496066" offset="0%"></stop>
            <stop stop-color="#BF2B68" stop-opacity="0" offset="100%"></stop>
        </radialGradient>
        <linearGradient x1="9.41168855%" y1="62.6606053%" x2="70.1314473%" y2="50%" id="linearGradient-6">
            <stop stop-color="#EFEEEE" stop-opacity="0.237680288" offset="0%"></stop>
            <stop stop-color="#EFEEEE" stop-opacity="0.237680288" offset="0%"></stop>
            <stop stop-color="#FFFFFF" stop-opacity="0.84727382" offset="0%"></stop>
            <stop stop-color="#FFFFFF" stop-opacity="0.0388481986" offset="65.1401215%"></stop>
            <stop stop-color="#FFFFFF" stop-opacity="0.0319875437" offset="100%"></stop>
        </linearGradient>
        <path d="M27.4223233,209.313295 C27.9725987,207.47676 28.1341129,205.501658 27.8880854,203.588602 C27.8486459,203.280444 27.7941818,202.964014 27.6439359,202.701357 C27.3509566,202.190519 26.7556075,201.991975 26.2090883,202.000247 C24.8681443,202.020929 23.6342505,203.108786 23.1985376,204.502733 C22.7609467,205.896679 23.0727067,207.507783 23.8784,208.68664 C24.3235032,209.331908 24.9470234,209.879973 25.6757156,209.98545 C26.4044079,210.088859 27.2251257,209.633861 27.412933,208.850025 C27.2777117,208.637004 26.9246341,208.68664 26.8419989,208.928615 L27.4223233,209.313295 Z" id="path-7"></path>
        <filter x="-140.0%" y="-62.5%" width="380.0%" height="275.0%" filterUnits="objectBoundingBox" id="filter-8">
            <feOffset dx="0" dy="2" in="SourceAlpha" result="shadowOffsetOuter1"></feOffset>
            <feGaussianBlur stdDeviation="2" in="shadowOffsetOuter1" result="shadowBlurOuter1"></feGaussianBlur>
            <feColorMatrix values="0 0 0 0 1   0 0 0 0 1   0 0 0 0 1  0 0 0 0.236341783 0" type="matrix" in="shadowBlurOuter1"></feColorMatrix>
        </filter>
        <polygon id="path-9" points="1 0.099797147 2.369 0.099797147 2.369 1.87757492 1 1.87757492"></polygon>
    </defs>
    <g id="Page-1" stroke="none" stroke-width="1" fill="none" fill-rule="evenodd">
        <g id="SR-Homepage" transform="translate(-1105.000000, -195.000000)">
            <g id="meteor" transform="translate(1224.000000, 324.500000) rotate(10.000000) translate(-1224.000000, -324.500000) translate(1124.000000, 211.000000)">
                <g id="Group-3" transform="translate(28.000000, 0.000000)">
                    <mask id="mask-2" fill="white">
                        <use xlink:href="#path-1"></use>
                    </mask>
                    <g id="Clip-2"></g>
                    <path d="M0.546944232,194.899325 C0.546944232,194.899325 29.8417208,150.047216 74.4694137,97.6473595 C74.6966912,97.3781949 74.9276642,97.1090303 75.1567895,96.8398656 C76.6682773,92.6167654 81.834683,91.3136373 83.584535,87.0812555 C83.8321381,86.8046656 84.0723501,86.5317884 84.3291921,86.2254976 C87.315212,80.2778874 94.0965814,79.9474646 95.7337185,73.545059 C96.0681675,73.0995451 96.4229421,72.7097205 96.7777168,72.3217521 C97.1306436,71.9319275 97.487266,71.5421028 97.8438885,71.1541345 C98.1986631,70.7643099 98.5571333,70.3763415 98.9137557,69.9865169 C100.220139,65.9898862 103.769734,63.7140528 107.616821,60.6418634 C107.986378,60.2538951 108.355935,59.8659267 108.725492,59.4761021 C109.447976,58.7131596 110.176003,57.9502171 110.90403,57.1872746 C111.269891,56.8048752 111.635752,56.4224758 112.042265,56.0549268 C117.648443,53.3187291 121.523248,52.3423112 122.02215,45.7839757 C122.395402,45.4034326 122.770502,45.0266021 123.14745,44.6479154 C124.620135,43.1721506 126.102058,41.7019549 127.591372,40.2336154 C127.962777,39.8660664 128.336029,39.5003738 128.709282,39.1328249 C130.547828,33.5156374 134.099269,31.2398041 138.899814,29.3240944 C139.282305,28.9639707 139.664797,28.603847 140.047288,28.2455796 C150.374556,18.544515 161.023338,9.14602856 171.90679,0.291440326 C171.90679,0.291440326 160.129011,12.0845638 142.416148,30.8648299 C142.148219,31.1507013 141.878443,31.4347164 141.608666,31.7243004 C135.714233,32.2125094 132.164639,34.4864864 132.201595,41.7724946 C132.002034,41.98597 131.802473,42.2013017 131.60476,42.4166334 C130.004579,44.1355744 128.374833,45.8953542 126.71737,47.6922602 C126.527048,47.8983103 126.338574,48.1025042 126.148252,48.3085543 C124.431661,52.9883063 119.588617,55.5889936 116.768898,58.5498045 C116.569337,58.7707051 116.367929,58.9916058 116.168368,59.2125064 C114.961765,60.5397665 113.745922,61.881877 112.518994,63.238838 C112.332367,63.4448882 112.142045,63.6527947 111.955419,63.8625575 C105.386545,64.6867581 103.451915,67.9334405 102.7553,74.124227 C102.561282,74.341415 102.367265,74.5604593 102.173248,74.7795037 C101.393483,75.6556809 100.61187,76.5355708 99.8265613,77.4210297 C99.6380873,77.6363614 99.4459177,77.8516931 99.2555959,78.0670248 C96.3601175,83.5134319 91.1937118,84.81656 89.4457076,89.2475667 C89.2128867,89.5167313 88.9800659,89.7840397 88.7398539,90.0494917 C83.4496467,92.2863426 81.1898061,94.2354658 79.6154937,100.632302 C79.3882162,100.92003 79.1535476,101.194764 78.9188789,101.469497 C52.6359912,132.304626 26.0777836,165.94278 7.17864305,195.859037 L0.546944232,194.899325 Z" id="Fill-1" fill="url(#linearGradient-3)" mask="url(#mask-2)"></path>
                </g>
                <path d="M45.5600733,191.970762 C47.5100445,199.736881 42.7951333,207.610915 35.0287407,209.560817 C27.262348,211.508859 19.3880371,206.794114 17.4399267,199.027995 C15.4899555,191.263737 20.2048667,183.389703 27.9712593,181.439801 C35.7357913,179.489899 43.6138235,184.206504 45.5600733,191.970762" id="Fill-4" fill="url(#radialGradient-4)"></path>
                <path d="M1.97692102,226.010693 C-5.91496033,219.90236 10.5282192,187.187277 38.7071401,152.940559 C66.8884078,118.69384 96.1303743,95.8809015 104.022256,101.989234 C111.916484,108.097567 95.4709575,140.812651 67.2920365,175.059369 C39.1107689,209.308363 9.86880236,232.119026 1.97692102,226.010693 Z" id="Fill-7" fill="url(#radialGradient-5)"></path>
                <path d="M34.8940406,194.647805 C35.364091,196.522724 34.2262925,198.422531 32.3516208,198.894027 C30.4769491,199.364139 28.5773924,198.22619 28.1059594,196.351271 C27.635909,194.476353 28.7737075,192.575163 30.6483792,192.106433 C32.5216684,191.634938 34.4226076,192.774269 34.8940406,194.647805" id="Fill-10" fill="#FFFFFF"></path>
                <path d="M103.629546,98.6683459 C103.873202,98.386919 104.118719,98.1073435 104.364235,97.8240651 C107.511309,94.1377425 109.402901,91.1475812 112.267259,88.5925208 C112.585315,88.3092424 112.91639,88.029667 113.262345,87.755646 C116.3034,83.3639045 122.47851,80.447803 124.978313,75.115503 C125.318688,74.6452238 125.681383,74.2434498 126.051517,73.8546363 C126.403052,73.4806347 126.756447,73.1066331 127.109842,72.734483 C127.461376,72.3623329 127.814771,71.9901828 128.168166,71.6198842 C128.642459,66.5264268 133.515588,63.9324851 137.747026,61.7810502 C138.10228,61.423712 138.459395,61.0663739 138.81465,60.7127387 C139.52702,60.0017654 140.237529,59.294495 140.948039,58.5927792 C141.305154,58.2409955 141.660408,57.8910633 142.019383,57.5392796 C143.259985,53.2438158 152.691907,57.7651618 150.733355,50 C152.037196,55.1767745 144.885601,54.2139981 142.951229,58.2521045 C142.713153,58.5242739 142.473216,58.8019979 142.2277,59.0834248 C141.249354,60.2091326 140.20219,61.4126031 139.095506,62.6882818 C138.868589,62.9511938 138.637953,63.2159573 138.379416,63.4603544 C133.515588,63.9324851 130.268075,67.4947577 129.875621,73.38806 C129.689624,73.6083877 129.498047,73.8305669 129.310189,74.0508945 C128.928895,74.4952529 128.543881,74.9433142 128.157006,75.3950785 C127.90033,75.6968718 127.641794,76.0005167 127.379538,76.3060131 C124.105986,81.4161338 120.858473,84.9784064 116.539617,89.0757605 C116.322,89.340524 116.117403,89.5849211 115.909086,89.8311697 C109.808375,90.4903012 110.14131,97.2852806 106.947737,100.525393 C106.73384,100.795711 106.514364,101.060475 106.294887,101.323387 C80.1697098,132.761739 49.2792827,171.683825 32.5748676,199 C32.5748676,199 29.6937698,199.15813 29,194.066525 C29,194.066525 62.4292899,146.09434 103.629546,98.6683459 Z" id="Fill-12" fill="url(#linearGradient-6)"></path>
                <path d="M43.4222743,183.312853 C43.9725963,181.478497 44.1341243,179.503514 43.8880759,177.588504 C43.8505113,177.280365 43.7960425,176.966022 43.6439057,176.701312 C43.3527797,176.192573 42.7555019,175.991973 42.2089363,176.000245 C40.8697567,176.020925 39.6338799,177.108717 39.19813,178.50258 C38.7605019,179.89851 39.0741667,181.509518 39.8799283,182.686236 C40.3231911,183.333534 40.9467642,183.881566 41.6755183,183.984968 C42.4061507,184.090438 43.2269382,183.6334 43.4128831,182.849611 C43.2795287,182.63867 42.926421,182.686236 42.8419005,182.928197 L43.4222743,183.312853 Z" id="Fill-15" fill="#FFFFFF"></path>
                <g id="Fill-17">
                    <use fill="black" fill-opacity="1" filter="url(#filter-8)" xlink:href="#path-7"></use>
                    <use fill="#FFFFFF" fill-rule="evenodd" xlink:href="#path-7"></use>
                </g>
                <path d="M83.5370908,125.571142 C83.9772835,124.423825 84.1070021,123.188676 83.9113609,121.991953 C83.8794629,121.799818 83.8369322,121.602194 83.7157197,121.437508 C83.4818009,121.119114 83.0033307,120.994684 82.5673911,121.000173 C81.4956177,121.012982 80.5089057,121.693687 80.1580276,122.564696 C79.8092759,123.435705 80.0580804,124.443954 80.7045469,125.179554 C81.0596782,125.582121 81.5572872,125.926133 82.1420842,125.990178 C82.7247547,126.057882 83.3818538,125.770596 83.5307112,125.282025 C83.422258,125.150276 83.1394289,125.179554 83.0735063,125.331431 L83.5370908,125.571142 Z" id="Fill-19" fill="#FFFFFF"></path>
                <path d="M36.917976,187.223025 C37.15517,186.092901 36.8676621,184.823686 36.1884248,184 C35.2648059,184.317304 34.38611,185.073617 34.0878207,186.177661 C33.7895313,187.281704 34.2729038,188.698705 35.2073043,188.966022 C36.1417048,189.23334 37.15517,187.866325 36.6700005,186.864428 L36.917976,187.223025 Z" id="Fill-21" fill="#FFFFFF"></path>
                <path d="M50.8285316,182.420418 C50.7485316,182.066418 50.6185316,181.726418 50.4385316,181.410418 C50.4145316,181.372418 50.3885316,181.332418 50.3505316,181.314418 C50.3045316,181.296418 50.2545316,181.310418 50.2125316,181.330418 C49.8745316,181.496418 49.7985316,182.080418 49.4245316,182.074418 C49.3565316,182.074418 49.2825316,182.052418 49.2245316,182.088418 C49.1285316,182.150418 49.1785316,182.298418 49.2505316,182.384418 C49.6285316,182.836418 50.4525316,182.784418 50.7685316,182.286418 C50.7745316,182.340418 50.7825316,182.396418 50.7865316,182.450418 L50.8285316,182.420418 Z" id="Fill-23" fill="#FFFFFF"></path>
                <path d="M37.829098,199.420761 C37.749098,199.066761 37.617098,198.724761 37.437098,198.410761 C37.415098,198.372761 37.389098,198.332761 37.349098,198.314761 C37.305098,198.296761 37.255098,198.310761 37.211098,198.330761 C36.875098,198.496761 36.797098,199.078761 36.423098,199.074761 C36.355098,199.072761 36.281098,199.050761 36.223098,199.088761 C36.129098,199.148761 36.177098,199.298761 36.249098,199.384761 C36.627098,199.836761 37.451098,199.782761 37.769098,199.286761 L37.787098,199.450761 L37.829098,199.420761 Z" id="Fill-25" fill="#FFFFFF"></path>
                <path d="M51,164.408743 C50.855982,163.644908 50.6159519,162.906305 50.2914313,162.225047 C50.2511063,162.14247 50.2069408,162.055306 50.1320514,162.018605 C50.0533215,161.979611 49.96115,162.007136 49.8862606,162.053012 C49.2775445,162.410845 49.1354467,163.67014 48.4576019,163.660965 C48.3327862,163.658671 48.2002897,163.612795 48.0965967,163.690784 C47.9237751,163.823825 48.0101859,164.144956 48.1426824,164.330754 C48.8282082,165.310206 50.3163945,165.193222 50.8905463,164.119725 C50.9020677,164.236708 50.9135892,164.355986 50.9251106,164.47297 L51,164.408743 Z" id="Fill-27" fill="#FFFFFF"></path>
                <path d="M28,197.409123 C27.8560021,196.645491 27.6160057,195.907084 27.2915304,195.226007 C27.251211,195.143452 27.2051317,195.056311 27.1321728,195.01962 C27.0534539,194.978342 26.9612953,195.008154 26.8844964,195.054017 C26.2758654,195.409462 26.1337875,196.670716 25.4560374,196.661544 C25.3331592,196.65925 25.1987612,196.611093 25.0950828,196.691355 C24.9242053,196.82436 25.010604,197.145407 25.143082,197.331155 C25.826592,198.310347 27.3164901,198.193394 27.8886416,197.117888 C27.9020814,197.237134 27.9136013,197.354087 27.9251211,197.473333 L28,197.409123 Z" id="Fill-29" fill="#FFFFFF"></path>
                <path d="M55.5677908,153.66181 C55.5356407,153.520735 55.4997082,153.369286 55.3956931,153.280076 C55.2954604,153.192942 55.1592952,153.184643 55.032586,153.176344 C54.6827171,153.151449 54.3385218,153.093359 54,153 C54.340413,153.516586 54.6808259,154.031096 55.0212389,154.547682 C55.0477154,154.5871 55.0760832,154.630668 55.0855391,154.680459 C55.1214716,154.852654 54.9418092,154.979207 54.8869649,155.145179 C54.805644,155.387911 55.0061094,155.630644 55.2065748,155.765496 C56.6287445,156.736428 55.7398885,154.427353 55.5677908,153.66181" id="Fill-31" fill="#FFFFFF"></path>
                <path d="M65.5682558,139.66181 C65.5360961,139.520735 65.4982613,139.369286 65.3942153,139.280076 C65.2939529,139.192942 65.1577473,139.186718 65.0310005,139.176344 C64.6829196,139.151449 64.3386222,139.093359 64,139 L65.01965,140.547682 C65.0480262,140.5871 65.0745106,140.630668 65.0858611,140.680459 C65.1218042,140.852654 64.9401968,140.979207 64.8853362,141.145179 C64.805883,141.387911 65.0064078,141.630644 65.2069327,141.765496 C66.6295242,142.736428 65.7385128,140.427353 65.5682558,139.66181" id="Fill-33" fill="#FFFFFF"></path>
                <path d="M66.7139731,159.075562 C66.6659731,159.577562 65.9939731,159.893562 65.5739731,159.611562 C65.1559731,159.329562 65.1939731,158.589562 65.6419731,158.353562 C66.0899731,158.117562 66.7219731,158.503562 66.7179731,159.009562 L66.7139731,159.075562 Z" id="Fill-35" fill="#FFFFFF"></path>
                <path d="M52.2662722,171.405345 C52.5682722,171.671345 52.8942722,172.089345 52.6762722,172.427345 C52.4662722,172.749345 51.9742722,172.647345 51.6162722,172.507345 C51.4622722,172.447345 51.2842722,172.359345 51.2562722,172.195345 C51.1922722,171.795345 52.0142722,171.775345 52.0362722,171.369345 C52.1382722,171.315345 52.2562722,171.493345 52.1642722,171.567345 L52.2662722,171.405345 Z" id="Fill-37" fill="#FFFFFF"></path>
                <path d="M68.2663917,144.403892 C68.5663917,144.669892 68.8943917,145.087892 68.6763917,145.425892 C68.4663917,145.749892 67.9743917,145.647892 67.6143917,145.505892 C67.4603917,145.445892 67.2823917,145.359892 67.2563917,145.195892 C67.1923917,144.795892 68.0143917,144.773892 68.0363917,144.369892 C68.1383917,144.313892 68.2563917,144.493892 68.1643917,144.565892 L68.2663917,144.403892 Z" id="Fill-39" fill="#FFFFFF"></path>
                <path d="M37.1933953,177.605862 C37.2973953,177.713711 37.3653953,177.852934 37.3873953,178 C36.9993953,177.994117 36.7073953,177.664689 36.4853953,177.352908 C36.3613953,177.17839 36.2413953,176.943084 36.3633953,176.768565 C36.4473953,176.645029 36.6133953,176.611694 36.7353953,176.527376 C36.9833953,176.356779 37.1213953,175.956759 37.4173953,176.00382 C37.5853953,176.031273 37.6913953,176.213635 37.6873953,176.38031 C37.6853953,176.546985 37.6013953,176.701895 37.5213953,176.847 C37.3433953,177.168585 37.1673953,177.49017 36.9893953,177.809794 L37.1933953,177.605862 Z" id="Fill-41" fill="#FFFFFF"></path>
                <path d="M56.1914209,143.607438 C56.2974209,143.715393 56.3654209,143.852789 56.3874209,144 C55.9994209,143.994112 55.7054209,143.66436 55.4834209,143.352273 C55.3614209,143.179546 55.2414209,142.944009 55.3634209,142.769319 C55.4474209,142.645662 55.6134209,142.612295 55.7354209,142.527894 C55.9834209,142.35713 56.1214209,141.956717 56.4174209,142.003824 C56.5854209,142.029341 56.6914209,142.211882 56.6874209,142.380683 C56.6854209,142.545559 56.6014209,142.700621 56.5214209,142.847832 C56.3434209,143.169732 56.1674209,143.48967 55.9894209,143.81157 L56.1914209,143.607438 Z" id="Fill-43" fill="#FFFFFF"></path>
                <path d="M33.3256146,181.764722 C33.3416146,181.452722 32.8276146,181.374722 32.6316146,181.620722 C32.4376146,181.864722 32.4796146,182.216722 32.5336146,182.524722 C32.9636146,182.512722 33.3716146,182.210722 33.5116146,181.800722 L33.3256146,181.764722 Z" id="Fill-45" fill="#FFFFFF"></path>
                <g id="Group-49" transform="translate(11.000000, 177.000000)">
                    <mask id="mask-10" fill="white">
                        <use xlink:href="#path-9"></use>
                    </mask>
                    <g id="Clip-48"></g>
                    <path d="M1.738,1.19857778 C1.712,1.32657778 1.538,1.40124444 1.394,1.3728 C1.252,1.34435556 1.142,1.23768889 1.072,1.12391111 C1.03,1.05635556 1,0.981688889 1,0.905244444 C1.004,0.727466667 1.206,0.576355556 1.406,0.601244444 C1.604,0.624355556 1.756,0.807466667 1.728,0.983466667 C1.702,1.16124444 1.512,1.30168889 1.312,1.29991111 L1.738,1.19857778 Z" id="Fill-47" fill="#FFFFFF" mask="url(#mask-10)"></path>
                </g>
                <path d="M46.9702493,159.333457 C47.2822493,159.307457 47.4482493,158.849457 47.2282493,158.627457 C47.0682493,158.653457 46.9022493,158.703457 46.7882493,158.819457 C46.6762493,158.935457 46.6282493,159.129457 46.7182493,159.265457 C46.8102493,159.401457 47.0502493,159.413457 47.1242493,159.269457 L46.9702493,159.333457 Z" id="Fill-50" fill="#FFFFFF"></path>
                <path d="M39.4835258,172.388467 C39.6775258,172.066467 39.7115258,171.654467 39.5735258,171.304467 L38.7495258,171.716467 C38.6175258,171.782467 38.4835258,171.852467 38.4035258,171.972467 C38.2495258,172.210467 38.4055258,172.566467 38.6715258,172.662467 C38.9395258,172.760467 39.2515258,172.630467 39.4255258,172.406467 L39.4835258,172.388467 Z" id="Fill-52" fill="#FFFFFF"></path>
                <path d="M97.4851617,113.388467 C97.6791617,113.066467 97.7111617,112.652467 97.5731617,112.304467 L96.7491617,112.716467 C96.6171617,112.782467 96.4831617,112.850467 96.4031617,112.972467 C96.2491617,113.210467 96.4051617,113.566467 96.6711617,113.662467 C96.9391617,113.760467 97.2511617,113.630467 97.4251617,113.406467 L97.4851617,113.388467 Z" id="Fill-54" fill="#FFFFFF"></path>
                <path d="M50.2187107,170.319656 C50.5107107,170.075656 50.6247107,169.641656 50.4927107,169.285656 C50.2207107,169.287656 49.9487107,169.391656 49.7487107,169.573656 C49.4787107,169.815656 49.3447107,170.251656 49.5587107,170.543656 C49.7707107,170.835656 50.3547107,170.735656 50.3667107,170.375656 L50.2187107,170.319656 Z" id="Fill-56" fill="#FFFFFF"></path>
                <path d="M48.419,173.967 C48.405,174.221 48.189,174.451 47.935,174.481 C47.789,174.241 47.641,173.999 47.495,173.759 C47.723,173.439 48.277,173.439 48.505,173.759 L48.419,173.967 Z" id="Fill-58" fill="#FFFFFF"></path>
                <path d="M48.4402084,182.028655 C48.5182084,182.110655 48.5962084,182.192655 48.6742084,182.274655 C48.4322084,182.368655 48.1782084,182.464655 47.9182084,182.448655 C47.6562084,182.432655 47.3862084,182.268655 47.3322084,182.012655 C47.2802084,181.756655 47.5542084,181.468655 47.7942084,181.570655 C48.0402084,181.666655 48.2562084,181.834655 48.4082084,182.050655 L48.4402084,182.028655 Z" id="Fill-60" fill="#FFFFFF"></path>
                <path d="M25.4382277,194.028656 C25.5162277,194.110656 25.5942277,194.192656 25.6742277,194.272656 C25.4302277,194.368656 25.1762277,194.464656 24.9162277,194.448656 C24.6542277,194.432656 24.3842277,194.268656 24.3322277,194.012656 C24.2802277,193.756656 24.5522277,193.468656 24.7942277,193.570656 C25.0402277,193.666656 25.2562277,193.834656 25.4062277,194.050656 L25.4382277,194.028656 Z" id="Fill-62" fill="#FFFFFF"></path>
                <path d="M28.4382084,193.028656 C28.5182084,193.110656 28.5962084,193.192656 28.6742084,193.272656 C28.4322084,193.368656 28.1782084,193.464656 27.9162084,193.448656 C27.6562084,193.432656 27.3862084,193.268656 27.3322084,193.012656 C27.2802084,192.756656 27.5542084,192.468656 27.7942084,192.570656 C28.0402084,192.666656 28.2562084,192.834656 28.4082084,193.050656 L28.4382084,193.028656 Z" id="Fill-64" fill="#FFFFFF"></path>
                <path d="M29.5146885,178.888196 C29.4686885,179.100196 29.2886885,179.276196 29.0746885,179.316196 C28.8606885,179.358196 28.6286885,179.260196 28.5066885,179.080196 C28.4246885,178.956196 28.4166885,178.752196 28.5526885,178.692196 C28.6086885,178.666196 28.6746885,178.674196 28.7346885,178.680196 C29.0066885,178.718196 29.2806885,178.754196 29.5526885,178.790196 L29.5106885,178.928196 L29.5146885,178.888196 Z" id="Fill-66" fill="#FFFFFF"></path>
                <path d="M117.991585,85.244 C117.283585,85.208 118.681585,84.856 118.041585,84.756 L117.991585,85.244 Z" id="Fill-68" fill="#FFFFFF"></path>
                <path d="M128.436236,73.2689307 C128.403561,73.4689307 128.622483,73.6029307 128.784224,73.5549307 C128.945965,73.5049307 129.075032,73.3549307 129.230238,73.2869307 C129.210633,73.3809307 130.35099,73.0289307 129.890273,73.6249307 C129.888639,73.7069307 129.851063,73.7809307 129.81512,73.8489307 C129.633774,74.1849307 129.413218,74.5029307 129.115875,74.6729307 C128.818533,74.8429307 128.432968,74.8269307 128.197708,74.5489307 C128.0327,74.3549307 127.962448,74.0509307 128.01963,73.7809307 C128.078445,73.5109307 128.263058,73.2869307 128.481981,73.2169307 L128.436236,73.2689307 Z" id="Fill-70" fill="#FFFFFF"></path>
                <path d="M61.3745144,154.391578 C61.7430959,154.462759 61.9417097,154.022119 61.9837242,153.68825 C62.0104606,153.478099 62.0257386,153.235747 61.8500418,153.093387 C61.613233,152.903573 61.240832,153.039154 60.9658282,153.181514 C60.7251999,153.306927 60.4864814,153.430645 60.2477628,153.554363 C60.1408169,153.610291 60.0243223,153.679776 60.003315,153.786546 C59.9842175,153.881453 60.0510587,153.972971 60.1159902,154.049235 C60.4444669,154.440727 60.8684311,154.766122 61.3496877,155 L61.3745144,154.391578 Z" id="Fill-72" fill="#FFFFFF"></path>
                <path d="M52.5680083,162.813694 C56.1821078,163.906523 57.1787296,159.902129 54.4127273,158.323378 C51.5175732,156.667276 49.421008,161.863667 52.5680083,162.813694" id="Fill-74" fill="#FFFFFF"></path>
                <path d="M39.5662967,188.813694 C43.1822197,189.906523 44.1787508,185.902129 41.4130002,184.323378 C38.5181096,182.667276 36.4217352,187.863667 39.5662967,188.813694" id="Fill-76" fill="#FFFFFF"></path>
                <path d="M22.5669519,189.813625 C26.1821849,190.906438 27.1785259,186.904085 24.413303,185.323373 C21.5189647,183.667296 19.4208384,188.863611 22.5669519,189.813625" id="Fill-80" fill="#FFFFFF"></path>
                <path d="M126.94051,74.8883401 C129.108986,75.5435287 129.70665,73.1418528 128.049188,72.1938767 C126.31174,71.2008564 125.05198,74.3170975 126.94051,74.8883401" id="Fill-82" fill="#FFFFFF"></path>
                <path d="M37.386,182.181328 C37.094,182.609328 36.354,182.603328 36.072,182.171328 C36.342,181.875328 36.634,181.565328 37.02,181.467328 C37.41,181.369328 37.904,181.597328 37.928,181.995328 L37.508,182.555328 L37.386,182.181328 Z" id="Fill-84" fill="#FFFFFF"></path>
                <path d="M113.442755,90.7762043 C111.970755,81.8349808 112.676755,91.6721275 113.130755,90.9630426 L113.442755,90.7762043 Z" id="Fill-86" fill="#FFFFFF"></path>
                <path d="M29.6518793,155.508107 C29.6518793,155.242107 29.6518793,154.966107 29.5458793,154.722107 C29.4418793,154.476107 29.2018793,154.268107 28.9378793,154.284107 C28.8038793,154.292107 28.6798793,154.354107 28.5798793,154.442107 C28.2818793,154.710107 28.2698793,155.232107 28.5518793,155.514107 C28.8378793,155.798107 29.3598793,155.780107 29.6238793,155.482107 L29.6518793,155.508107 Z" id="Fill-90" fill="#FFFFFF"></path>
                <path d="M50.354037,158.579 C50.602037,158.869 50.366037,159.407 49.984037,159.421 C49.810037,159.305 49.656037,159.153 49.544037,158.975 C49.698037,158.801 49.920037,158.687 50.152037,158.663 L50.354037,158.579 Z" id="Fill-92" fill="#FFFFFF"></path>
                <path d="M38.325,189.150517 C38.225,188.998517 38.125,188.848517 38.027,188.696517 C37.895,188.742517 37.775,188.816517 37.675,188.912517 C37.729,189.174517 38.027,189.358517 38.283,189.288517 L38.325,189.150517 Z" id="Fill-94" fill="#FFFFFF"></path>
            </g>
        </g>
    </g>
</svg>
