<?xml version="1.0" encoding="UTF-8"?>
<svg width="1439px" height="612px" viewBox="0 0 1439 612" version="1.1" xmlns="http://www.w3.org/2000/svg" xmlns:xlink="http://www.w3.org/1999/xlink">
    <title>Moons Copy 3</title>
    <defs>
        <radialGradient cx="70.8801067%" cy="44.751194%" fx="70.8801067%" fy="44.751194%" r="50.1859516%" id="radialGradient-1">
            <stop stop-color="#596381" offset="0%"></stop>
            <stop stop-color="#000000" offset="100%"></stop>
        </radialGradient>
        <radialGradient cx="74.9759056%" cy="43.5718243%" fx="74.9759056%" fy="43.5718243%" r="49.9120461%" id="radialGradient-2">
            <stop stop-color="#4A9FFC" offset="0%"></stop>
            <stop stop-color="#000000" offset="100%"></stop>
        </radialGradient>
        <linearGradient x1="49.9983483%" y1="100.406488%" x2="49.9983483%" y2="0%" id="linearGradient-3">
            <stop stop-color="#8BA7FF" offset="0%"></stop>
            <stop stop-color="#9CFFFF" offset="100%"></stop>
        </linearGradient>
        <radialGradient cx="-1306.41548%" cy="3226.60871%" fx="-1306.41548%" fy="3226.60871%" r="28.8430416%" id="radialGradient-4">
            <stop stop-color="#596381" offset="0%"></stop>
            <stop stop-color="#000000" offset="100%"></stop>
        </radialGradient>
        <radialGradient cx="62.3186652%" cy="48.9825475%" fx="62.3186652%" fy="48.9825475%" r="49.7149525%" gradientTransform="translate(0.623187,0.489825),scale(0.999979,1.000000),rotate(143.900560),translate(-0.623187,-0.489825)" id="radialGradient-5">
            <stop stop-color="#4A9FFC" offset="0%"></stop>
            <stop stop-color="#000000" offset="100%"></stop>
        </radialGradient>
        <linearGradient x1="50.0006283%" y1="100.024797%" x2="50.0006283%" y2="0.0266109659%" id="linearGradient-6">
            <stop stop-color="#8BA7FF" offset="0%"></stop>
            <stop stop-color="#9CFFFF" offset="100%"></stop>
        </linearGradient>
        <radialGradient cx="-3116.02791%" cy="-1839.81465%" fx="-3116.02791%" fy="-1839.81465%" r="28.8430416%" id="radialGradient-7">
            <stop stop-color="#596381" offset="0%"></stop>
            <stop stop-color="#000000" offset="100%"></stop>
        </radialGradient>
        <radialGradient cx="70.3742454%" cy="41.6104903%" fx="70.3742454%" fy="41.6104903%" r="49.9119549%" id="radialGradient-8">
            <stop stop-color="#4A9FFC" offset="0%"></stop>
            <stop stop-color="#000000" offset="100%"></stop>
        </radialGradient>
        <linearGradient x1="50%" y1="100.406504%" x2="50%" y2="1.15535404e-12%" id="linearGradient-9">
            <stop stop-color="#8BA7FF" offset="0%"></stop>
            <stop stop-color="#9CFFFF" offset="100%"></stop>
        </linearGradient>
        <radialGradient cx="2161.28727%" cy="4035.62568%" fx="2161.28727%" fy="4035.62568%" r="28.8430416%" id="radialGradient-10">
            <stop stop-color="#596381" offset="0%"></stop>
            <stop stop-color="#000000" offset="100%"></stop>
        </radialGradient>
        <radialGradient cx="76.9548626%" cy="50.6223623%" fx="76.9548626%" fy="50.6223623%" r="49.9120461%" id="radialGradient-11">
            <stop stop-color="#4A9FFC" offset="0%"></stop>
            <stop stop-color="#000000" offset="100%"></stop>
        </radialGradient>
        <radialGradient cx="866.061728%" cy="6576.24007%" fx="866.061728%" fy="6576.24007%" r="28.7493605%" id="radialGradient-12">
            <stop stop-color="#596381" offset="0%"></stop>
            <stop stop-color="#000000" offset="100%"></stop>
        </radialGradient>
        <radialGradient cx="100.863601%" cy="51.0514336%" fx="100.863601%" fy="51.0514336%" r="48.0384474%" id="radialGradient-13">
            <stop stop-color="#4A9FFC" offset="0%"></stop>
            <stop stop-color="#000000" offset="100%"></stop>
        </radialGradient>
        <linearGradient x1="50%" y1="99.122807%" x2="50%" y2="0%" id="linearGradient-14">
            <stop stop-color="#8BA7FF" offset="0%"></stop>
            <stop stop-color="#9CFFFF" offset="100%"></stop>
        </linearGradient>
        <radialGradient cx="-16678.4096%" cy="-2942.20827%" fx="-16678.4096%" fy="-2942.20827%" r="28.9899538%" id="radialGradient-15">
            <stop stop-color="#596381" offset="0%"></stop>
            <stop stop-color="#000000" offset="100%"></stop>
        </radialGradient>
        <radialGradient cx="81.645864%" cy="32.7927692%" fx="81.645864%" fy="32.7927692%" r="49.5583844%" id="radialGradient-16">
            <stop stop-color="#4A9FFC" offset="0%"></stop>
            <stop stop-color="#000000" offset="100%"></stop>
        </radialGradient>
        <linearGradient x1="50%" y1="100%" x2="50%" y2="0%" id="linearGradient-17">
            <stop stop-color="#8BA7FF" offset="0%"></stop>
            <stop stop-color="#9CFFFF" offset="100%"></stop>
        </linearGradient>
        <radialGradient cx="-4187.3849%" cy="4724.68732%" fx="-4187.3849%" fy="4724.68732%" r="28.7493735%" id="radialGradient-18">
            <stop stop-color="#596381" offset="0%"></stop>
            <stop stop-color="#000000" offset="100%"></stop>
        </radialGradient>
        <radialGradient cx="97.3905184%" cy="46.1967531%" fx="97.3905184%" fy="46.1967531%" r="49.5583844%" id="radialGradient-19">
            <stop stop-color="#4A9FFC" offset="0%"></stop>
            <stop stop-color="#000000" offset="100%"></stop>
        </radialGradient>
        <linearGradient x1="53.5358233%" y1="99.5601311%" x2="53.5358233%" y2="0.439868895%" id="linearGradient-20">
            <stop stop-color="#8BA7FF" offset="0%"></stop>
            <stop stop-color="#9CFFFF" offset="100%"></stop>
        </linearGradient>
        <radialGradient cx="-15613.3859%" cy="-3973.3507%" fx="-15613.3859%" fy="-3973.3507%" r="28.7493735%" id="radialGradient-21">
            <stop stop-color="#596381" offset="0%"></stop>
            <stop stop-color="#000000" offset="100%"></stop>
        </radialGradient>
        <radialGradient cx="87.557921%" cy="35.0195979%" fx="87.557921%" fy="35.0195979%" r="49.5587443%" id="radialGradient-22">
            <stop stop-color="#4A9FFC" offset="0%"></stop>
            <stop stop-color="#000000" offset="100%"></stop>
        </radialGradient>
        <radialGradient cx="4327.84621%" cy="3261.40561%" fx="4327.84621%" fy="3261.40561%" r="28.7493735%" id="radialGradient-23">
            <stop stop-color="#596381" offset="0%"></stop>
            <stop stop-color="#000000" offset="100%"></stop>
        </radialGradient>
        <radialGradient cx="105.364532%" cy="42.4818189%" fx="105.364532%" fy="42.4818189%" r="49.5587443%" id="radialGradient-24">
            <stop stop-color="#4A9FFC" offset="0%"></stop>
            <stop stop-color="#000000" offset="100%"></stop>
        </radialGradient>
        <radialGradient cx="-1112.16724%" cy="-3648.79695%" fx="-1112.16724%" fy="-3648.79695%" r="28.7141873%" id="radialGradient-25">
            <stop stop-color="#596381" offset="0%"></stop>
            <stop stop-color="#000000" offset="100%"></stop>
        </radialGradient>
        <radialGradient cx="102.440408%" cy="35.4175703%" fx="102.440408%" fy="35.4175703%" r="49.5583844%" id="radialGradient-26">
            <stop stop-color="#4A9FFC" offset="0%"></stop>
            <stop stop-color="#000000" offset="100%"></stop>
        </radialGradient>
        <linearGradient x1="50%" y1="101.754386%" x2="50%" y2="1.75438596%" id="linearGradient-27">
            <stop stop-color="#8BA7FF" offset="0%"></stop>
            <stop stop-color="#9CFFFF" offset="100%"></stop>
        </linearGradient>
        <radialGradient cx="-8358.31643%" cy="1.64448813%" fx="-8358.31643%" fy="1.64448813%" r="28.7493605%" id="radialGradient-28">
            <stop stop-color="#596381" offset="0%"></stop>
            <stop stop-color="#000000" offset="100%"></stop>
        </radialGradient>
        <radialGradient cx="96.7226698%" cy="41.9141638%" fx="96.7226698%" fy="41.9141638%" r="49.5587443%" id="radialGradient-29">
            <stop stop-color="#4A9FFC" offset="0%"></stop>
            <stop stop-color="#000000" offset="100%"></stop>
        </radialGradient>
        <linearGradient x1="47.401414%" y1="100%" x2="47.401414%" y2="0%" id="linearGradient-30">
            <stop stop-color="#8BA7FF" offset="0%"></stop>
            <stop stop-color="#9CFFFF" offset="100%"></stop>
        </linearGradient>
        <radialGradient cx="11939.9821%" cy="141.830424%" fx="11939.9821%" fy="141.830424%" r="28.7493605%" id="radialGradient-31">
            <stop stop-color="#596381" offset="0%"></stop>
            <stop stop-color="#000000" offset="100%"></stop>
        </radialGradient>
        <radialGradient cx="115.539253%" cy="38.7270553%" fx="115.539253%" fy="38.7270553%" r="49.5587443%" id="radialGradient-32">
            <stop stop-color="#4A9FFC" offset="0%"></stop>
            <stop stop-color="#000000" offset="100%"></stop>
        </radialGradient>
        <linearGradient x1="49.9960069%" y1="99.1228771%" x2="49.9960069%" y2="0.00798623228%" id="linearGradient-33">
            <stop stop-color="#8BA7FF" offset="0%"></stop>
            <stop stop-color="#9CFFFF" offset="100%"></stop>
        </linearGradient>
        <radialGradient cx="8139.40143%" cy="1217.97279%" fx="8139.40143%" fy="1217.97279%" r="28.7923511%" id="radialGradient-34">
            <stop stop-color="#596381" offset="0%"></stop>
            <stop stop-color="#000000" offset="100%"></stop>
        </radialGradient>
        <radialGradient cx="114.125151%" cy="43.031993%" fx="114.125151%" fy="43.031993%" r="49.5583844%" id="radialGradient-35">
            <stop stop-color="#4A9FFC" offset="0%"></stop>
            <stop stop-color="#000000" offset="100%"></stop>
        </radialGradient>
        <linearGradient x1="50%" y1="100%" x2="50%" y2="0.877192982%" id="linearGradient-36">
            <stop stop-color="#8BA7FF" offset="0%"></stop>
            <stop stop-color="#9CFFFF" offset="100%"></stop>
        </linearGradient>
        <radialGradient cx="-4223.63411%" cy="-5947.60055%" fx="-4223.63411%" fy="-5947.60055%" r="28.7493735%" id="radialGradient-37">
            <stop stop-color="#596381" offset="0%"></stop>
            <stop stop-color="#000000" offset="100%"></stop>
        </radialGradient>
        <radialGradient cx="102.452513%" cy="33.684682%" fx="102.452513%" fy="33.684682%" r="49.5587443%" id="radialGradient-38">
            <stop stop-color="#4A9FFC" offset="0%"></stop>
            <stop stop-color="#000000" offset="100%"></stop>
        </radialGradient>
        <linearGradient x1="49.5575221%" y1="100%" x2="49.5575221%" y2="-2.51519552e-12%" id="linearGradient-39">
            <stop stop-color="#8BA7FF" offset="0%"></stop>
            <stop stop-color="#9CFFFF" offset="100%"></stop>
        </linearGradient>
    </defs>
    <g id="Page-1" stroke="none" stroke-width="1" fill="none" fill-rule="evenodd" opacity="0.460704985">
        <g id="SR-Homepage" fill-rule="nonzero">
            <g id="Moons-Copy-3">
                <path d="M622.362945,534.765019 C619.831701,533.089774 618.558834,530.053147 619.138332,527.072192 C619.71783,524.091236 622.035463,521.753554 625.009699,521.150034 C627.983935,520.546514 631.028495,521.796122 632.722624,524.315722 C634.416753,526.835323 634.426507,530.128255 632.747332,532.657861 C630.449225,536.09136 625.816094,537.031496 622.362945,534.765019 L622.362945,534.765019 Z" id="Path" fill="url(#radialGradient-1)" style="mix-blend-mode: screen;"></path>
                <path d="M622.108521,533.818389 C618.897811,531.670642 618.033923,527.327755 620.178256,524.114673 C622.32259,520.901592 626.664365,520.033193 629.879487,522.174328 C633.094609,524.315464 633.967431,528.656565 631.829713,531.874052 C630.800326,533.423386 629.196602,534.499237 627.372661,534.864044 C625.54872,535.22885 623.654592,534.852606 622.108521,533.818389 L622.108521,533.818389 Z" id="Path" fill="url(#radialGradient-2)" style="mix-blend-mode: color-dodge;"></path>
                <path d="M628.999884,527.528455 C628.984199,529.457669 627.410318,531.010383 625.481068,531 C623.551818,530.989512 621.994827,529.419863 622,527.490591 C622.005199,525.56132 623.570606,524 625.499884,524 C626.433093,524 627.327672,524.372622 627.984873,525.035166 C628.642074,525.69771 629.007471,526.595277 628.999884,527.528455 Z" id="Path" fill="url(#linearGradient-3)"></path>
                <path d="M596.343096,15.7619367 C592.898637,13.464559 591.963577,8.80707217 594.253744,5.35497917 C596.54391,1.90288617 601.193488,0.96127818 604.643029,3.2509959 C608.092569,5.54071362 609.037946,10.1961111 606.755434,13.6532848 C604.446683,17.0928672 599.804907,18.0328951 596.343096,15.7619367 L596.343096,15.7619367 Z" id="Path" fill="url(#radialGradient-4)" style="mix-blend-mode: screen;"></path>
                <ellipse id="Oval" fill="url(#radialGradient-5)" style="mix-blend-mode: color-dodge;" transform="translate(601.680044, 8.724665) rotate(-20.360000) translate(-601.680044, -8.724665) " cx="601.680044" cy="8.72466541" rx="6.52149738" ry="6.5213634"></ellipse>
                <path d="M605,8.50179927 C604.999245,9.92758849 604.133665,11.2103999 602.811795,11.7447724 C601.489925,12.2791449 599.97603,11.9582479 598.984639,10.9335382 C597.993248,9.90882863 597.722557,8.38516411 598.300327,7.08168368 C598.878097,5.77820325 600.188821,4.95549583 601.613864,5.00186277 C603.502246,5.06330547 605.000999,6.6124283 605,8.50179927 Z" id="Path" fill="url(#linearGradient-6)"></path>
                <path d="M980.343096,477.742354 C976.898637,475.448245 975.963577,470.797386 978.253744,467.350205 C980.54391,463.903024 985.193488,462.962756 988.643029,465.249216 C992.092569,467.535675 993.037946,472.184448 990.755434,475.636703 C989.656087,477.299443 987.940054,478.456095 985.986364,478.851183 C984.032674,479.246271 982.002082,478.847286 980.343096,477.742354 L980.343096,477.742354 Z" id="Path" fill="url(#radialGradient-7)" style="mix-blend-mode: screen;"></path>
                <path d="M979.123404,476.828314 C975.908211,474.689434 975.032622,470.35058 977.16669,467.132096 C979.300758,463.913613 983.638102,463.03164 986.859531,465.161115 C990.080961,467.290591 990.969224,471.626868 988.844569,474.851574 C987.820294,476.406173 986.21893,477.488652 984.394631,477.859612 C982.570332,478.230572 980.673417,477.859447 979.123404,476.828314 L979.123404,476.828314 Z" id="Path" fill="url(#radialGradient-8)" style="mix-blend-mode: color-dodge;"></path>
                <path d="M987,469.5 C987,471.432997 985.432997,473 983.5,473 C981.567003,473 980,471.432997 980,469.5 C980,467.567003 981.567003,466 983.5,466 C985.42655,466.015475 986.984525,467.57345 987,469.5 Z" id="Path" fill="url(#linearGradient-9)"></path>
                <path d="M203.343096,61.742354 C199.898637,59.4482454 198.963577,54.797386 201.253744,51.3502052 C203.54391,47.9030244 208.193488,46.9627562 211.643029,49.2492158 C215.092569,51.5356753 216.037946,56.1844483 213.755434,59.6367027 C212.656087,61.299443 210.940054,62.4560955 208.986364,62.8511835 C207.032674,63.2462714 205.002082,62.8472862 203.343096,61.742354 L203.343096,61.742354 Z" id="Path" fill="url(#radialGradient-10)" style="mix-blend-mode: screen;"></path>
                <path d="M202.108521,62.8183894 C198.897811,60.6706424 198.033923,56.3277549 200.178256,53.1146735 C202.32259,49.901592 206.664365,49.0331927 209.879487,51.1743285 C213.094609,53.3154642 213.967431,57.6565649 211.829713,60.874052 C210.800326,62.4233864 209.196602,63.4992369 207.372661,63.8640436 C205.54872,64.2288504 203.654592,63.852606 202.108521,62.8183894 Z" id="Path" fill="url(#radialGradient-11)" style="mix-blend-mode: color-dodge;"></path>
                <path d="M209.999884,55.5284547 C209.984199,57.4576691 208.410318,59.0103833 206.481068,59 C204.551818,58.9895121 202.994827,57.4198625 203,55.4905914 C203.005199,53.5613202 204.570606,52 206.499884,52 C207.433093,52 208.327672,52.3726216 208.984873,53.035166 C209.642074,53.6977105 210.007471,54.5952767 209.999884,55.5284547 L209.999884,55.5284547 Z" id="Path" fill="url(#linearGradient-3)"></path>
                <path d="M424.563135,94.4047621 C423.382666,93.6216644 422.791779,92.2050897 423.066567,90.816936 C423.341354,89.4287824 424.427565,88.3431172 425.817664,88.0672202 C427.207763,87.7913232 428.627298,88.3796656 429.412989,89.5573429 C430.19868,90.7350203 430.195405,92.2695201 429.404694,93.4438436 C428.893797,94.2165302 428.094423,94.7529563 427.184859,94.93348 C426.275296,95.1140037 425.331199,94.9236095 424.563135,94.4047621 L424.563135,94.4047621 Z" id="Path" fill="url(#radialGradient-12)" style="mix-blend-mode: screen;"></path>
                <path d="M426.08573,92.6037889 C424.970352,91.8671501 424.664853,90.3804285 425.401261,89.2727936 C425.839756,88.4656149 426.703174,87.973059 427.630386,88.00114 C428.557598,88.029221 429.388822,88.5730997 429.776394,89.4052962 C430.163966,90.2374926 430.041099,91.2145987 429.459182,91.9279348 C428.713154,93.0292753 427.207482,93.330929 426.08573,92.6037889 L426.08573,92.6037889 Z" id="Path" fill="url(#radialGradient-13)" style="mix-blend-mode: color-dodge;"></path>
                <circle id="Oval" fill="url(#linearGradient-14)" cx="426.5" cy="91.5" r="1.5"></circle>
                <path d="M1433.59214,247.434003 C1432.80694,246.923528 1432.25912,246.119659 1432.07119,245.202197 C1431.88327,244.284734 1432.07093,243.330232 1432.59219,242.552183 C1433.6645,240.95164 1435.82882,240.51871 1437.43435,241.583603 C1439.03989,242.648497 1439.48277,244.810695 1438.4252,246.421014 C1437.36763,248.031333 1435.20738,248.484113 1433.59214,247.434003 Z" id="Path" fill="url(#radialGradient-15)" style="mix-blend-mode: screen;"></path>
                <path d="M1433.12811,246.589665 C1432.28121,246.03372 1431.85357,245.021644 1432.04527,244.026909 C1432.23697,243.032174 1433.01009,242.251472 1434.00295,242.050033 C1434.99581,241.848594 1436.01209,242.26625 1436.57634,243.107611 C1437.1406,243.948971 1437.14127,245.047673 1436.57803,245.889718 C1435.81509,247.030319 1434.27529,247.342726 1433.12811,246.589665 L1433.12811,246.589665 Z" id="Path" fill="url(#radialGradient-16)" style="mix-blend-mode: color-dodge;"></path>
                <circle id="Oval" fill="url(#linearGradient-17)" cx="1433.5" cy="245.5" r="1.5"></circle>
                <path d="M701.576635,95.4338738 C700.39317,94.6541946 699.795672,93.2369327 700.063077,91.8437226 C700.330482,90.4505125 701.410053,89.3561187 702.797804,89.0714479 C704.185554,88.7867771 705.607796,89.3679712 706.400571,90.5437055 C707.193345,91.7194398 707.200303,93.2578399 706.418197,94.440719 C705.343754,96.0371219 703.191225,96.4786726 701.576635,95.4338738 L701.576635,95.4338738 Z" id="Path" fill="url(#radialGradient-18)" style="mix-blend-mode: screen;"></path>
                <path d="M701.128108,93.5896648 C700.281205,93.0337202 699.853575,92.021644 700.045272,91.0269091 C700.236969,90.0321743 701.010089,89.251472 702.002949,89.0500332 C702.995808,88.8485943 704.012087,89.2662497 704.576345,90.1076105 C705.140603,90.9489714 705.14127,92.0476733 704.578032,92.8897179 C703.815093,94.0303189 702.27529,94.3427259 701.128108,93.5896648 L701.128108,93.5896648 Z" id="Path" fill="url(#radialGradient-19)" style="mix-blend-mode: color-dodge;"></path>
                <path d="M704.999777,92.4868424 C705.006456,92.8822171 704.862573,93.2638409 704.600476,93.545921 C704.338379,93.8280012 703.98006,93.986867 703.606075,93.9868039 C703.059043,94.0639245 702.51936,93.7985953 702.222583,93.3066246 C701.925806,92.814654 701.925806,92.185346 702.222583,91.6933754 C702.51936,91.2014047 703.059043,90.9360755 703.606075,91.0131961 C704.375795,91.0131961 704.999777,91.67297 704.999777,92.4868424 Z" id="Path" fill="url(#linearGradient-20)"></path>
                <path d="M1407.57664,315.413675 C1406.39317,314.636444 1405.79567,313.223631 1406.06308,311.834795 C1406.33048,310.445959 1407.41005,309.355001 1408.7978,309.071224 C1410.18555,308.787446 1411.6078,309.366816 1412.40057,310.538859 C1413.19335,311.710902 1413.2003,313.244473 1412.4182,314.423638 C1411.91193,315.201053 1411.11469,315.74345 1410.2048,315.929512 C1409.2949,316.115575 1408.34827,315.929776 1407.57664,315.413675 Z" id="Path" fill="url(#radialGradient-21)" style="mix-blend-mode: screen;"></path>
                <path d="M1407.31823,314.702794 C1406.48224,314.254377 1405.9721,313.371423 1406.00118,312.423231 C1406.03026,311.475039 1406.59356,310.625008 1407.45546,310.228666 C1408.31737,309.832324 1409.32935,309.957971 1410.06815,310.553055 C1411.07344,311.362785 1411.2969,312.804725 1410.58386,313.880733 C1409.87082,314.956741 1408.45576,315.312954 1407.31823,314.702794 L1407.31823,314.702794 Z" id="Path" fill="url(#radialGradient-22)" style="mix-blend-mode: color-dodge;"></path>
                <path d="M1410,312.5 C1410,313.328427 1409.32843,314 1408.5,314 C1407.67157,314 1407,313.328427 1407,312.5 C1407,311.671573 1407.67157,311 1408.5,311 C1409.32253,311.014063 1409.98594,311.677469 1410,312.5 L1410,312.5 Z" id="Path" fill="url(#linearGradient-17)"></path>
                <path d="M314.576635,314.413675 C313.39317,313.636444 312.795672,312.223631 313.063077,310.834795 C313.330482,309.445959 314.410053,308.355001 315.797804,308.071224 C317.185554,307.787446 318.607796,308.366816 319.400571,309.538859 C320.193345,310.710902 320.200303,312.244473 319.418197,313.423638 C318.911932,314.201053 318.114692,314.74345 317.204795,314.929512 C316.294899,315.115575 315.348268,314.929776 314.576635,314.413675 Z" id="Path" fill="url(#radialGradient-23)" style="mix-blend-mode: screen;"></path>
                <path d="M315.931845,314.446945 C314.926561,313.637215 314.703097,312.195275 315.41614,311.119267 C316.129182,310.043259 317.544236,309.687046 318.68177,310.297206 C319.517764,310.745623 320.027903,311.628577 319.998819,312.576769 C319.969736,313.524961 319.406442,314.374992 318.544537,314.771334 C317.682633,315.167676 316.670646,315.042029 315.931845,314.446945 L315.931845,314.446945 Z" id="Path" fill="url(#radialGradient-24)" style="mix-blend-mode: color-dodge;"></path>
                <path d="M318,312.5 C317.985937,313.322531 317.322531,313.985937 316.5,314 C315.671573,314 315,313.328427 315,312.5 C315,311.671573 315.671573,311 316.5,311 C317.322531,311.014063 317.985937,311.677469 318,312.5 L318,312.5 Z" id="Path" fill="url(#linearGradient-17)"></path>
                <path d="M699.586716,554.391251 C698.804416,553.895278 698.25695,553.101632 698.070149,552.192726 C697.883347,551.283819 698.073277,550.337828 698.596285,549.572179 C699.658109,547.959149 701.823097,547.514558 703.431921,548.579158 C705.040745,549.643758 705.484176,551.814406 704.422352,553.427437 C703.917405,554.208916 703.118553,554.752286 702.207668,554.933839 C701.296783,555.115392 700.351387,554.919677 699.586716,554.391251 L699.586716,554.391251 Z" id="Path" fill="url(#radialGradient-25)" style="mix-blend-mode: screen;"></path>
                <path d="M699.128108,552.589665 C698.281205,552.03372 697.853575,551.021644 698.045272,550.026909 C698.236969,549.032174 699.010089,548.251472 700.002949,548.050033 C700.995808,547.848594 702.012087,548.26625 702.576345,549.107611 C703.140603,549.948971 703.14127,551.047673 702.578032,551.889718 C701.815093,553.030319 700.27529,553.342726 699.128108,552.589665 Z" id="Path" fill="url(#radialGradient-26)" style="mix-blend-mode: color-dodge;"></path>
                <path d="M703,550.5 C703,551.328427 702.328427,552 701.5,552 C700.671573,552 700,551.328427 700,550.5 C700,549.671573 700.671573,549 701.5,549 C702.328427,549 703,549.671573 703,550.5 L703,550.5 Z" id="Path" fill="url(#linearGradient-27)"></path>
                <path d="M986.563135,250.404762 C985.382666,249.621664 984.791779,248.20509 985.066567,246.816936 C985.341354,245.428782 986.427565,244.343117 987.817664,244.06722 C989.207763,243.791323 990.627298,244.379666 991.412989,245.557343 C992.19868,246.73502 992.195405,248.26952 991.404694,249.443844 C990.893797,250.21653 990.094423,250.752956 989.184859,250.93348 C988.275296,251.114004 987.331199,250.92361 986.563135,250.404762 L986.563135,250.404762 Z" id="Path" fill="url(#radialGradient-28)" style="mix-blend-mode: screen;"></path>
                <path d="M986.31823,248.702794 C985.482236,248.254377 984.972097,247.371423 985.001181,246.423231 C985.030264,245.475039 985.593558,244.625008 986.455463,244.228666 C987.317367,243.832324 988.329354,243.957971 989.068155,244.553055 C990.073439,245.362785 990.296903,246.804725 989.58386,247.880733 C988.870818,248.956741 987.455764,249.312954 986.31823,248.702794 L986.31823,248.702794 Z" id="Path" fill="url(#radialGradient-29)" style="mix-blend-mode: color-dodge;"></path>
                <path d="M988,247.513274 C987.984629,248.338647 987.27002,249.000127 986.393865,249 C985.595926,248.89976 985,248.258458 985,247.5 C985,246.741542 985.595926,246.10024 986.393865,246 C987.280909,246 988,246.677516 988,247.513274 L988,247.513274 Z" id="Path" fill="url(#linearGradient-30)"></path>
                <path d="M1.56313465,601.404762 C0.382665967,600.621664 -0.208221233,599.20509 0.066566581,597.816936 C0.341354395,596.428782 1.42756504,595.343117 2.81766386,595.06722 C4.20776268,594.791323 5.62729828,595.379666 6.4129891,596.557343 C7.19867991,597.73502 7.19540462,599.26952 6.40469363,600.443844 C5.89379701,601.21653 5.09442276,601.752956 4.18485942,601.93348 C3.27529607,602.114004 2.33119887,601.92361 1.56313465,601.404762 L1.56313465,601.404762 Z" id="Path" fill="url(#radialGradient-31)" style="mix-blend-mode: screen;"></path>
                <path d="M2.93184546,599.446945 C1.92656104,598.637215 1.70309682,597.195275 2.41613953,596.119267 C3.12918224,595.043259 4.54423595,594.687046 5.68177009,595.297206 C6.51776354,595.745623 7.0279027,596.628577 6.9988193,597.576769 C6.96973591,598.524961 6.40644177,599.374992 5.54453747,599.771334 C4.68263317,600.167676 3.67064631,600.042029 2.93184546,599.446945 Z" id="Path" fill="url(#radialGradient-32)" style="mix-blend-mode: color-dodge;"></path>
                <path d="M4.99976041,598.50012 C4.99976041,599.328481 4.32824117,600 3.49988021,600 C2.67151924,600 2,599.328481 2,598.50012 C2,597.671759 2.67151924,597.00024 3.49988021,597.00024 C3.89983939,596.993031 4.28554225,597.148738 4.56840203,597.431598 C4.8512618,597.714458 5.00696865,598.100161 4.99976041,598.50012 L4.99976041,598.50012 Z" id="Path" fill="url(#linearGradient-33)"></path>
                <path d="M166.572348,480.421158 C164.959144,479.356442 164.514506,477.185557 165.57922,475.572351 C166.643935,473.959144 168.814816,473.514505 170.428019,474.579221 C171.471579,475.267972 172.068424,476.461137 171.99373,477.709263 C171.919035,478.957389 171.184148,480.070856 170.065894,480.630232 C168.94764,481.189607 167.615907,481.109909 166.572348,480.421158 Z" id="Path" fill="url(#radialGradient-34)" style="mix-blend-mode: screen;"></path>
                <path d="M168.128108,480.589665 C167.281205,480.03372 166.853575,479.021644 167.045272,478.026909 C167.236969,477.032174 168.010089,476.251472 169.002949,476.050033 C169.995808,475.848594 171.012087,476.26625 171.576345,477.107611 C172.140603,477.948971 172.14127,479.047673 171.578032,479.889718 C170.815093,481.030319 169.27529,481.342726 168.128108,480.589665 Z" id="Path" fill="url(#radialGradient-35)" style="mix-blend-mode: color-dodge;"></path>
                <circle id="Oval" fill="url(#linearGradient-36)" cx="170.5" cy="477.5" r="1.5"></circle>
                <path d="M892.576635,611.413675 C891.39317,610.636444 890.795672,609.223631 891.063077,607.834795 C891.330482,606.445959 892.410053,605.355001 893.797804,605.071224 C895.185554,604.787446 896.607796,605.366816 897.400571,606.538859 C898.193345,607.710902 898.200303,609.244473 897.418197,610.423638 C896.911932,611.201053 896.114692,611.74345 895.204795,611.929512 C894.294899,612.115575 893.348268,611.929776 892.576635,611.413675 L892.576635,611.413675 Z" id="Path" fill="url(#radialGradient-37)" style="mix-blend-mode: screen;"></path>
                <path d="M892.31823,609.702794 C891.482236,609.254377 890.972097,608.371423 891.001181,607.423231 C891.030264,606.475039 891.593558,605.625008 892.455463,605.228666 C893.317367,604.832324 894.329354,604.957971 895.068155,605.553055 C896.073439,606.362785 896.296903,607.804725 895.58386,608.880733 C894.870818,609.956741 893.455764,610.312954 892.31823,609.702794 L892.31823,609.702794 Z" id="Path" fill="url(#radialGradient-38)" style="mix-blend-mode: color-dodge;"></path>
                <path d="M894,606.486726 C893.985812,607.316536 893.316536,607.985812 892.486726,608 C891.661353,607.985518 890.999873,607.312225 891,606.486726 C891,605.66563 891.66563,605 892.486726,605 C893.312225,604.999873 893.985518,605.661353 894,606.486726 Z" id="Path" fill="url(#linearGradient-39)"></path>
            </g>
        </g>
    </g>
</svg>
