<svg xmlns="http://www.w3.org/2000/svg" xmlns:xlink="http://www.w3.org/1999/xlink" viewBox="0 0 375.68 113.28"><defs><style>.cls-1{fill:#360a0a;}.cls-10,.cls-16,.cls-17,.cls-18,.cls-19,.cls-2,.cls-20,.cls-22,.cls-23,.cls-24,.cls-25,.cls-4,.cls-5,.cls-6,.cls-7{fill-rule:evenodd;}.cls-3,.cls-4{fill:#fff;}.cls-5{fill:url(#linear-gradient);}.cls-12,.cls-6{fill:#a53335;}.cls-7{fill:#6f2b31;}.cls-8{fill:#fefefe;}.cls-9{fill:none;}.cls-10{fill:url(#linear-gradient-2);}.cls-11{fill:#7a2d2e;}.cls-13{fill:#943132;}.cls-14,.cls-25{fill:#ec5f37;}.cls-15,.cls-18{fill:#fcb82e;}.cls-16{fill:url(#linear-gradient-3);}.cls-17{fill:url(#linear-gradient-4);}.cls-19{fill:url(#linear-gradient-5);}.cls-20{fill:url(#linear-gradient-6);}.cls-21,.cls-24{fill:#f68b34;}.cls-22{fill:url(#linear-gradient-7);}.cls-23{fill:#68100b;}</style><linearGradient id="linear-gradient" x1="113.32" y1="95.82" x2="113.32" y2="22.96" gradientUnits="userSpaceOnUse"><stop offset="0" stop-color="#f78c33"/><stop offset="0.38" stop-color="#df6135"/><stop offset="0.63" stop-color="#a61e14"/><stop offset="0.79" stop-color="#9d100b"/><stop offset="1" stop-color="#68100b"/></linearGradient><linearGradient id="linear-gradient-2" x1="77.22" y1="90.62" x2="77.22" y2="29.25" xlink:href="#linear-gradient"/><linearGradient id="linear-gradient-3" x1="145.01" y1="94.31" x2="145.01" y2="18.44" xlink:href="#linear-gradient"/><linearGradient id="linear-gradient-4" x1="177.12" y1="97.44" x2="177.12" y2="22.96" xlink:href="#linear-gradient"/><linearGradient id="linear-gradient-5" x1="210.8" y1="95.02" x2="210.8" y2="30.36" xlink:href="#linear-gradient"/><linearGradient id="linear-gradient-6" x1="260.81" y1="91.14" x2="260.81" y2="29.07" xlink:href="#linear-gradient"/><linearGradient id="linear-gradient-7" x1="301.81" y1="98.5" x2="301.81" y2="9.89" xlink:href="#linear-gradient"/></defs><title>revenge</title><g id="Layer_2" data-name="Layer 2"><g id="Layer_1-2" data-name="Layer 1"><path class="cls-1" d="M85.21,95c-.63-.35-1.79-.23-1.62.74s1.8,2.06,2.55,1.54,0-1.76-.93-2.28Zm196.33-5.52-26.06,4.57-9.28-.42s10.16,10.63,19.26,10.54,13.4-4,10.56-8.29c0,0,5,2.41,8.51,0s-3-6.4-3-6.4Zm-6.37,21.83c1.91-1.2-.29-3.48-1.86-4.51-.53-.35-3.35-.45-3.7,1.2s3.65,4.51,5.56,3.31ZM252,104.92c-.63-.35-1.79-.23-1.62.74s1.8,2.06,2.55,1.54,0-1.77-.93-2.28ZM184.6,91.27c-.25.43-.51.84-.79,1.24a4.4,4.4,0,0,0,.79-1.24ZM51.52,92.59c-.65,0-1.91,1.2-1,2.17s3.35-.45,3-1.37-1.57-.8-2-.8ZM77.68,24.41c-2.63,1.52-1.39,4-.16,5.1,0,0-2.24.23-8.57-2.13s-13.28-.46-14.75,2.2a6.91,6.91,0,0,0-.92,4.72,4.7,4.7,0,0,1-3.05.65,1.09,1.09,0,0,0-.12-1.41c-.66-.69-3.78.19-3.55,2.77,0,0-1.08.12-.62-1.17s.89-3.12-1-3-5.18,2.63-4.87,4.07,1.55,1.33,1,2.74-3.82,5.13-7.1,5.74-2.66-1.1-2.35-1.52.65-4.26-3.32-3.35-9.85,5.52-6.49,9.58c0,0-2.09.88-2.32,2.7s.62,2.89,2.28,3.77,1.85,4.41-1.66,4.64-4.25-2.7-4.32-4-2.44-5.28-5.56-4.79-3.4,1.94-1.43,2.63a3.29,3.29,0,0,1-2.51,1.44c-1.58,0-1-.61-1-1.25s-2.13-1.37-3.75-.27-2.43,4.45-.27,5.44,3.09.15,4.83-.08,2.31.27,2.27.65S7,61.45,8,62.51c0,0-2.12,2.51-2,4.6s3.71,5.48,10,4.53c0,0,.39.76,1.78.23s4-1.64,4-1.64-.73,2.13,1.39,1.86,4.29-1.78,4.95-.6-.85,1.17-.93,2.69,3.13,1.87,5.72,1a3.27,3.27,0,0,0,2.58,1.36A8.3,8.3,0,0,0,39,75s-4.4-2.51-4.94-6.84,6.49-6.54,12.12-2.93,12.9-18.59,12.9-18.59l9.68-5.88L56.9,38.41s-1.31-1.37.82-4.91,8-1.94,8-1.94c-3.38.95-3,3.17-1.35,4.34,1.86,1.31,5.29,1.52,5.29,1.52l-.07,2.79,15-9.1L84,25.17s-3.71-2.28-6.33-.76ZM204.44,6.57c1.91-1.2-.29-3.48-1.85-4.51-.54-.35-3.36-.45-3.71,1.2s3.65,4.5,5.56,3.31ZM372.71,37c-1.28,0-2.72,2-4.11,2.17s-2.43,0-2.49-1.14-2.32-2.29-4.4-1.54-5.16.91-5.91,1.76a4.8,4.8,0,0,0-1,3.31,4.78,4.78,0,0,1-4.35,4.62c-3.59.57-6.31-.46-4.92-2.79S352,38,353.77,36A4.12,4.12,0,0,0,351,29.3c-3.76-.46-6.13-.4-5.27-2.85S348,21,344.45,20.29a16.85,16.85,0,0,0-10,1.31c-3.07,1.31-4.4,2.62-5.56,2.57a2.71,2.71,0,0,1-2.61-1.77c-.34-1.14-2.83-.74-2.72-2.17s1.86-2.17.12-3.59-3.65-2.28-10.37-.17a3,3,0,0,0,0-4.34c-2.14-2.17-10.31-2.74-19,3-7.44,4.94,25.18,25.44,34.69,31.22a2.7,2.7,0,0,1,0-.49c0-2.48,3.37-4.49,7.53-4.49,13.45,0-.34,10.7-7.77,13l19,10c8.72-.8,14-12.28,10.83-14.54-2.16-2.36-1.78-4.26.08-5.33s3.91-1.36,3.68.52-.75,3.42,1.28,3.13,3.36-4.16,4.28-5,1.45-.57,2.78-1.08.06-1.26,1.62-1.31a4.18,4.18,0,0,1,1.07.1c.82.16,1.3.32,2.06-1,1-1.82-1.45-3-2.72-3Zm-30.26-9c-1.85.53-3.66-.1-4.05-1.42s.79-2.81,2.64-3.34,3.65.1,4,1.42-.79,2.81-2.63,3.34Zm-118-23.55c-1.1.64-1.36,3.09-2.48,3.93s-2.11,1.22-2.73.26-3.14-.82-4.58.87-4,3.37-4.23,4.48a4.82,4.82,0,0,0,.8,3.36,4.75,4.75,0,0,1-1.45,6.17c-2.82,2.29-5.69,2.76-5.66,0s2.94-7.88,3.41-10.53a4.12,4.12,0,0,0-5.74-4.39c-3.49,1.49-5.52,2.72-6,.17s-.78-5.88-4.18-4.7a16.84,16.84,0,0,0-8,6.11c-2,2.68-2.5,4.48-3.54,5A2.69,2.69,0,0,1,177,15c-.88-.82-2.83.78-3.45-.52s.53-2.8-1.69-3.17-4.3-.15-9.07,5a3,3,0,0,0-2.16-3.76c-2.94-.8-10.3,2.79-14.94,12.12-4,8,34.52,9.43,45.65,9.68a2.86,2.86,0,0,1-.28-.4c-1.24-2.14.68-5.57,4.28-7.65s7.52-2,8.76.12c.86,1.49.2,3.59-1.48,5.44L222.26,27s-.5-3.4-3.55-4.36-3.67-2.8-2.6-4.64,2.71-3.15,3.45-1.4,1.06,3.34,2.67,2.08.83-5.29,1.23-6.44,1-1.22,1.87-2.33-.58-1.12.75-1.95a4.47,4.47,0,0,1,1-.44c.79-.27,1.29-.37,1.28-1.91,0-2.1-2.74-1.85-3.84-1.21Zm-34.93,8.13c-6.29-6,6.39,6.05,0,0ZM181.27.18c-.63-.35-1.79-.23-1.62.74s1.8,2.05,2.55,1.54,0-1.77-.93-2.28ZM19,74.52c-1.33-.09-3.59.71-3.12,2.25s1.94,1.71,3.36,1.06,2.46-3.14-.24-3.31ZM47.62,29.15c1,0,1.85-.51,1.85-1.14s-.83-1.14-1.85-1.14-1.85.51-1.85,1.14.83,1.14,1.85,1.14ZM17.25,69.67c-1.43,0-2.58-.49-2.58-1.1s1.15-1.1,2.58-1.1,2.57.5,2.57,1.1-1.15,1.1-2.57,1.1ZM72.79,97.73a3.67,3.67,0,0,0-2.51,1.71c-.64,1-.92,2.74.64,2.68s3.53-2.34,3.47-2.8a1.66,1.66,0,0,0-1.6-1.59ZM63,92c-4.33.68-3.71-.61-3.17-2.74s2.78-2.64,4-2.74a3.21,3.21,0,0,1,1,0,29.17,29.17,0,0,0-1.91-2.63c-.17-.06-2-.18-2-.18s-5.67,1.49-5.55,3.65,3.35,1,3.35,1-1.16,3.14.47,3.83c0,0-1.63,1.82-2.44,2.5s-2,3.54,2.78,5,9.1-2.45,12-3.76a62.09,62.09,0,0,1,8.34-2.62l.87-2.74-14.42-3C67,89.05,65.91,91.52,63,92ZM175.08,98.8a4.05,4.05,0,0,1-1.75,0,6.9,6.9,0,0,1-4-2.68,4.65,4.65,0,0,0-2.61,1.7,1.09,1.09,0,0,1,.91,1.07c0,1-2.81,2.54-4.47.55,0,0-.85.69.39,1.27s2.84,1.58,1.45,2.81-5.52,1.8-6.32.56.15-2-1.2-2.67-6.33-.93-9.08,1-1.11,2.67-.59,2.74,3.47,2.55,0,4.72-10.85,3.06-11.36-2.19c0,0-2.09.85-3.54-.27s-1.61-2.48-1.05-4.28-10-2.09-17.32.7c-2.38.91-2.43-1.38-2.43-1.46A10.91,10.91,0,0,1,116.57,96s-.27-.81,1.09-1.42,4-1.66,4-1.66-2-1-.33-2.3,4.29-1.76,3.92-3.06-1.43-.23-2.56-1.25.89-3.53,3.36-4.72a3.27,3.27,0,0,1,.87-2.79,8.31,8.31,0,0,1,3.58-1.44s-1.34,4.89,1.35,8.33,9.21,0,10.64-6.5,22.27,4,22.27,4l11-2.69L169,90.6s0,1.89,4,2.89,7-4.3,7-4.3c-2.93,1.64-4.25,0-4.06-1.86a.41.41,0,0,1-.07-.11c-.71-1.31,0-2.41,1.32-3a16,16,0,0,1,1.45-2l-2-1.93L187,77.82a8.91,8.91,0,0,1,2.16-1.46,3.28,3.28,0,0,1,.86-2.8,8.4,8.4,0,0,1,3.59-1.43,12.2,12.2,0,0,0-.27,4.14l.44-.11,3.76,4.63a9.34,9.34,0,0,1-.32,1c3.07.45,7.26-2.74,8.37-7.82,1.43-6.54,22.27,4,22.27,4l11-2.69-6.71,10s0,1.9,4,2.9,7.05-4.31,7.05-4.31c-3.06,1.72-4.37-.12-4-2.11.39-2.25,2.66-4.81,2.66-4.81l-2-1.94,17-4.17,3.76,4.64s-1,4.23-3.94,5S252.88,78.66,253,77c0,0-1.75,1.42-4.56,7.56s-9.07,9.72-12,8.87a6.85,6.85,0,0,1-4-2.68,4.65,4.65,0,0,0-2.61,1.7,1.09,1.09,0,0,1,.91,1.08c0,1-2.81,2.54-4.47.55,0,0-.85.68.4,1.27s2.83,1.58,1.44,2.81-5.52,1.8-6.32.56.15-2-1.2-2.67-6.33-.93-9.08,1-1.11,2.66-.59,2.74,3.47,2.55,0,4.71-10.86,3.07-11.37-2.19c0,0-2.09.86-3.54-.27s-1.61-2.48-1.05-4.27-1.81-4.43-4.46-2.11-1.09,4.92-.23,5.88,2,5.46-.54,7.32-3.78,1-2.87-.84a3.28,3.28,0,0,0-2.8.75c-1.12,1.12-.25,1.11.15,1.63s-.53,2.47-2.46,2.83-4.86-1.42-4-3.65,2.08-2.29,3.46-3.36,1.46-1.83,1.16-2.07-1.82.15-1.92-1.26c0,0-3.27-.27-4.64-1.86a3.69,3.69,0,0,1-.74-2.23Zm57-.36c.72-.73,1.67-1,2.12-.51s.21,1.39-.51,2.12-1.67,1-2.12.5-.22-1.39.51-2.11ZM116.65,91.88c-.87,1-3,2-3.8.62s.16-2.59,1.63-3.13,4,.48,2.17,2.51ZM169,103.71c.72-.72,1.67-.95,2.11-.5s.22,1.39-.5,2.11-1.67,1-2.12.51-.22-1.4.51-2.12Zm-50.14-7.18c-1,1-1.47,2.17-1,2.6s1.59,0,2.6-1,1.47-2.17,1-2.6-1.59,0-2.6,1Zm170.79-5.25a1.46,1.46,0,0,0-1.91.8s-.15,1.3,1.76,1.08,1.22-1.56.15-1.88ZM108.38,101.39c1.91-1.2-.29-3.48-1.85-4.5-.54-.36-3.36-.46-3.71,1.19s3.65,4.51,5.56,3.31Z"/><path class="cls-2" d="M90.37,57.79h0l-.05,0h0l0,0,0,0h0l0,0,0,0h0l0,0,0,0h0l0,0,0,0h0l0,0,0,0h0l0,0,0,0-.1,0,0,0,0,0h0l0,0-.05,0,0,0,0,0,0,0,0,0h0l0,0,0,0h0l0,0,0,0,0,0,0,0h0l0,0,0,0,.05-.08,0-.07h0l0-.07,0,0,0,0h0l0,0,0,0,0-.07h0l0-.05v0h0l0,0,0,0h0l0,0,0,0h0l0,0,0,0h0v0l.26,1.61ZM325.88,91.25l-7.61,9.64,1.14-6c-.75-.43-1.49-.86-2.24-1.27l0,0,.8-1.54a87.59,87.59,0,0,0-13.61-6.77l-.2-.08-.19-.07-.19-.08-.51-16.18L291.58,18.6c.91-2.21.06-5.91-.41-8.2l22.7-3.77h0L329.64,4l.05.76,7.63-1.35c.26,3.6,1.77,19.28-1.76,21.49L320.07,32.4l.87,5.38c4.43-1.43,8.84-2.64,12.92-5L337,50.17l-5.51,4.77,9.68,1.88,8.21-6.7L343.15,77.9,327.77,99.5l-1.89-8.25Zm-44.07-7.46c-2.14,3.67-4.32,7.25-6.3,10.82-.82-3.06-1.65-6.81-5.35-7.58H270c-6.74-.36-13.72.53-20.38,1.57l-9.32,9.59-18.46-2.56-7,6.13-1.13-6.21-.64-9.94-1.1-.43L199.19,99.06l.75-3.37-4.27,4.49-.08-4.29,5.55-5.58L206,68.68,196.84,76l-10.42-2c-.13.36-.27.76-.44,1.19l-24,21.23.32-.82a29.86,29.86,0,0,0,1.5-6.71c-1.68.55-3.36,1.12-5.05,1.65l.3-5.61-1.5.58-9.62-20.67,0-.11c-3.91-16.2-7.56-34-16.58-48.16l-1.07.15h-1.74l.07,0,.07,0,.07,0,.08,0,.07,0,.07,0,.07,0,.07,0,.08,0,.07,0,.07,0,.07,0,.08,0,.07,0,.07,0,.07,0,1.64-.52-1.49-4.8,30.49-4.2,1.18,3.84-2.17.7-.06,0h.09l2.17-.32a54.86,54.86,0,0,1,5.83,11.74h0l.15.39.07.21,0,0,16.64-4.85,17.51-1.5-.26,1,10.41-2a69.66,69.66,0,0,1,2.31,9.13l12.78-1.94,3.44.83,5.09.4.78,3.14.21,1.17,26.77-15.49.18-.05.42-.13a71.31,71.31,0,0,1,8-1.94c3.57-.62,6.83-.68,10.37-1.07l.73,6.27-2,1.29h1.16l-.29,65.85ZM129.14,94.33,137.43,89c.69,2.46,1.31,4.78,1.86,7.27l.81-.12,0,.43-4.41,3.33-4.11-3.62-3.2,2.18.79-4.13ZM109.48,26.39l-2,.42,1.5-1.08.54.66Zm23.85,49-.41.19-17.59-3.42,15-5.4c1,2.86,2,5.74,3,8.63Zm-8.51-22.62-12.46,2.48-1-6.56.19-.07.2-.08c3-1.19,6.22-2.22,9.34-3.21l.19-.06.1,0q1.85,3.72,3.49,7.53Zm-25,35.45-3.45,1.15,3.38-1.55.07.4ZM96.6,84.75,77.41,92.83a63.22,63.22,0,0,0-3.12-22.07h0l-.09-.32-.09-.28v0h0v0L74,69.8c.79.15,1.55.31,2.28.49a29.93,29.93,0,0,1,13.35,6.86c1.62,1.48,3.22,3,4.69,4.66l.07.08.38,2.27,1.57.17.19.29.07.13Zm-35,2.62-13,4.43,3.7-1.68L51.3,88.49l1.24-.26,0-.13h0l-.35-1.24h8.16l.11.31,1.11.12h.09v.07ZM96.13,38.45V38.4c-.39-4.31-3.33-8.71-7.31-10.2a12,12,0,0,0-1.16-.36h0l-.39-.08h0l-.4-.08-.4-.06h0l-.4,0-.4,0L111.52,29l.32,0,.32,0,.32.05.31.06.32.07.31.08.31.1-17.6,9ZM68.46,56.77h0v-.05h0c-.88-1.93-1.93-3.79-2.84-5.71l-.22-.46a17.63,17.63,0,0,1,4.25-2.13,3.29,3.29,0,0,1,1.1-.14,3.77,3.77,0,0,1,0,1.29,18.58,18.58,0,0,1-1.15,4.14L68.76,56l-.06.14-.24.63Zm-22.33.35-12,1.58,3.67-3.34,0,0h0l1.63,1A17.26,17.26,0,0,0,41,57.1l1,.43.82-.67c3.42-2.78,6.86-5.74,10.21-8.56l.09-.08h0l.09-.08.09-.07h0c-1.74,1.88-3.43,3.82-5,5.85a22.43,22.43,0,0,0-2.16,3.2Zm23-23.2a39.54,39.54,0,0,0-1.77-7.19l15.9.89a23.52,23.52,0,0,0-7,2.12,48.72,48.72,0,0,0-7.14,4.18ZM45.59,72.27h0a31.91,31.91,0,0,0-6.77.15l-1.56.12,7.68-1.62.66,1.35Zm-.85-1.76,11.59-2.42L57,69.8l-.49,0-.12-.33a103.29,103.29,0,0,0-11.66,1.06ZM36.5,75.59,39.09,75l0,0h0l-2.63.53ZM48.89,34.26l10.45,0,0,.05c-2.75,2.6-5.48,5.21-8.22,7.81.47-2.33-1.19-5.67-2.19-7.9Zm5.35,28.93-3.46.61L52,62.36l0,0c.39-.47.79-.93,1.21-1.39q.54,1.11,1.05,2.25Z"/><path class="cls-3" d="M90.19,58.15h0l0,0h0l0,0Zm0,0,0,0,0,0h0l.1,0Zm-.1,0,0,0,0,0h0l0,0,0,0h0l.18.1Zm-.18-.1,0,0,0,0h0l.09,0Zm-.09,0,0,0h0l0,0h0l.09,0Zm-.09,0-.05,0h0l0,0-.09,0,0,0,0,0h0l.28.15Zm-.28-.15,0,0,0,0h0l0,0,0,0-.4-.21.25-.37,0,0,0,0,0,0h0l0,0,0-.07h0l0,0,0,0,.12-.18h0l0,0h0l0-.08,0,0,0,0,0-.07h0l0-.07.12-.19h0l.07-.1h0v0h0v0l0-.08h0l0-.07h.22V56l.4.08.27,1.61.13.79-.71-.37-.79-.42ZM325.68,92.15l-7.1,9-.71-.32,1.1-5.74-.07,0c-.62-.36-1.23-.71-1.92-1.09l0,0-.34-.19.18-.35.63-1.2c-2.09-1.26-4.17-2.41-6.31-3.47s-4.53-2.14-6.92-3.08l-.19-.08h0l-.19-.07h0l-.19-.08-.25-.09v-.27l-.51-16.14L291.19,18.69l0-.24c.81-2,.13-5.27-.33-7.52,0-.09,0-.17-.1-.45l-.08-.4.41-.07L313.8,6.23l.39-.06h0l15.38-2.56.43-.08L330,4l0,.32L337.25,3l.43-.08,0,.45c0,.23,0,.56.07.94h0c.38,4.88,1.47,18.73-2,20.91l0,0-15.23,7.36.75,4.62,1.53-.48a52.79,52.79,0,0,0,10.87-4.33l.49-.28.1.56,3.12,17.38,0,.23-.17.14-4.88,4.24L341,56.39l8.07-6.58.64.4L343.53,78l-.06.14-15.38,21.6-.51.72-.2-.87-1.7-7.43ZM319,99.37,325.57,91l.51-.65.19.81L328,98.54l14.82-20.81,5.94-26.57-7.32,6-.15.12-.18,0-9.67-1.88-.81-.15.62-.54L336.55,50l-3-16.61A55.87,55.87,0,0,1,323,37.53l-2,.63-.44.14-.08-.46-.86-5.38-.05-.29.27-.13,15.47-7.48c3.05-2,2-15.41,1.62-20.16h0c0-.18,0-.35,0-.51l-7.19,1.28-.44.07,0-.44,0-.33L313.94,7l-.38.06h0l-21.9,3.65v0c.47,2.3,1.16,5.67.33,7.86l11.64,50.15v.07l.5,15.93.14,0h0l.19.08c2.42,1,4.73,2,7,3.1s4.46,2.35,6.68,3.7l.32.2-.17.33-.62,1.19,1.62.93.32.18.24.14-.05.27L319,99.37ZM238,22.48c-.16.09-1,4.86-1,4.86l26.5-14c.45-.12,3.81-1.29,4.26-1.41,1.34-.32,2.68-.61,4.06-.86h0c2.3-.39,4.46-.56,6.65-.73,1.24-.1,2.49-.2,3.74-.34l.4,0,0,.4.73,6.27,0,.24-.21.14-.83.54h.2v.4l-.29,65.85-.06.2h0c-.69,1.19-1.37,2.33-2,3.47-1.47,2.49-2.93,5-4.25,7.35l-.74-.09-.11-.43c-.76-2.86-1.64-6.17-4.9-6.87H270a70.7,70.7,0,0,0-10.17.26c-3.36.3-6.72.77-10,1.28l-9.22,9.5-.14.14-.2,0L222,96l-6.83,6-.53.46-.13-.69-1.13-6.21v0l-.95-8.44-.61-.23L199.48,99.33l-.69-.36.44-2L196,100.45l-.68-.27-.09-4.28v-.17l.12-.12,5.47-5.5,4.56-20.4-8.25,6.63-.14.12-.18,0-10.09-2-.09.24c-.07.2-.15.41-.24.64l-.1.15L162.19,96.73l-.63-.44.32-.83a25.57,25.57,0,0,0,1.33-5.66c0-.09,0-.18,0-.32l-.3.1c-1.4.47-2.8.93-4.13,1.35l-.55.17,0-.58.26-5-.92.35-.35.14-.16-.34L147.52,65l0-.08,0-.1h0c-.43-1.81-.75-3.14-1.07-4.47-3.52-14.83-7.26-30.54-15.32-43.35l-.81.12h-1.74l-.19-.78.07,0,.07,0,.08,0h0l.07,0h0l.07,0,.08,0,.07,0h0l.07,0,.07,0,.08,0h0l.07,0,.07,0,.07,0,.08,0h0l.07,0,.07,0h0l1.26-.4-1.37-4.42-.14-.45.47-.06L160.2,6.7l.33,0,.1.32,1.2,3.84.11.38-.06,0A43.66,43.66,0,0,1,165.15,17c.93,1.93,1.71,3.87,2.52,5.95l.11.3,16.28-4.74.08,0L201.65,17l.57-.05-.15.55-.1.36,9.79-1.87,1.06.29h0c.34,1.35,2.06,7.55,2.37,9.1l11.73-2.9,3.44,1.93L238,22.48m-8.76,2.74-2.27-1.69-13.14,2.26h0l-.11-.57c-.34-1.74-.69-3.37-1.07-4.87-.33-1.3-.48-1.89-.84-3l-10.27,1.31-.63.12.17-.62.12-.42-16.91,1.45-16.6,4.84-.36.11-.13-.35v-.05l-.08-.2-.14-.39-.12-.31h0c-.77-1.95-1.51-3.78-2.38-5.59a42.18,42.18,0,0,0-3.15-5.55l-.32,0-1.6.24h-.09l-.18-.77,0,0,1.72-.55.09,0-1-3.14-29.68,4.09L131.64,16l.11.38-.11,0c8.21,13,12,28.82,15.54,43.78.4,1.67.79,3.33,1.07,4.48h0v.06L157.7,85l1.15-.45.58-.22,0,.61-.26,5,3.57-1.16.92-.31.62-.21-.1.65c0,.05-.08.51-.14,1a28.17,28.17,0,0,1-1.13,5.15L185.64,75c.07-.18.14-.35.2-.53s.14-.38.2-.56l.11-.33.34.07,10.25,2,9-7.24.64.4L201.53,90.4l-.11.19L196,96.06l.06,3.14,3.6-3.78.67.36-.42,1.92,11.52-11.55.19-.21.25.1,1.09.43.24.1,0,.25,1,8.67,1,5.49,6.43-5.66.14-.13.18,0,18.27,2.53,9.18-9.44.22-.11c3.33-.52,6.75-1,10.18-1.32a72.38,72.38,0,0,1,10.29-.26h.18c3.56.75,4.61,4,5.4,6.93,1.23-2.19,2.5-4.34,3.79-6.51h0c.67-1.13,1.34-2.27,2-3.37l.29-65.34H281l-12,7.4-.09-.83,13.63-8.46-.65-5.63c-1.16.12-2.28.21-3.38.29-2.17.17-4.32.34-6.57.73h0c-1.36.24-2.69.53-4,.85s-2.49.93-3.82,1.34h0l-.14-.26.14.26L253,19.82,238.6,34.38,235,28.63l.42-3.87-6.26.46M128.92,94l8.3-5.34.45-.29.15.52c.34,1.23.67,2.42,1,3.63s.54,2.17.8,3.29l.45-.07.49-.07,0,.5,0,.43v.18l-.15.11-4.42,3.32-.26.2-.24-.22-3.87-3.41-2.94,2-.62-.41.78-4.12,0-.17.14-.09Zm8.27-4.38-7.69,4.95-.58,3,2.4-1.64.26-.17.23.2,3.86,3.4,3.61-2.71-.29,0-.08-.36c-.28-1.24-.57-2.43-.88-3.63-.27-1-.54-2-.84-3.1ZM109.56,26.78l-2,.42-.32-.71,1.5-1.08.3-.22.24.29.53.65.42.51-.64.14Zm23.94,49-.41.19-.25,0-17.59-3.42,0-.77,15-5.4.37-.13.14.37c.53,1.46,1,2.9,1.51,4.31s1,2.88,1.45,4.33l.11.34-.32.15ZM116.83,72l16,3.11c-.43-1.32-.87-2.65-1.32-4s-.92-2.64-1.38-3.92L116.83,72Zm8.07-18.89-12.46,2.48-.41.08-.06-.41-1-6.55,0-.32.29-.11.19-.08h0l.19-.08h0c1.5-.6,3.07-1.15,4.65-1.69s3.17-1,4.72-1.53l.19-.06h0l.1,0,.32-.11.15.31c.62,1.25,1.22,2.5,1.81,3.76s1.14,2.51,1.7,3.79l.2.45-.49.1Zm-12.21,1.61,11.57-2.3c-.48-1.1-1-2.21-1.5-3.32s-1.08-2.3-1.64-3.43c-1.56.5-3.14,1-4.67,1.52s-3.1,1.08-4.61,1.67h0l-.09,0,.94,5.82ZM100,88.57l-3.46,1.15L96.22,89l3.38-1.55.47-.22.09.51.08.4.05.34-.32.11Zm-3.22-3.45L77.56,93.2l-.58.24,0-.63a57.29,57.29,0,0,0-.57-11.08A78.25,78.25,0,0,0,73.92,70.9v0l0-.16,0-.16h0l0-.07-.07-.24,0,0,0-.13,0-.14-.19-.63.64.12c.41.07.79.15,1.16.23l1.14.26a33.58,33.58,0,0,1,7.46,2.75,27.19,27.19,0,0,1,6.07,4.2c.81.74,1.62,1.51,2.41,2.29s1.57,1.59,2.3,2.4l.08.08.09.2.33,2,1.27.14.19,0,.11.15.09.15.09.15h0a.54.54,0,0,0,0,.08h0a.59.59,0,0,1,0,.08l.2.38-.4.17Zm-18.92,7.1,17.94-7.55-1-.11-.31,0,0-.29L94,82.07c-.74-.81-1.5-1.6-2.27-2.36s-1.58-1.53-2.38-2.27a26.83,26.83,0,0,0-5.9-4.09,33,33,0,0,0-7.29-2.67c-.35-.09-.72-.18-1.12-.26l-.48-.1h0v0h0l.08.29a77,77,0,0,1,2.56,11,57.39,57.39,0,0,1,.6,10.61ZM61.77,87.75l-13,4.43-.3-.74L51.78,90,51,88.71l-.32-.49.57-.12.83-.17L52,87.7h0L51.77,87l-.14-.51h9l.09.27,0,.07.86.09h.09l.31,0,.05.31v.07l.05.33-.32.11Zm-9,2.23,7.35-2.51-.06-.17v0H52.69l.2.73.09.3.07.25-.42.08-.67.14.75,1.14,0,.08Zm43-51.49v-.06h0a12.47,12.47,0,0,0-2.3-6,10.48,10.48,0,0,0-4.75-3.8,5.1,5.1,0,0,0-.55-.19,5.62,5.62,0,0,0-.55-.15h0l-.18,0-.19,0h0l-.18,0-.19,0-.2,0-.19,0h0l-.19,0L86,28l-.19,0h-.2l0-.8h0l25.82,1.48h0l.32,0h0l.31,0h0l.32,0h0l.32.06h0l.32.07h0l.31.09h0l.3.09.07.74-17.6,9-.53.27,0-.59Zm-1.65-6.58a13.4,13.4,0,0,1,2.38,5.93l16.15-8.27-.19,0h0l-.32,0-.29,0-.32,0h0L89.78,28.18a11.82,11.82,0,0,1,4.3,3.73ZM68.46,57.17H68.2l-.1-.23,0,0h0v0c-.48-1-1-2.06-1.52-3.08s-.91-1.76-1.32-2.63L65,50.72l-.15-.32.3-.19c.63-.4,1.34-.84,2.09-1.23A12.32,12.32,0,0,1,69.52,48a6,6,0,0,1,.73-.15,1.59,1.59,0,0,1,.58,0l.18,0,.08.17a1.92,1.92,0,0,1,.12.64,6.46,6.46,0,0,1,0,.87,13.58,13.58,0,0,1-.46,2.17c-.22.71-.47,1.42-.71,2.06l-.87,2.29h0l0,.06,0,.07-.24.63-.1.26Zm-1.19-3.72c.39.77.78,1.53,1.15,2.3l.83-2.18c.24-.63.49-1.32.69-2a11.93,11.93,0,0,0,.44-2,5.19,5.19,0,0,0,0-.75v-.11h-.06a3.91,3.91,0,0,0-.61.13,10.76,10.76,0,0,0-2.11.88c-.59.31-1.19.66-1.74,1l.07.14c.43.9.87,1.76,1.31,2.61ZM46.18,57.52l-12,1.57-.32-.69,1.84-1.66,1.83-1.67,0,0,.27-.11h0L38,55l1.63,1h0a14.31,14.31,0,0,0,1.49.81l.75.33.63-.52c2.53-2.06,5.1-4.24,7.64-6.39L52.74,48l.09-.08h0l.09-.07.09-.08.26-.09h.91l-.62.67c-.86.94-1.72,1.89-2.55,2.86s-1.63,1.95-2.41,3c-.37.49-.76,1-1.13,1.54a15.54,15.54,0,0,0-1,1.61l-.09.18-.21,0Zm-10.84.62,5.41-.71a16.3,16.3,0,0,1-1.48-.81h0l-1.37-.8-1.65,1.51-.9.81Zm7.76-1,2.77-.36a17.28,17.28,0,0,1,1-1.51c.38-.56.78-1.08,1.15-1.57s1-1.24,1.47-1.85c-2.1,1.78-4.21,3.56-6.34,5.29ZM68.77,34a35,35,0,0,0-1.53-6.34c0-.19-.12-.39-.23-.77l-.17-.55.55,0h0l15.91.89,0,.8a18.7,18.7,0,0,0-3.53.77,29,29,0,0,0-3.34,1.32A39.94,39.94,0,0,0,72.88,32c-1.18.69-2.35,1.45-3.49,2.24l-.55.39L68.77,34ZM68,27.39a39.8,39.8,0,0,1,1.47,5.83c1-.66,2-1.3,3-1.9,1.21-.71,2.43-1.36,3.67-1.94A30.57,30.57,0,0,1,79.57,28c.2-.06.41-.13.62-.18l-12.25-.69.07.23ZM45.53,72.66h0a28.22,28.22,0,0,0-5.94.09l-.74.07-1.56.12-.11-.79,7.56-1.6-.07-.43L56.25,67.7l.32-.07.13.31c.07.19.19.47.34.86l.34.85.23.57-.62,0-.49,0h-.27l-.09-.25,0,0c-1.9.06-3.72.18-5.53.35s-3.46.37-5.26.62L46,72.1l.32.68-.74-.12ZM43,71.74c.66,0,1.32,0,1.93.05l-.2-.42L43,71.74Zm13.1-3.19-3.28.68c1.14-.08,2.3-.14,3.49-.17-.06-.13-.12-.3-.21-.51ZM36.41,75.2,39,74.61l.25-.06.16.21,0,0h0l.38.51-.62.12L36.6,76h0l-.17-.78ZM49.22,33.86l10.13,0,.27.68,0,0-4.11,3.9-4.11,3.91-.66-.37c.4-2-.92-4.9-1.89-7-.07-.15-.07-.14-.21-.45l.63-.72Zm9.13.84-8.84,0,0,0c.86,1.91,2,4.37,2,6.46L54.91,38l3.44-3.27Zm-4,28.88-3.46.61-.38-.65,1.19-1.44v0l.6-.71.62-.7.4-.44.26.53c.15.33.33.7.53,1.13L54.61,63l.21.47-.51.09Zm-2.54-.36,1.9-.34-.31-.65-.27-.58-.21.24-.59.7,0,0-.5.61Z"/><path class="cls-4" d="M109.42,84.86,110,85a74.41,74.41,0,0,1,17.76,7.18l.69.4L127.55,97l-1.26-.51c-4.22-1.71-8.52-3.34-12.82-4.84-2.24-.78-4.5-1.54-6.79-2.2-.93-.27-1.87-.52-2.81-.73a14.88,14.88,0,0,0-2.07-.34l-.86-.07-.83-4.63-3.59-.39-.84-.09-5-30L85,55.9l6-13.55.34-.18c3-1.57,5.92-3.12,8.92-4.61,1.71-.86,3.43-1.68,5.15-2.51,4.78-2.33,9.38-5,14-7.61l1.41-.83a48.36,48.36,0,0,0,6.32-4.51l1.24-1,.53,1.53c1.56,4.46,2.62,9.78,1.31,14.45a12.4,12.4,0,0,1-1.5,3.39l3.89.39L127,42.37l0,0-.17,0c-1.11.31-2.23.66-3.34,1q-3.13,1-6.26,2c-2.2.73-4.43,1.49-6.58,2.38l-.48.2,1.39,8.69q2.86-.87,5.71-1.8c1.4-.45,2.8-.92,4.17-1.42.51-.19,1-.38,1.51-.59l.06,0,2.21-.34.1.12a13.88,13.88,0,0,1,1.62,3c.56,1.32,1,2.67,1.52,4,.55,1.62,1.06,3.24,1.58,4.86.19.59.37,1.18.57,1.76,0,.07,0,.15.08.24l.29,0,.34,2.21L114,71.27l.25,1.73,19,3.68,8-6.54L135,97.92l-1.42-1.26c-5.17-4.59-10.47-8.17-17.12-10.21a53,53,0,0,0-7.06-1.59Z"/><path class="cls-4" d="M129.14,94.33l-.79,4.13-2.46-1q-6.31-2.56-12.77-4.82c-2.22-.77-4.46-1.52-6.73-2.17-.91-.27-1.83-.51-2.75-.72a14,14,0,0,0-1.92-.32L100,89.3l-.83-4.66-2.81-.3-1.63-.18-4.9-29.39-7,3.27,7.29-16.45.67-.35c3-1.58,5.93-3.13,8.94-4.63,1.71-.85,3.44-1.67,5.16-2.51,4.75-2.32,9.34-4.94,13.92-7.57l1.4-.82a48.9,48.9,0,0,0,6.18-4.42l2.41-2,1,3c1.64,4.7,2.7,10.23,1.32,15.12a13.9,13.9,0,0,1-.81,2.18l7.86.79-10.91,3.05,0,0-.24.06c-1.1.31-2.19.65-3.28,1-2.08.64-4.17,1.3-6.24,2s-4.18,1.41-6.22,2.23l1,6.56q5.64-2,11.28-4l1.8-.62.86,1.69a30.38,30.38,0,0,1,1.26,3c.54,1.39,1,2.78,1.55,4.17.57,1.58,1.14,3.15,1.73,4.72.14.38.28.75.43,1.12l.57-.09.65,4.3-17.16,2.61,17.59,3.42,10-8.16L135.66,99.9l-2.76-2.45q-1.86-1.65-3.76-3.12Z"/><path class="cls-5" d="M91.85,43.16,87.21,53.62l13.07-6.11-8.55,5.22,4.91,29.45c16.13,1.77,24.7,2.1,37.7,13.64l5.09-22.77-5.92,4.83-20.27-3.94-.27-1.8L96.11,79,96,78.23l16.92-6.57-.05-.38-17,5.84-.09-.52,17.14-5.32-.14-1L130,67.7c-.42.06-4.33-11.81-5.66-14.42l-13.73,4.86-1.2-7.48-6.6,1.91,6.47-2.71-.23-1.42-9.2,2.66,9-3.78h0l1.31-.54h0c5.52-2.27,17.14-5.68,16.42-5.44s6.26-3.87,1.21-18.37a50.42,50.42,0,0,1-7.89,5.45c-16,9.2-12,6.21-28.09,14.75Zm9.52,41.19a77.13,77.13,0,0,1,25.78,8.79l-.44,2.31s-19.11-7.75-24.82-8.19l-.52-2.91Z"/><path class="cls-6" d="M106.85,85.39,127,94.11l.19-1a75,75,0,0,0-20.3-7.75Z"/><path class="cls-7" d="M118,44c4.71-1.53,9.11-2.82,8.66-2.67-.82.27,6.26-3.87,1.21-18.37a50.42,50.42,0,0,1-7.89,5.45c-3.79,2.18-6.45,3.67-8.53,4.8a96.81,96.81,0,0,1,5.25,8.42c.44.78.87,1.58,1.3,2.37Z"/><path class="cls-6" d="M128.4,68,130,67.7c-.42.06-4.33-11.81-5.66-14.42l-1.63.57c.42.95.83,1.9,1.24,2.85q2.36,5.55,4.43,11.25Z"/><path class="cls-6" d="M135.57,90.3l3.86-17.25-5.92,4.83-1.8-.35q2.06,6.36,3.86,12.77Z"/><path class="cls-6" d="M92.68,58.37,96.2,79.49c.28.93.57,1.84.85,2.73,10.8,1.18,12.76-.12,20.45,3.73,4,.47,4.67-1.12,4.06-2.9a67.39,67.39,0,0,0-2.8-6.85c-.21-.45-.43-.89-.66-1.31l-4.86-1-.27-1.8L96.11,79,96,78.23l16.92-6.57-.05-.38-17,5.84-.09-.52,17.14-5.32-.14-1,1.9-.29c-7.76-8.51-20.07-11.29-21.93-11.67Z"/><path class="cls-8" d="M42.75,54.56a2.11,2.11,0,0,0,.87,0l3.16-4.78s-.39-.57-.57-.53-3.46,5.35-3.46,5.35Z"/><path class="cls-8" d="M42.13,52.5c.18.06.47,0,.53-.06a20,20,0,0,0,1.46-2.28c-.06-.11-.17-.41-.38-.35a23.26,23.26,0,0,0-1.61,2.69Z"/><path class="cls-8" d="M58.7,44.84c.29.08.71-.06.7-.42a.33.33,0,0,0-.34-.3.48.48,0,0,0-.41.26.39.39,0,0,0,.4.63.79.79,0,0,0,.53-.78.22.22,0,0,0-.22-.22.7.7,0,0,0-.72.72.28.28,0,0,0,.25.25,1,1,0,0,0,.78-.24c0-.06.06-.12.11-.19s0,.05.06,0a.41.41,0,0,0,0-.19.59.59,0,0,0-.16-.4.62.62,0,0,0-.89.07,1.27,1.27,0,0,0-.38.9c0,.26.24.39.47.36A1.34,1.34,0,0,0,60,44.48.59.59,0,0,0,59,44a.33.33,0,0,0,.23.56h.14c.08,0,0,0,0,0a2.68,2.68,0,0,0-.07-.27l0,.05s-.07.06-.1.08a.69.69,0,0,1-.36.16l.37.38a.66.66,0,0,1,.15-.34s0,0,0,0l-.23-.11s0,.06.05.09a.88.88,0,0,0,.12.15,2.68,2.68,0,0,0-.07-.27c0,.06,0,0,0,0l-.09.05a1.1,1.1,0,0,1-.26,0l.25.26a.23.23,0,0,1,.22-.28c-.07-.08-.15-.15-.22-.22a.44.44,0,0,1,0,.27s-.09.1-.09.08h0c0,.06.06.07.08,0l.07,0L59,44.48l0,.07a.5.5,0,0,1-.21.22s0,.06,0,.07Z"/><path class="cls-8" d="M61,43.48h0a.31.31,0,0,0,.23-.3.39.39,0,0,0-.17-.33.26.26,0,0,0-.37.11.25.25,0,0,0,.34.34H60.8l-.12-.16v0a1.49,1.49,0,0,0,0-.21l0,0a.32.32,0,0,0-.14.35v0a.29.29,0,0,0,.35.2Z"/><path class="cls-4" d="M56.52,69.78l.49,0c-1.18-3-2.42-6-3.82-8.86-.43.47-.84.94-1.23,1.42L50.78,63.8c-1.47-1.56-4.83-3.55-5.24-5.61l.5-.89a22.31,22.31,0,0,1,2.25-3.38c1.22-1.6,2.53-3.14,3.87-4.64l1.11-1.21-5.76,4.85c-1.57,1.32-3.13,2.65-4.72,3.94l-.82.67-1-.43a17.26,17.26,0,0,1-1.53-.82l-1.63-1c-.94.87-1.89,1.73-2.84,2.59l-.87.79-3.64-1.78,1.15-1.65c.94-1.37,2-2.7,3-4q2.16-2.74,4.37-5.44c1.61-2,3.22-3.93,4.86-5.87C45,38.7,46,37.41,47.11,36.2l1.78-1.94L50,36.66c.55,1.24,1.39,4.13,1.11,5.5,2.74-2.6,5.47-5.21,8.22-7.81,2-1.91,4-3.84,6.06-5.74l2-1.88.8,2.65c.18.59.33,1.2.47,1.8a19.57,19.57,0,0,1,.47,2.4l0,.35a47.91,47.91,0,0,1,7.14-4.19c3.8-1.76,8.43-3.07,12.52-1.54,3.23,1.21,5.28,3.87,6.55,7a11.33,11.33,0,0,1,.79,3.69,6,6,0,0,1,0,.85l.37-.19L95.82,43a25.79,25.79,0,0,1-1,3.73A45.81,45.81,0,0,1,90.85,55c-.46.77-.95,1.55-1.45,2.31,1,.51,2,1,2.94,1.57,3.08,1.68,6.13,3.48,9,5.45a56.46,56.46,0,0,1,5.34,4,41.15,41.15,0,0,1,9.63,12,2.85,2.85,0,0,1,.12,2.3l2.33-.77-.67,3c-.25,1.13-.51,2.26-.79,3.38l-.26,1L98.45,93.84l-2.06-4.5,11.1-3.69-10,1.7L97,85.88a5.65,5.65,0,0,0-.48-1.26,20.71,20.71,0,0,0-2.21-2.81c-1.47-1.63-3.07-3.18-4.69-4.66a29.93,29.93,0,0,0-13.35-6.86c-.73-.18-1.49-.34-2.28-.49,1,3.4,2,6.92,2.71,10.35v.15c.15,1.19.28,2.39.4,3.58a48.58,48.58,0,0,1,.37,6.81l-.09,2.14-2.07-.55a100.59,100.59,0,0,0-12.05-2.36L62,89.76l-.37-2.46h-.09l-1.11-.12-.11-.31H52.16l.38,1.37-1.24.26,1.07,1.63-3.7,1.68-.84-1.1c-3.24-4.3-6.5-8.6-9.71-12.93L36.5,75.59l2.63-.53h0l-1.87-2.51,3.12-.25c1.06-.08,2.13-.14,3.2-.14a13.48,13.48,0,0,1,2,.12h0l-.85-1.76,2.34-.33a75.25,75.25,0,0,1,8.08-.69l1.24,0,.12.33ZM68.76,56l.87-2.29a18.58,18.58,0,0,0,1.15-4.14,3.77,3.77,0,0,0,0-1.29,3.29,3.29,0,0,0-1.1.14,13.36,13.36,0,0,0-2.78,1.25c-.49.27-1,.57-1.47.88l.22.46c.67,1.42,1.43,2.8,2.12,4.21.24.49.5,1,.74,1.55l.24-.63.06-.14Z"/><rect class="cls-9" x="39.51" y="14.47" width="75.65" height="76.15"/><path class="cls-10" d="M49.21,89.66c-1.08-1.43-6.74-8.93-9.7-12.91a14.12,14.12,0,0,1,1.85-.26l8.46,12.89-.61.28Zm.41-2.58c-.82-1.21-5-7.31-7.86-11.34v0h0c-.45-.63-.86-1.2-1.24-1.7.74-.06,2-.14,3.07-.14a12.82,12.82,0,0,1,1.75.1c.58,1.34,4.09,9.5,5.06,13l-.76.16Zm1-25.82c-.16-.64-3-2.74-3.05-3.19C50.92,51.38,85,14.47,93.77,35.83A9.62,9.62,0,0,1,94.44,39a4.22,4.22,0,0,1-2.18,3.91l-21,11.45c6.68-17.62-14.2-.87-20.61,6.94ZM60,85.13H52.74c-.57-1.51-3.66-9.61-5.42-13.24a74.33,74.33,0,0,1,7.89-.67c.56,1.51,3.5,9.49,4.79,13.91Zm15.77,5.49a104.19,104.19,0,0,0-12.26-2.41l-.25-1.7c5,.66,10.65,2,10.71,2a65.11,65.11,0,0,0-12.26-2.94L57,71.53l2.61.11-.22-.54c-1.42-3.61-3.26-8.16-4.94-11.53C56,58.66,61.35,53,64,51.75c1.13,2.39,3.42,6.35,4,8.87h0v0l-.55,3.57,2.85-7.45a6.08,6.08,0,0,1,2.92-3.27L94.13,42.7c-1.41,7.21-7,14.77-7,14.87l-.27.36.41.2c.11.06,11.55,5.63,18.36,11.5a39.27,39.27,0,0,1,9.22,11.51A1.16,1.16,0,0,1,114,82.8L98.67,85.39A7.74,7.74,0,0,0,98,83.71c-1-1.55-3-4-7.19-7.83-8.93-8.25-21.35-8.35-22.15-8.35h0s1.49.31,3.23.82l-.13,0s1.69,5.17,3,10.69c.12.55.24,1.13.36,1.73a77.36,77.36,0,0,1,.72,9.87Z"/><path class="cls-11" d="M68.62,67.53l3.78,3-.55-2.17s-2.42-.66-3.23-.82Z"/><polygon class="cls-12" points="98.76 90.37 116.02 85.94 116.45 84.49 98.76 90.37 98.76 90.37"/><polygon class="cls-13" points="59.15 71.62 61.71 85.57 56.99 71.53 59.15 71.62 59.15 71.62"/><path class="cls-14" d="M54.85,71.88a34,34,0,0,0-5.62.23.43.43,0,0,0-.29.28.5.5,0,0,1,0,.12.24.24,0,0,0,.11.28c.54.33,1.56,0,2.15-.13,1.24-.18,2.45-.43,3.68-.72,0,0,0-.06,0-.06Z"/><path class="cls-14" d="M86.08,59.15a46.69,46.69,0,0,0,5.42,2.62c1.73.86,3.43,1.82,5.08,2.83a84.77,84.77,0,0,1,9.92,7.14s.09,0,0,0a59.7,59.7,0,0,0-9.46-7.53c-1.7-1.09-3.44-2.09-5.22-3a21.26,21.26,0,0,0-5.6-2.44.25.25,0,0,0-.19.46Z"/><polygon class="cls-14" points="64.28 55.97 56.12 59.91 56.82 60.88 64.32 56.67 64.28 55.97 64.28 55.97"/><path class="cls-14" d="M59.5,60.31a3.23,3.23,0,0,0,.88.44c.22,0,4.21-2.72,4.21-2.72s0-.57-.18-.53-4.91,2.81-4.91,2.81Z"/><path class="cls-15" d="M63.1,84.57a46.53,46.53,0,0,1,12.68,3.16l.13-.21a43.79,43.79,0,0,0-.84-6.66,5.17,5.17,0,0,1-1.54-.55c-1-.77-1.78,2.1-3.83.23s-4,.41-6.08-3.28A2.06,2.06,0,0,0,61.23,76l1.87,8.53Z"/><path class="cls-15" d="M50.93,77.09a7.23,7.23,0,0,0,2.34.47,7.44,7.44,0,0,0,2.93-1.11l2.69,7.76-5.15-.28-2.81-6.84Z"/><polygon class="cls-15" points="49.9 86.14 45.16 78.73 46.65 78.99 49.9 86.14 49.9 86.14"/><path class="cls-15" d="M68.17,78.93a.62.62,0,0,0,.49.89c.48.08,1.11-.31.89-.85a1.13,1.13,0,0,0-.68-.55.87.87,0,0,0-.92.33.64.64,0,0,0,0,.47.83.83,0,0,0,.11.31.79.79,0,0,0,.7.32.38.38,0,0,0,.36-.28,0,0,0,0,0,0,0,.29.29,0,0,0,0-.33.49.49,0,0,0-.34-.15h-.06s0,0,0,0l0,0c0,.07,0,.08,0,0l-.12.27,0,0-.18.11s0,0,0,0a.48.48,0,0,0,.26-.07.13.13,0,0,1-.08,0c-.06,0,0,0,0,0l.24,0h0s0,0,0,0l-.12-.19v0a1.33,1.33,0,0,0,0-.19s0,0,0,0,0,0,0,0h0l-.06,0s0,0,0,0a.27.27,0,0,0-.49-.2Z"/><path class="cls-15" d="M66.92,78.17h0a.23.23,0,0,0-.32.08.24.24,0,0,0,.08.32.51.51,0,0,0,.24.07.22.22,0,0,0,.21-.27.36.36,0,0,0-.24-.25.3.3,0,0,0-.36.21.23.23,0,0,0,.33.25h0l-.15,0a.5.5,0,0,0,.34,0,.19.19,0,0,0,.13-.14.35.35,0,0,0-.06-.33.27.27,0,0,0-.37,0c-.2.17.06.49.27.36l0,0-.12,0h0l-.1,0h0l-.08-.07,0,0,0-.1v.07l.14-.19a.15.15,0,0,1-.13,0l.14.14v0c0,.08-.07.17-.11.25s0,0,0,0a.16.16,0,0,1-.1,0l-.06-.15v0l.27-.2h0l.07.08a.86.86,0,0,0-.07-.1l0,.29v0a.22.22,0,0,0-.07-.29Z"/><path class="cls-15" d="M73.47,80.16l0,0-.11.07H73.3l.21.07c.13,0,.3-.07.29-.22a.73.73,0,0,0-.06-.21c-.13-.26-.55,0-.39.23,0,0,0,0,0,0l.21-.28-.1,0,.08.09s0,0,0,0c-.14-.3-.63,0-.44.25,0,0,0,0,0,0a.22.22,0,0,0,.35,0Z"/><path class="cls-15" d="M54,76.8c.18.24.48.08.72,0a.3.3,0,0,0,.07-.55.8.8,0,0,0-.75,0,.47.47,0,0,0-.29.6.66.66,0,0,0,.62.33,1.43,1.43,0,0,0,.71-.26c.27-.17.26-.68-.1-.74a1.76,1.76,0,0,0-.94,0,.49.49,0,0,0-.3.71c.15.25.51.28.77.28a1,1,0,0,0,.81-.35.38.38,0,0,0-.06-.46.92.92,0,0,0-.93-.22.26.26,0,0,0-.06.47,1,1,0,0,0,.26.12l.1,0s0,0,0,0A.4.4,0,0,0,55,77h0l-.24-.57a.31.31,0,0,1-.26.1h-.22q-.1,0,0,.06v.12a1.09,1.09,0,0,0-.08.15.28.28,0,0,1,.37,0v-.58c-.09.09-.23.26-.37.22l.14.08,0,0s0,.1,0,.16v-.06l-.05.17s.06,0,.07,0h.17l-.08-.55-.4.22a.24.24,0,0,0-.08.31Z"/><path class="cls-15" d="M54.91,76.8h0c-.07,0-.11.09-.12.15a.28.28,0,0,0,.15.27c.12.09.26,0,.23-.18a.26.26,0,0,0-.39-.16.16.16,0,0,0,.17.28l.08,0c.19,0,.13-.29,0-.3a.55.55,0,0,0-.55.34.1.1,0,0,0,.15.11l.19-.1a.78.78,0,0,1,.21,0c0-.1,0-.21,0-.31l-.08,0c0,.1,0,.2.08.3l-.09,0,.24-.18s0-.1,0-.12a.25.25,0,0,0-.14,0Z"/><path class="cls-15" d="M61.8,74.72a.51.51,0,0,0-.15-.24.33.33,0,0,0-.4,0,.23.23,0,0,0,0,.36.27.27,0,0,0,.4,0,.28.28,0,0,0,0-.4c-.12-.1-.35-.08-.38.1a.3.3,0,0,0,.29.36.23.23,0,0,0,.24-.29.13.13,0,0,0-.17-.09c.05,0,.06,0,0,0s0,0,.06.07v.12s0-.07,0-.1l-.35.2h0l-.08-.09v0l0-.11.1-.14h.1l.1,0h0c0,.12,0,.24-.05.36s.06,0,.1,0,.1,0,0,0,0,0,0,0a.12.12,0,0,0,.2-.12Z"/><path class="cls-15" d="M61.42,73.2s0-.07-.06-.1L61.25,73a.18.18,0,0,0-.22,0h0a.14.14,0,0,0,0,.14v0a.18.18,0,0,0,.13.12.58.58,0,0,0,.14,0l.11,0a.1.1,0,0,0,.06-.14Z"/><path class="cls-15" d="M43.06,75.61c1.5,2.07,2.81,4.27,4.26,6.38a.05.05,0,0,0,.09,0,35.58,35.58,0,0,0-4.34-6.34Z"/><polygon class="cls-15" points="98.61 90.37 115.88 85.94 115.52 87.83 99.28 91.82 98.61 90.37 98.61 90.37"/><path class="cls-12" d="M75.78,87.73A62.38,62.38,0,0,0,63.1,84.57l-.35-1.11a55.5,55.5,0,0,1,13,4.27Z"/><path class="cls-15" d="M100.3,82.77a.89.89,0,0,0-.36-.07.17.17,0,0,0-.16.2.43.43,0,0,0,.77.13c.22-.37-.24-.83-.59-.53a.42.42,0,0,0-.11.5.43.43,0,0,0,.49.17.8.8,0,0,0,.22-.13.31.31,0,0,0,0-.31.41.41,0,0,0-.47-.27.32.32,0,0,0-.26.19.19.19,0,0,0,.06.24.28.28,0,0,0,.2,0s.12-.07.12,0l.06-.13c-.07.06-.1,0-.06.09s0,0,0,0h-.07s0,0,0,0-.08-.06-.11-.1a2.25,2.25,0,0,1,0,.22.39.39,0,0,1,.26-.12.06.06,0,0,0,0-.11Z"/><path class="cls-15" d="M102.52,83.36c0-.14-.17-.19-.23-.06a.16.16,0,0,0,.09.2c.08.06.14.14.25.12a.29.29,0,0,0,.25-.4c-.1-.21-.38-.14-.48,0a.16.16,0,0,0,0,.15v0a.13.13,0,0,0,.1.12s0,0,0,0a.09.09,0,0,0,.11-.08h0l0,.06a.14.14,0,0,0,.07-.1l-.09.1s.11,0,.1-.07l0,0a.08.08,0,0,1,0,0l.1.06a.26.26,0,0,0-.09-.09s-.2-.08-.2,0,.14.11.15,0Z"/><path class="cls-15" d="M96.58,79.42c0,.25.42.22.59.13a.17.17,0,0,0,.06-.22.37.37,0,0,0-.62-.06c-.09.15,0,.43.21.34,0,0,0,0,.05-.08s0,0,0,0,0,0,0,0l.11.06v-.28a.08.08,0,0,1-.09,0c-.07,0-.1-.06-.18-.06a.15.15,0,0,0-.15.2Z"/><path class="cls-15" d="M98.94,82a.7.7,0,0,0,.27.81,1.21,1.21,0,0,0,1,.22l-.37,0,.06,0a.68.68,0,0,0,.91-.24.89.89,0,0,0-.4-1.23,1.08,1.08,0,0,0-1.24.17,1.11,1.11,0,0,0,.58,1.85A1.08,1.08,0,0,0,101,82.21a.94.94,0,0,0-1.7-.14.62.62,0,0,0,.22.83.61.61,0,0,0,.83-.22c-.17.31-.61.1-.59-.2a.25.25,0,0,1,.3-.23c.15,0,.2.19.22.32-.18.35-.19.4,0,.16a.43.43,0,0,1-.24.17h-.23a.55.55,0,0,1-.15-.08l.09.07a.59.59,0,0,0,.18.13c-.08-.08-.17-.16-.24-.24s0,0,0,0l.29-.71a.67.67,0,0,1-.63-.19.21.21,0,0,0-.35.09Z"/><path class="cls-15" d="M102.56,82.89a.38.38,0,0,0-.31,0,.4.4,0,0,0-.17.43c.06.37.52.38.78.22a.38.38,0,0,0,.13-.51.53.53,0,0,0-.58-.22.55.55,0,0,0-.39.48.37.37,0,0,0,.26.35.36.36,0,0,0,.41-.17c0-.08,0,0,0,0a.22.22,0,0,1-.3-.09c0-.17.09-.34.13-.51,0,0,0,0,0,0a.17.17,0,0,1,.18,0l.13.13v0a1.46,1.46,0,0,1,0,.2.4.4,0,0,0-.26-.39Z"/><path class="cls-15" d="M110,81.23c0,.29.25.48.5.55a1,1,0,0,0,.74-.09.5.5,0,0,0,0-.85,1,1,0,0,0-1-.21.81.81,0,0,0-.5.76.7.7,0,0,0,.74.67,6.39,6.39,0,0,0,1-.24.5.5,0,0,0,.21-.83,1.1,1.1,0,0,0-1.33-.17.53.53,0,0,0-.22.56.49.49,0,0,0,.67.31l.07,0s.07,0,.09,0,0,0,0,0-.06,0,0,0c.07-.28.14-.55.22-.83l-.4.07c-.09,0-.32,0-.4.07s.38.32.38.35a.27.27,0,0,1-.15.22.17.17,0,0,1-.14,0l.07,0,.13.07c0-.26-.06-.52-.1-.77,0,0,0,0,0,0a.53.53,0,0,0-.35,0,.38.38,0,0,0-.27.36Z"/><path class="cls-15" d="M96.64,79.64a1.72,1.72,0,0,0,.68.36.55.55,0,0,0,.67-.67.79.79,0,0,0-.76-.53.69.69,0,0,0-.71.53.49.49,0,0,0,.33.58.57.57,0,0,0,.73-.49.3.3,0,0,0-.37-.28h0a.17.17,0,0,1,.13,0h0a.21.21,0,0,1,.12.17l-.21.53a.32.32,0,0,1-.16,0l.16,0c.14,0-.1,0,0,0-.09,0-.11,0-.06,0l-.05,0a.34.34,0,0,1-.12-.12,1.13,1.13,0,0,0,.1.13l.24-.91a.42.42,0,0,1-.12,0c.07,0,0,0,0,0h-.11c.08,0,0,0,0,0a.4.4,0,0,0-.46.19.41.41,0,0,0,.06.49Z"/><path class="cls-15" d="M95.47,77.46c-.26,0-.35.3-.26.48a.25.25,0,0,0,.37.07.26.26,0,0,0,0-.38h0l.06.11s0,.12,0,.08a.28.28,0,0,0,0-.13.22.22,0,0,0-.22-.22Z"/><path class="cls-15" d="M100.69,79.57h0a.27.27,0,0,0-.13.49l0,0a.28.28,0,0,0,.41-.17.27.27,0,0,0-.26-.35Z"/><path class="cls-15" d="M72,80.34c.48.55,1.37,0,1.35-.63a.87.87,0,0,0-1.48-.51.62.62,0,0,0,0,.86,1.64,1.64,0,0,0,1.45.41.93.93,0,0,0,.79-1.2,1.58,1.58,0,0,0-1.44-.84,1.07,1.07,0,0,0-1.05,1.32c.28,1,2.19,1.23,2.54.15a1,1,0,0,0-.61-1.2A1.72,1.72,0,0,0,72,78.51a1,1,0,0,0-.61,1.41,1.09,1.09,0,0,0,1.57.26.56.56,0,0,0,0-.79.74.74,0,0,0-.55-.23s-.09,0-.06,0l.07.57s.1,0,.14,0a2.17,2.17,0,0,1,.26,0H73l.08.05s0,0,0,0v-.3c.26-.13.3-.18.12-.16h-.12l-.24-.07c.22.4.2.63-.08.69l.13,0c.24.16,0-.06.18.08a2.54,2.54,0,0,1-.16-.28.19.19,0,0,0,0,.07v-.32l0,.07.16-.27q.14,0,0,0h-.07a.45.45,0,0,1-.25-.12v.86a.33.33,0,0,1-.51-.13v-.31s0,0,0,.06l.15-.26c.06-.08.52-.14.06-.1a.6.6,0,0,0-.42,1Z"/><path class="cls-15" d="M64,76.22a.51.51,0,0,0,.21.29.72.72,0,0,0,.35.08.3.3,0,0,0,.26-.44.64.64,0,0,0-.52-.3.3.3,0,0,0-.29.2.31.31,0,0,0,.06.34.56.56,0,0,0,.72.1.3.3,0,0,0,0-.51c-.23-.1-.59-.06-.58.27a.22.22,0,0,0,.17.21.23.23,0,0,0,.11,0c.08,0-.06,0,0,0,0-.18,0-.36.08-.54-.06,0,0,0,0,0s-.09-.06,0,0c-.07.19-.15.37-.22.55,0,0,0,0,0,0h0l.09.08v-.43a.16.16,0,0,1-.2,0c-.09-.11-.27,0-.23.14Z"/><path class="cls-4" d="M136.3,25.69h0l.37.87.41,1h0c.33.8.66,1.6,1,2.41v0h0l.33.89.16.41h0l.19.5c1,2.7,1.91,5.45,2.77,8.21,2.2,7.09,4,14.34,5.65,21.59.24,1.1.48,2.2.71,3.3L159.66,26l21.89-1.88L157.5,85.52l1.5-.58-.3,5.61,2.36-.76,2.69-.89-.44,2.8a19,19,0,0,1-1.06,3.91l-.32.82-.86.22a42.82,42.82,0,0,1-4.63.85c-4.81.68-9.7,1.13-14.54,1.57l-2,.18.22-3.11-.81.12-.55-2.46-.31-1.16a290.81,290.81,0,0,0-12.86-38.18,153.84,153.84,0,0,0-7.31-15.07,83.84,83.84,0,0,0-8.51-12.68l-.81-1-1.5,1.08-1-1.62c-.81-1.36-.1-4.23.34-5.64l.21-.69.64-.34a63.11,63.11,0,0,1,17.26-6.41c1.12-.22,2.24-.42,3.37-.59l1.47-.23,1.49,4.8-1.64.52-1.15.38,1.74-.26,1.07-.15.61.89a52.78,52.78,0,0,1,4.41,8.22Z"/><path class="cls-16" d="M111.08,25.6c14.41,17.33,24.32,49.13,29,66.59l.05,0,.48,2.14c1.72-.26,11.19-2.12,16.38-4.55l.12-2.25c-1.9.74-10.19,2.7-14.84,3.89l12.91-4.75,23.73-60.58-18,1.54L147.53,72s-.56-3.14-1.6-8a249.89,249.89,0,0,0-8.8-31.66l-15.29,7.57,14.61-9.35c-.37-.95-.74-1.88-1.12-2.78L127,30.25s4.29-2,7.87-3.6a52.35,52.35,0,0,0-4.38-8.21c-6.11.9-9.11,1.29-19.38,7.16Z"/><path class="cls-6" d="M157.52,80.74l18.94-48.35c-2.67,1.49-5.36,2.93-8.11,4.27-1.72.83-3.45,1.66-5.16,2.51q-3.41,1.69-6.77,3.47L152.1,56.9l1.34-.63,4.08,24.47Z"/><path class="cls-4" d="M170.79,89.8q-2.39-.33-4.74-.51l-1.47-.11-.4-4.86-3.92-.43-1.3-.14L154,54.12l-6.46,3,6.75-15.22.53-.28c3-1.57,5.93-3.12,8.93-4.62,1.71-.85,3.43-1.67,5.15-2.51,4.77-2.32,9.36-4.94,14-7.59l1.41-.82a48.83,48.83,0,0,0,6.24-4.46l1.91-1.6.83,2.36c1.5,4.32,3.07,10.29,1.82,14.87a7.53,7.53,0,0,1-2.89,4.4l-.09.07a1.43,1.43,0,0,1-.22.15l-.13.06-.08,0-.07,0-.17.07-.58.21-2.08.76q-3.53,1.27-7,2.59c-2.37.88-4.74,1.78-7.07,2.74h0l1.2,7.45c1.76-.6,3.54-1.21,5.31-1.8,1.41-.46,2.82-.93,4.23-1.36a25.85,25.85,0,0,1,3-.82l1.77-.35,2.71,18-14.31,2.24.1.7L196.84,76,206,68.56l-6.82,30.5-2.2-2-1.4-1.22.08,4.29L193.16,99a52.27,52.27,0,0,0-9.11-3.09c-4-1-8.13-1.79-12.22-2.45L170,93.17l.79-3.37Z"/><path class="cls-17" d="M155.65,43.16,151,53.62l13.07-6.11-8.54,5.22,4.9,29.45c16.13,1.77,24.7,2.1,37.7,13.64l5.09-22.77-5.92,4.83L177,73.94l-.27-1.8L159.91,79l-.12-.76,16.91-6.57,0-.38L159.6,77.12l-.09-.52,17.14-5.32-.14-1,14.31-2.23-2.19-14.56c-2.31.45-14.2,4.6-14.2,4.6l-1.2-7.48-6.6,1.91,6.47-2.71-.23-1.42-9.2,2.66,9-3.78h0l1.31-.54h0c5.52-2.27,17.73-6.63,17-6.39.41-.32,5.67-2.92.62-17.42a50.42,50.42,0,0,1-7.89,5.45c-16,9.2-12,6.21-28.09,14.75ZM172.5,90c7.64,1.39,15.21,2.83,21.35,5.4l0,2c-5.14-2.41-12.7-4.23-21.79-5.68l.4-1.72Zm-6.65-6.45s21.67,3.94,25.78,8.79l-.91.79c-5.15-2.89-17.68-5.07-24.54-5.6l-.33-4Z"/><path class="cls-6" d="M165.85,83.59c4.08,1.11,23.31,6.52,25.33,9.18l.45-.39c-4.11-4.85-25.78-8.79-25.78-8.79Z"/><path class="cls-6" d="M198.83,92.72l4.4-19.67-5.92,4.83-6.49-1.26.51,3.09.07,0,.61,5.81,1.85,1-1,2.3,6,3.9Zm-9.4-24.4,1.39-.22-2.19-14.56c-.92.18-3.36,1-6,1.8l.26,2.07,4.43-1.62,2.08,12.53Zm0-27.36,1.59-.58a5,5,0,0,0,1.63-1.7l-.1,0L189.42,41Zm3.45-2.69a8,8,0,0,0,.58-1.6l-1.15.89.57.71Z"/><path class="cls-18" d="M161.52,81.38s18.12.13,25.45,4.93A91.11,91.11,0,0,1,197.43,94l.33-2-4.88-3.2.87-2a1.81,1.81,0,0,0-.62-.46c-.7-.24-1.93.36-2.86-1.2s-1.67-5.37-3.73-4.7-4.23,1.23-5.3-.07-2-1.63-3.13-1.13a7.67,7.67,0,0,1-5.23-.57,1.94,1.94,0,0,0-2.5.1,2,2,0,0,1-1.93.52c-.67-.23-.9-1.05-1.52-.47a3.58,3.58,0,0,1-3.21.94c-1.58-.25-3-.15-2.2,1.65Z"/><path class="cls-4" d="M211.37,37.26,235,28.63,239,35l-.22.48A45.67,45.67,0,0,0,235,50.64a91.17,91.17,0,0,0,1,19.45c.95,7,2.2,14,3,21.08l.22,2,1.12,5-14.92,3.37-1.71-3.82-.8.24-.83-2c-1-2.48-2.13-4.93-3.24-7.37q-2.09-4.65-4.24-9.25-1.71-3.7-3.45-7.38c.44,3.09.86,6.19,1.28,9.29l.19,1.45-2.45,1.73h0l3,1.17,4.38,11.89-3.74-1.95,1.13,6.21L193.8,87.9l1-2.3-1.85-1-.61-5.81-.07,0-4-23.92-4.42,1.62-.38-3c-.25-2-.54-4.07-.84-6.1l-.21-1.44,11.05-8.18.83.25-1.07-1.34,1.85-1.43c1.22-1,2.46-1.9,3.7-2.83l2.2-1.63c.56-.4,1.12-.81,1.71-1.17l.77-.46a10.92,10.92,0,0,1,3.87,1.36l.36.23,1.47-.8,2.22,7.35"/><path class="cls-19" d="M236.58,91.43,224.31,95c-4.22-10.14-16.94-36.68-17.07-36.95l-1.32-2.75.61,3c1.08,5.3,3.2,21.17,3.47,23.25L208,83l-13.54-5.92-1.5-9,14.55-3.71-14.67,3-2.63-15.78-4.31,1.57c-.23-1.92-.71-5.27-.84-6.16l22.43-13.39,6.65,31.13.07-26.48c2-.78,16.42-6.26,22.4-7.9v4.16c-8.15,18.18-2.2,36.51,0,56.91Z"/><path class="cls-6" d="M236.58,91.43l-3.75,1.1c-5.37-12-15.73-38.41-5.3-49.65l-.07-.06.37-.32-.05,0,1.16-.94.5-.45,0,0,.95-.82.05,0a34.93,34.93,0,0,1,5-3.06c-6.44,17.29-1,34.79,1.12,54.17Z"/><path class="cls-4" d="M228.81,40.24l-.08-.06.38-.32-.05,0,1.17-.94.49-.45,0,0,.95-.82.05,0a36.12,36.12,0,0,1,5.19-3.16l1.72-.86,0,0c1.72-.77,3.5-1.43,5.29-2a92.15,92.15,0,0,1,14.76-3.43q2.68-.42,5.39-.69c.93-.09,1.95-.2,2.88-.2h.93l.51.78a7.56,7.56,0,0,1,.67,1.37c.29.68.57,1.37.85,2.05.75,1.83,1.52,3.65,2.37,5.43a24.37,24.37,0,0,0,3.48,5.73l1.69,1.79-2.27,1c-1,.42-2,.84-3,1.24-4.09,1.66-8.3,3.21-12.48,4.63l-1.46.49-3.37-7.15-.35.16c-1,.42-1.94.91-2.88,1.42a38.4,38.4,0,0,0-7.18,5l-.05,0-.09.08a5.86,5.86,0,0,0-.62.7c-2.12,2.88-1.46,7.81-.63,11a31.92,31.92,0,0,0,2.94,7.46c.39.72,1.8,3,2.57,3.39a38.83,38.83,0,0,0,8.5,1.42,56.17,56.17,0,0,0,9.08,0,27.8,27.8,0,0,0,3.76-.59A20.62,20.62,0,0,0,268.43,73a17.76,17.76,0,0,0-7.4,1l-1.07.37-.77-.83a4.61,4.61,0,0,0-1.06-.91l-1.38-.77-.64.14q-1.23.28-2.46.63l-1.22.34-.69-1.07c-2.21-3.43-1.72-7.81-.38-11.46l0-.05,1.07-2.49.83-.21c1.2-.3,2.49-.51,3.71-.72,1.81-.3,3.64-.57,5.46-.82s3.82-.5,5.74-.67a19.32,19.32,0,0,1,4-.09,5.89,5.89,0,0,1,4.15,2.41A24.26,24.26,0,0,1,278,60.4c.75,1.28,1.49,2.56,2.27,3.82A48.34,48.34,0,0,0,287,73.08c2.48,2.46,5.88,5.24,9.17,6.55l3.25,1.3-3,1.79c-2.1,1.25-4.22,2.47-6.34,3.68-2.54,1.44-5.1,2.86-7.68,4.22-.92.49-1.86,1-2.8,1.44a9.6,9.6,0,0,1-1.82.76l-1.46.34-.54-1.4-.45-1.1a18.87,18.87,0,0,0-1.65-3.11,13.14,13.14,0,0,0-1.81-2.24c-3.48-.52-14.07,1.5-17.56,2-3.86.55-7.73,1.32-11.53,2.21-2.12.5-4.36,1-6.44,1.69l-1.47.46-.63-1.4c-5.31-11.81-16-38.66-5.46-50Zm8.69,56.2-1.67-5,1.71-.51c.82-.25,1.72-.43,2.56-.61,1.51-.32,3-.62,4.56-.89,4.2-.77,8.45-1.41,12.69-1.88A78,78,0,0,1,270,87h.13l.13,0c2.3.48,4,2.87,4.54,5l.68,2.55-2.61-.39a12.08,12.08,0,0,0-1.35-.1c-.82,0-1.65,0-2.47-.05-2.46,0-4.93.07-7.39.18-6.79.28-13.62.83-20.36,1.67l-2.41.32-1.42.2Zm29.63-70.58a46.34,46.34,0,0,0-5.74.8c-2.46.46-4.91,1-7.33,1.62-2.69.67-5.37,1.42-8,2.26a38.34,38.34,0,0,0-5.52,2.12l-1.67.86-.72-1.74c-.79-1.92,1-6.12,1.8-7.87l.31-.65.68-.24a87.15,87.15,0,0,1,16.82-4.19c1.75-.24,3.5-.4,5.26-.51,1.1-.07,2.23-.1,3.32-.22l1.7-.19.91,7.84-1.82.11Z"/><path class="cls-20" d="M230.81,40.69,235,43.93h0l8.31,6.12c-6.94,6.29,1.33,24.52,4.81,25.59,9.15,2.82,25.75,1.68,24.11-.72a25.64,25.64,0,0,0-3-3.59,19.48,19.48,0,0,0-8.76,1.06A6.52,6.52,0,0,0,259,71.14a29.7,29.7,0,0,1,7-1.2,26.58,26.58,0,0,1,3.57.3,20.2,20.2,0,0,1,5.94,1.84,18.87,18.87,0,0,0-7.31-2.68,19.36,19.36,0,0,0-2.23-.22,39.69,39.69,0,0,0-10.27,1.16c-.87.2-1.72.42-2.53.65-2.13-3.32-1.06-7.61-.2-9.94l.71-1.67c2.81-.7,15.78-2.64,18.25-2.26a4.11,4.11,0,0,1,3,1.76c3.35,4.32,3.14,9.77,9.09,15.61,3.58,3.5,7,5,11.48,6.75-6.47,3.87-16.91,9.61-18.14,9.9-.92-2.36-2.7-5.59-4-6.71-.37-.32,8.34-1.57,8-1.62-5.59-.87-39.35,4.78-45.57,6.74-4.83-10.73-16.21-38.73-5-48.86Zm12.51,9.36-8-6.46.31-.32-.31.32-4-3.41.37-.31c1.36,1.06,2.71,2.14,4,3.24h0l1,.81h0l-.95-.82h0c-.64-.55-1.27-1.11-1.9-1.67a22.51,22.51,0,0,0-2-1.7,32.58,32.58,0,0,1,5.77-3.65h0l.15-.08c11.29-5.56,27.32-6.91,29.15-6.92.73,1.11,4.1,11.14,7.54,14.81-6.84,2.95-15.33,5.82-15.33,5.82l-3.36-7.1c-.39-.18-7.17,2.59-12.53,7.44Z"/><path class="cls-6" d="M275.12,59.05c3.22,4.29,3.09,9.68,9,15.44,3.58,3.5,7,5,11.48,6.75-3.42,2-7.94,4.6-11.62,6.61-.55-3.1-.32-1.52.23-4.1l-3.72-.4-1.2-.14a18.49,18.49,0,0,0,2.17-.4,13.29,13.29,0,0,0-2.35-.08l-3.95-23.68Zm-7-12.58,3.29-7.41a22.2,22.2,0,0,0,3.12,4.82c-2.08.9-4.31,1.79-6.41,2.59Z"/><polygon class="cls-12" points="195.32 76.59 207.43 81.8 208.3 80.75 195.32 76.59 195.32 76.59"/><polygon class="cls-12" points="225.38 95.99 236.84 92.79 236.56 91.61 225.38 95.99 225.38 95.99"/><path class="cls-12" d="M199.23,39.28c1.38-.67,2.74-1.36,4.11-2.05A21.24,21.24,0,0,0,207,35.31c.12-.09,0-.29-.14-.25A21.71,21.71,0,0,0,203.21,37c-1.34.73-2.67,1.48-4,2.23,0,0,0,0,0,0Z"/><path class="cls-12" d="M215.59,38.06c6.65-2.29,13.38-4.3,20.11-6.36a.23.23,0,0,0-.13-.45c-6.75,1.93-13.42,4.31-20,6.79,0,0,0,0,0,0Z"/><path class="cls-14" d="M217.4,40.29s-.23.27-.18.45a106.61,106.61,0,0,0,10.61-2.63c.11-.24.79-1.23.79-1.23L217.4,40.29Zm-2.06-.39L235,34.11V32.8l-19.65,6.71,0,.39Z"/><polygon class="cls-14" points="205.61 64.14 193.39 66.42 193.51 64.2 205.73 63.38 205.61 64.14 205.61 64.14"/><path class="cls-15" d="M194.33,69.52l1,7.07,12.92,4.16s-1.11-11.58-1.46-11.87-.41-.59-3-.06-3.39.93-5.09.7a11.41,11.41,0,0,0-2.28-.29,9.05,9.05,0,0,0-2.1.29Z"/><path class="cls-15" d="M202,68.58a.48.48,0,0,0-.43.82.44.44,0,0,0,.54.07,2.17,2.17,0,0,1,.3-.08,1.26,1.26,0,0,0,.32-.18.38.38,0,0,0,0-.65,1.49,1.49,0,0,0-1.17-.1c-.26.09-.64.37-.49.69s.63.24.91.21.74-.14.83-.49c.2-.86-1.36-.7-1.75-.39s-.11.58.11.75a.79.79,0,0,0,1-.09c.06-.08.06-.25-.07-.27s-.74.13-.65-.09l-.12.16a1.34,1.34,0,0,1,.48-.11s.47.07.48.06h0c0-.13,0-.16-.08-.1s-.17.07-.23.08a1.74,1.74,0,0,1-.49,0,1.11,1.11,0,0,0,.07.16c0-.06.38,0,.43,0a1.11,1.11,0,0,1,.38.18c0-.2,0-.39-.08-.59a.34.34,0,0,1-.25.13l.25.1a1,1,0,0,0-.22-.19l.16.16v0c0,.11,0,.22,0,.33s0,0,0,0a2.35,2.35,0,0,0-.19.25l0,0a.4.4,0,0,0-.1-.73Z"/><path class="cls-15" d="M204,68.6c.11.1.21.07.33.12s.4-.29.18-.42l-.17-.07c-.26-.1-.42.3-.19.43a.39.39,0,0,0,.3,0h-.12a.63.63,0,0,0,.27,0,.23.23,0,0,0,.19-.33.42.42,0,0,0-.79.17.19.19,0,0,0,.18.19.51.51,0,0,0,.42-.19c.06-.08,0-.2-.12-.2a2.83,2.83,0,0,1-.3,0l.18.23s0,0,0,0h.08c.08,0,.07,0,0,0s.09-.21.13-.32h-.09l.09.06a.49.49,0,0,0-.14-.11c-.06.15-.13.29-.19.44l.12,0-.16-.16a.08.08,0,0,0,0,0,1.09,1.09,0,0,1,.08-.15.37.37,0,0,1-.18,0c-.08,0-.16.08-.09.14Z"/><path class="cls-15" d="M199.27,68.57c0,.13.09.22.21.25h.1s.1,0,0,0,.09,0,.14,0a.21.21,0,0,0,.11-.1.2.2,0,0,0-.17-.29.46.46,0,0,0-.26,0,.16.16,0,0,0,0,.26.23.23,0,0,0,.38-.15.23.23,0,0,0-.4-.14.17.17,0,0,0,.25.24l.11-.06c.07,0,0-.12,0-.14l-.09,0v.24l-.13,0-.08-.1h0a.61.61,0,0,0,0-.12h.12c0,.1-.11.19-.16.28a.4.4,0,0,0,.26.06l-.16-.29a.25.25,0,0,0,0,.2l0-.12s0,0,0,0h0l-.1,0a.08.08,0,0,0-.1.06Z"/><path class="cls-15" d="M206.17,67.47s-.06-.08-.1-.1a.27.27,0,0,0-.15,0c-.1,0-.18.14-.09.21a.3.3,0,0,0,.15.07.61.61,0,0,0,.18-.05c.05,0,.05-.07,0-.1Z"/><polygon class="cls-15" points="197.03 86.17 211.06 93.5 211.68 96.88 196.67 87.03 197.03 86.17 197.03 86.17"/><polygon class="cls-15" points="195 81.09 195.21 83.08 213.05 92.41 211.22 87.47 195 81.09 195 81.09"/><polygon class="cls-12" points="195 81.09 210.12 88.06 213.05 92.41 211.22 87.47 195 81.09 195 81.09"/><polygon class="cls-12" points="197.03 86.17 210.12 94.08 211.68 96.88 211.06 93.5 197.03 86.17 197.03 86.17"/><path class="cls-15" d="M207.05,55.16l18,38.33,7.31-2.07c-.46-1-.94-2.15-1.43-3.35a4.9,4.9,0,0,1-3-1.51c-.61-.87-3.42-1-3.42-3S222,81,221.17,80.16s-14.12-25-14.12-25Z"/><polygon class="cls-21" points="225.38 95.99 236.84 92.79 237.66 96.49 226.7 98.96 225.38 95.99 225.38 95.99"/><path class="cls-15" d="M227.6,85.21c-.1,0-.1,0-.21,0a.25.25,0,0,0-.24.31c0,.34.47.44.75.47a.37.37,0,0,0,.36-.27.83.83,0,0,0-1.22-.88.39.39,0,0,0-.14.53c.12.19.16.35.36.48a1.3,1.3,0,0,0,.7.12c.4,0,.83-.18.75-.68-.13-.73-1.66-1.1-1.81-.19s1.27,1.32,1.81.76a.64.64,0,0,0-.13-1c-.26-.21-.66-.4-.91-.06-.06.09.05.17.13.16s.66.31.57.54-.73.16-.93-.05-.09-.28.09-.28a.73.73,0,0,1,.3.07c.1,0,.36.14.13.18s-.42,0-.41-.17l-.16.29c.08,0,.13.1.15.18l.26-.46c-.16,0-.3-.07-.48,0l.31.3a2.33,2.33,0,0,0,.07-.25s0-.1-.1-.1Z"/><path class="cls-15" d="M226,83.48a.23.23,0,0,0-.33.08.28.28,0,0,0,.12.38.45.45,0,0,0,.45,0,1,1,0,0,0,.2-.15.27.27,0,0,0,0-.26.65.65,0,0,0-.91-.16c-.31.32.17.78.52.66a.36.36,0,0,0,.24-.49.33.33,0,0,0-.51-.09c-.15.12,0,.41.2.34s0,0,0,0,0,0-.06-.07l-.06,0-.06.05s.07,0,.07,0,.28,0,.32.09v-.16a.26.26,0,0,1-.18.12.1.1,0,0,1-.07,0s0-.09,0-.08a.07.07,0,0,0,.06-.13Z"/><polygon class="cls-12" points="234.52 90.81 225.03 93.49 224.56 92.44 234.52 90.81 234.52 90.81"/><path class="cls-15" d="M201.35,68a.7.7,0,0,0-.44.5.45.45,0,0,0,.31.55,1.74,1.74,0,0,0,.68.07c.21,0,.39-.1.59-.13a.72.72,0,0,0,.43-1.06,1.2,1.2,0,0,0-1.35-.49,1.65,1.65,0,0,0-1.08.65,1,1,0,0,0,.33,1.31,1.44,1.44,0,0,0,1.26.17,2,2,0,0,0,1.11-.7c.29-.51-.16-1.07-.64-1.23s-1.05.09-1,.64a.53.53,0,0,0,.28.42c.1.06.22.13.11,0s-.05,0,0,0l.15.19c-.06-.1-.12-.19-.17-.29a.13.13,0,0,0,0,.06l.06-.51c.1-.13-.07,0-.11,0l-.14.07a.65.65,0,0,1-.23.06c-.06,0,.11.07,0,0l.22.23c-.06-.1-.06-.07,0,.07s-.07.29-.2.32c.09,0,.25-.09.34-.1s-.16,0,0,0a.9.9,0,0,0,.45.13l-.49-.85,0,.07L202,68a.9.9,0,0,1-.64.13l.44.56a1.42,1.42,0,0,0,.05-.36.38.38,0,0,0-.48-.37Z"/><path class="cls-15" d="M199.11,68.47c0,.11.07.18.11.28a.34.34,0,0,0,.47.12.36.36,0,0,0,.12-.47c-.14-.32-.62-.37-.92-.31a.41.41,0,0,0-.3.39.6.6,0,0,0,.47.56.61.61,0,0,0,.66-.29.39.39,0,0,0-.14-.52.37.37,0,0,0-.51.13.32.32,0,0,0,.06.46l-.06-.46s.19-.12.12-.1a.2.2,0,0,1,.11,0s0,0,0,0,0,0,0,0l0,0c-.09-.09.06.18,0,.07-.09.17-.18.34-.28.5,0,0,.12,0,.05,0h.16a.73.73,0,0,0,.2,0c-.11-.12-.22-.23-.34-.34h0a.75.75,0,0,1,0-.16l0,0,.08-.08h-.07a.07.07,0,0,0-.09.07Z"/><path class="cls-15" d="M196.29,68.64a.29.29,0,0,0,0-.58.29.29,0,0,0,0,.58Z"/><path class="cls-15" d="M205.8,67.71a1.26,1.26,0,0,0,.27,0v-.44a.15.15,0,0,1-.09,0,.23.23,0,0,0-.27.16.24.24,0,0,0,.16.27.64.64,0,0,0,.2,0c.28,0,.28-.45,0-.44l-.27,0a.19.19,0,0,0,0,.36Z"/><path class="cls-8" d="M275.73,36.2a.39.39,0,0,0,.17.45.34.34,0,0,0-.09-.08l0,0a.28.28,0,0,0,.43.06c.24-.29,0-.67-.27-.84a.36.36,0,0,0-.54.31.74.74,0,0,0,.22.6.52.52,0,0,0,.73,0c.43-.43-.08-1.16-.63-1a.36.36,0,0,0-.16.6.55.55,0,0,0,.19.12s0,0,0,0h0c.06.06,0,0,0,0s0-.11,0-.17a.24.24,0,0,1,.35-.08s.05.08,0,0l0,0s0-.06,0-.07l-.44.44,0,0s0,0,0,0a.46.46,0,0,0,.16.18c0-.15,0-.29-.05-.44l0,0,.23-.06s0,0,0,0a.17.17,0,0,0-.34,0Z"/><path class="cls-8" d="M274.3,35.19a.33.33,0,0,0,.25.44.26.26,0,0,0,.33-.25.51.51,0,0,0-.26-.47.31.31,0,0,0-.45.18.42.42,0,0,0,.38.52.23.23,0,0,0,.23-.18.25.25,0,0,0-.11-.27.14.14,0,0,1,0,.22l-.37,0s.06,0,.06,0l.12-.29c-.05,0,0,0,0,0h0c-.06,0-.15,0-.18,0Z"/><path class="cls-4" d="M317.14,93.59l1.21.68,1.06.61-1.14,6-2-.79c-5-2-10.08-3.95-15.17-5.73-2.65-.92-5.33-1.82-8-2.59a31.23,31.23,0,0,0-5.7-1.26l-1.34-.1c-1.11-6.3-1.44-3.79-.49-8.21l-3.73-.4-1.3-.15-5.88-35.3-7.26,3.39L275,32.59l.53-.28,2.77-1.47c-.41-.31-.81-.69-1.18-1l-1.37-1.29-3.35,1.9-1,.58-3.16-2.53,1.49-1.36c1.22-1.13,2.55-2.2,3.84-3.25,1.8-1.47,3.63-2.91,5.46-4.35,2-1.56,4-3.12,6-4.65,1.3-1,2.62-2,4-2.95l2.15-1.51L291.7,13c.27,1.34.45,4.34-.12,5.62l9.73-5.82c2.39-1.42,4.78-2.86,7.18-4.26l2.39-1.39.2,2.76c.05.61.06,1.24.06,1.86s0,1.15,0,1.72a57.41,57.41,0,0,0,6.77-4.91l2.58-2.16.25,3.36c.25,3.49.4,7,.35,10.49a57.76,57.76,0,0,1-.44,6.84c-.2,1.49-.71,5.14-2.14,6l-.21.13-.23.07C314,34.49,310,35.75,306,37.09c-2.42.81-4.85,1.65-7.2,2.62l-.28.12h0L300,49.34c2.16-.7,4.32-1.41,6.46-2.14,1.6-.54,3.2-1.1,4.78-1.69a21.53,21.53,0,0,0,2.8-1.18l2.12-1.23,3.9,21.74-17,2.65.2,1.38,22,4.28,10.27-8.38L327.77,99.5l-2.19-2c-6.08-5.39-12.32-9.62-20.14-12-.56-.17-1.13-.34-1.69-.49,2.07.79,4.1,1.67,6.07,2.61a72,72,0,0,1,6.73,3.55l1.39.84-.8,1.54Z"/><path class="cls-22" d="M276.36,33.83l-5.5,12.4L286.36,39l-10.14,6.19L282,80.09c19.12,2.1,29.27,2.49,44.68,16.17l6-27-7,5.73-24-4.67L301.52,69l-20.11,7.29-.15-.9,20.06-7.79-.07-.45L281,74.09l-.1-.62,20.31-6.3-.17-1.12,17-2.65L314.9,45.83C312.55,47.19,280,58,280,58L298.37,50l-1.17-7.32L289.38,45l7.67-3.22-.27-1.68-10.92,3.16,10.7-4.48h0l1.55-.64h0c6.54-2.7,18.13-6.07,19.47-6.45.5-.32,2.62-5.23,1.42-21.78a57.47,57.47,0,0,1-9.35,6.46c-18.95,10.91-14.25,7.36-33.29,17.48Zm10.63,50c4.57.56,11.59,1.26,28.66,8.84,0,0-15.13-9.23-28.48-9.68l-.18.84Zm-.06,1.5a91.28,91.28,0,0,1,30.55,10.41L317,98.5s-22.65-9.18-29.42-9.7l-.61-3.45Z"/><path class="cls-23" d="M33.84,56.63l-.78-.38c2.58-3.73,13.1-16.44,15.33-18.88.47,1.06,1.19,3.73,1,4.46-.59,1.05-9.71,9.51-15.55,14.8Zm7.86-1.11a14.55,14.55,0,0,1-1.36-.73c8.46-8.08,23.21-22.13,26.2-24.91a31.82,31.82,0,0,1,.87,3.87c-1.93,1.78-23.3,19.81-25.71,21.77Z"/><path class="cls-23" d="M279.49,29.57c-.25-.19-.71-.59-1.17-1,10-6,27.51-16.48,31-18.53a32.46,32.46,0,0,1,0,4c-2.28,1.32-27.1,14.2-29.87,15.59Z"/><path class="cls-23" d="M271.57,28.92l-.68-.54c3.35-3.08,16.41-13.16,19.11-15a12,12,0,0,1,0,4.57c-.8.9-11.57,7.14-18.43,11Z"/><path class="cls-23" d="M129.1,15c-6.9,2.18-18.43,7.38-21.14,9.34-.26-.44-.12-2.2.51-4.26,8.44-4.41,13.82-5.86,20.09-6.82L129.1,15Z"/><path class="cls-24" d="M160.64,95c-1.16.3-4.39,1.07-18.89,2.37l.06-.8a166.81,166.81,0,0,0,19.79-5.12,17.33,17.33,0,0,1-1,3.55Z"/><path class="cls-6" d="M141.79,96.75l0-.2a166.81,166.81,0,0,0,19.79-5.12c0,.24-.09.54-.16.89-2.82,1.29-19.65,4.43-19.65,4.43Z"/><path class="cls-23" d="M267,24.14c-6.62.39-22.37,4.46-27.28,7-.31-.75.31-3.43,1.76-6.48,14.1-4.9,21.52-4.45,25-4.83l.51,4.32Z"/><path class="cls-23" d="M197.41,38.23l-.93-1.2c1.21-.94,6-4.62,7.39-5.47a7.5,7.5,0,0,1,2.24.88l-8.7,5.79Z"/><path class="cls-6" d="M238.69,94.53,238,92.59c2.27-.68,20.9-4.48,31.91-3.85,1.8.38,2.91,2.62,3.22,3.77-2.8-.42-19.13-.1-34.47,2Z"/><path class="cls-24" d="M238.69,94.53l-.63-1.86c5.29-1.18,20.68-4,30.28-3.45,1.31.28,2.62,1.88,3.35,3.18a227.06,227.06,0,0,0-33,2.13Z"/><path class="cls-18" d="M120.6,78.21s2.92,7,2.92,8c4.55,2.9,9.31,6.56,9.67,7.12.54-.4,1.58-3.62,1.58-3.62s.26-1.14-1.32-.64a2.42,2.42,0,0,1-3.1-1.9c-.12-.91-1.27-2.31-2.29-1.87a3.39,3.39,0,0,1-4.48-1.77c-1.12-2.67-1.82-4.65-3-5.35Z"/><path class="cls-15" d="M127.07,84.65a.62.62,0,0,0,.48.9c.48.08,1.12-.31.9-.85a1.15,1.15,0,0,0-.69-.55.86.86,0,0,0-.91.33.7.7,0,0,0,0,.47,1.06,1.06,0,0,0,.11.31.82.82,0,0,0,.71.32.4.4,0,0,0,.35-.28v0a.29.29,0,0,0,0-.33.43.43,0,0,0-.33-.15h-.06s0,0,0,0l0,0c0,.07,0,.08,0,0l-.12.27,0,0-.18.11s0,0,0,0a.43.43,0,0,0,.25-.07.1.1,0,0,1-.07,0c-.06,0-.06,0,0,0a2.1,2.1,0,0,0,.24.06c.06,0,.07,0,0,0s.06,0,0,0a1.18,1.18,0,0,0-.11-.19v0c0-.06,0-.13.05-.19s0,0,0,0,0,0,0,0,0,0,0,0l0,0s0,0,0,0a.27.27,0,0,0-.49-.21Z"/><path class="cls-15" d="M132.37,85.89s0,0,0,0a.41.41,0,0,1-.11.07h-.08l.21.07a.23.23,0,0,0,.28-.22.39.39,0,0,0-.06-.21c-.13-.26-.54,0-.39.23,0,0,0,0,0,0l.21-.28-.1,0a.3.3,0,0,0,.08.08l0,0c-.13-.3-.63,0-.43.25l0,0a.23.23,0,0,0,.35,0Z"/><path class="cls-15" d="M131.56,86.06c.49.55,1.38,0,1.36-.63a.87.87,0,0,0-1.48-.51.61.61,0,0,0,0,.86,1.62,1.62,0,0,0,1.44.41.92.92,0,0,0,.79-1.2,1.57,1.57,0,0,0-1.43-.84,1.08,1.08,0,0,0-1.06,1.32c.28,1,2.19,1.23,2.55.15a1,1,0,0,0-.61-1.2,1.74,1.74,0,0,0-1.52-.19,1,1,0,0,0-.6,1.41,1.08,1.08,0,0,0,1.57.26.57.57,0,0,0,0-.79c-.15-.12-.36-.28-.56-.23,0,0-.09,0-.06,0l.07.57s.11,0,.14,0a2.44,2.44,0,0,1,.27,0h.16l.09,0h0v-.3c.26-.13.3-.18.12-.16a.25.25,0,0,1-.12,0,2.08,2.08,0,0,1-.24-.06c.22.4.19.63-.08.69l.13.05c.23.15,0-.07.17.08l-.16-.28s0,0,0,.07v-.32l0,.07.15-.27q.15,0,0,0h-.07a.46.46,0,0,1-.24-.12v.86a.34.34,0,0,1-.52-.13v-.31a.13.13,0,0,1,0,.06l.15-.26c.07-.08.52-.14.06-.1a.61.61,0,0,0-.42,1Z"/><path class="cls-6" d="M123.52,86.24s9,6.21,9.67,7.12l.51-.8s-3.56-2.41-10.18-6.32Z"/><polygon class="cls-14" points="129.06 20.07 114.14 25.66 114.85 26.62 129.1 20.77 129.06 20.07 129.06 20.07"/><path class="cls-14" d="M117.52,26.05a3.23,3.23,0,0,0,.88.44c.22,0,11-4.36,11-4.36s0-.57-.18-.52-11.67,4.44-11.67,4.44Z"/><polygon class="cls-14" points="298.18 24.18 315.93 15.74 316.99 26.43 317.26 13.73 298.18 23.79 298.18 24.18 298.18 24.18"/><path class="cls-25" d="M71.09,35.43c8.09-4.86,15.94-8.85,21.79,1.08,0,0-6.56-9.64-21.79-1.08Z"/><path class="cls-25" d="M245.71,34s14.56-3.61,20.23-4.14A33,33,0,0,1,268.5,35l-2.64-3.76s-1.75-.6-20.15,2.76Z"/><polygon class="cls-14" points="173.16 36.84 190.1 26.86 192.09 37.41 191.24 24.74 173.12 36.44 173.16 36.84 173.16 36.84"/><polygon class="cls-14" points="177.53 26.84 161.69 28.43 162.12 29.54 177.4 27.53 177.53 26.84 177.53 26.84"/><path class="cls-15" d="M229.67,68.32a91.28,91.28,0,0,0,6.94,19c-.13,0,29-5,39-5.36,0,0-17.94-.38-19.76-.68s-.32-.24-3.09-.17a14.56,14.56,0,0,1-6-1.45c-.76-.31-.05-.81-2.78-1s-3.17.27-5.14-.24-2.36,2.37-2.92,1.47-6.23-11.54-6.23-11.54Z"/><path class="cls-15" d="M241.72,77.73l-.15-.07.06.07a0,0,0,0,1,0,0c-.07-.21-.41,0-.27.14a.6.6,0,0,0,.46.2c.18,0,.36-.2.22-.36a.81.81,0,0,0-.7-.23.24.24,0,0,0-.17.37.35.35,0,0,0,.14.13l-.08-.06a.67.67,0,0,0,.35.27.94.94,0,0,0,.47,0,.26.26,0,0,0,.12-.4.42.42,0,0,0-.6-.1.17.17,0,0,0,0,.21.43.43,0,0,0,.12.11l.12.13c0-.14,0-.27,0-.41l-.08.08.1,0a.24.24,0,0,1-.27-.11l0,.15a.61.61,0,0,0,0-.14,2.75,2.75,0,0,1-.22.26c.16,0,.29.1.44.12l-.14-.38s0,0,0,0,0,0,0,0-.06,0-.09,0a1.64,1.64,0,0,1,0,.22l0,0-.08,0h.17a.08.08,0,0,0,0-.15Z"/><path class="cls-15" d="M235.1,74.31c-.09.34.51.54.76.43a.32.32,0,0,0,.09-.46c-.15-.2-.42-.15-.63-.1a.15.15,0,0,0-.1.16.54.54,0,0,0,.17.4.32.32,0,0,0,.38,0c.24-.16.11-.49-.07-.64s-.63-.2-.68.15.26.39.41.21a.08.08,0,0,0-.09-.13c-.05,0,0,0,0,0s.15.06.19.11l0,0s0,0,0,0v0a.4.4,0,0,1-.07-.2c0,.06-.07.11-.1.16s.2-.06.27,0-.06.07-.12.06-.31-.06-.33-.22a.08.08,0,0,0-.15,0Z"/><path class="cls-15" d="M236.88,75.07c-.16.27.43.38.34.07a.24.24,0,0,0-.35-.13c-.11.07-.17.27,0,.34a.11.11,0,0,0,.11,0s0-.08,0-.08l.05.06v-.16s-.06,0-.07,0-.09-.08-.11,0Z"/><path class="cls-15" d="M254.89,81l0,0-.38.09a1.82,1.82,0,0,0,.33,0l-.26,0,.26.11a.55.55,0,0,0,.75-.33.53.53,0,0,0,0-.41.6.6,0,0,0-.39-.29s-.14,0,0,0a.76.76,0,0,0-.2-.06.78.78,0,0,0-.34,0,.34.34,0,0,0-.31.29.35.35,0,0,0,.19.38l.07,0s0,0,0,0,0,0,0,0l0,.06c0-.07-.05-.14-.08-.22s0,.13,0,0l.62-.45-.42,0,.26,0a1.28,1.28,0,0,0-.32-.09l.24.11s0,0,0,0a.61.61,0,0,0-.63-.23.59.59,0,0,0-.46.56.6.6,0,0,0,.34.56.61.61,0,0,0,.72-.16Z"/><path class="cls-15" d="M257.52,81.1a.42.42,0,0,0,.54.2.21.21,0,0,0,.06-.36.41.41,0,0,0-.26-.11.22.22,0,0,0-.25.18.21.21,0,0,0,.17.24.43.43,0,0,1,.12,0l0-.37s-.09,0-.13,0-.26.07-.22.2Z"/><path class="cls-12" d="M236.6,87.22l.33.89S258.6,83.57,275,82c-.08,0-14.46.57-38.42,5.27Z"/><path class="cls-15" d="M238.11,76.78c-.13-.35-.72-.49-1.06-.45a1,1,0,0,0-.8.73c-.11.53.29.85.71,1.07a3.41,3.41,0,0,0,1.76.46,1.16,1.16,0,0,0,1.09-1.09c0-.61-.49-.93-1-1.08a3.58,3.58,0,0,0-1.71-.21,1,1,0,0,0-.79,1.14.42.42,0,0,0,.66.3l.12-.1a.26.26,0,0,0,.08-.26c0,.1-.15,0,0,0s.19,0,.29,0a5,5,0,0,1,.65.23,1.81,1.81,0,0,0,.31.09c.2,0,.05.09.08,0s-.06-.08,0-.12,0-.06-.05,0-.32,0-.41,0a3.29,3.29,0,0,1-.7-.19c-.17-.07-.3-.06-.25-.22.13-.37.73-.11,1-.27,0,0,0,0,0,0Z"/><path class="cls-18" d="M136.37,72.74l5.06,16.41,12.26-4.07,3.2-8.59s-2.8,3.3-3.74,4.66-.93.24-3.23.4-1.79,2-3.59,1.44-.7-2.84-3.53-2.6-6.43-7.65-6.43-7.65Z"/><path class="cls-6" d="M141.43,89.15s12.12-4.87,12.56-4.87l-.32,1.37-12.24,3.5Z"/><path class="cls-15" d="M145.22,79.29a.61.61,0,0,0,.48.89c.48.08,1.12-.31.89-.85a1.1,1.1,0,0,0-.68-.55.88.88,0,0,0-.92.33.7.7,0,0,0,0,.47,1,1,0,0,0,.11.31.79.79,0,0,0,.7.32.39.39,0,0,0,.36-.27h0a.27.27,0,0,0,0-.33.46.46,0,0,0-.33-.15h-.06s0,0,0,0l0,0c0,.07,0,.08,0,0l-.11.27,0,0-.18.11s0,0,0,0a.45.45,0,0,0,.25-.07.11.11,0,0,1-.08,0s0,0,0,0l.23,0h0c.05,0,.06,0,0,0l-.11-.19v0a1.33,1.33,0,0,1,.05-.19s0,0,0,0,0,0,0,0h0l0,0c-.05,0,0,0,0,0a.27.27,0,0,0-.49-.2Z"/><path class="cls-15" d="M149.71,80.69c.48.55,1.38,0,1.35-.63a.87.87,0,0,0-1.47-.51.6.6,0,0,0,0,.86,1.62,1.62,0,0,0,1.44.41.92.92,0,0,0,.79-1.2,1.57,1.57,0,0,0-1.43-.84,1.08,1.08,0,0,0-1.06,1.32c.28,1,2.19,1.24,2.55.15a1,1,0,0,0-.61-1.2,1.74,1.74,0,0,0-1.52-.19,1,1,0,0,0-.6,1.41,1.08,1.08,0,0,0,1.56.27.57.57,0,0,0,0-.8.73.73,0,0,0-.55-.23s-.09,0-.06,0l.07.56s.1,0,.14,0a2.44,2.44,0,0,1,.27,0h.16l.09,0h0v-.3c.26-.13.3-.18.12-.16a.47.47,0,0,1-.12,0l-.24-.07c.22.4.19.63-.08.7l.12,0c.24.16,0-.06.18.08-.05-.09-.11-.18-.16-.28a.64.64,0,0,0,0,.07v-.32l0,.07c.06-.09.11-.18.16-.27s.09,0,0,0h-.07a.42.42,0,0,1-.24-.12v.86a.34.34,0,0,1-.52-.13V80a.13.13,0,0,1,0,.06l.15-.26c.06-.07.52-.14.06-.1a.61.61,0,0,0-.42,1Z"/><path class="cls-15" d="M176.73,77.42a.62.62,0,0,0,.49.89c.48.09,1.11-.3.89-.85a1.09,1.09,0,0,0-.68-.54.87.87,0,0,0-.92.33.69.69,0,0,0,0,.47,1.06,1.06,0,0,0,.11.31.77.77,0,0,0,.7.31.38.38,0,0,0,.36-.27v0a.29.29,0,0,0,0-.34.46.46,0,0,0-.33-.15h-.06s0,0,0,0l0,0c0,.07,0,.07,0,0,0,.1-.07.19-.11.28l0,0L177,78c.05,0,0,0,0,0a.55.55,0,0,0,.25-.07l-.08,0c-.06,0-.05,0,0,0l.23.06q.1,0,0,0s0,0,0,0l-.11-.19v0a1.33,1.33,0,0,1,0-.19s0,0,0,0,0,0,0,0h0l-.05,0s0,0,0,0a.27.27,0,0,0-.49-.21Z"/><path class="cls-15" d="M181.23,78.82c.48.56,1.38,0,1.35-.62a.86.86,0,0,0-1.47-.51.6.6,0,0,0,0,.86,1.62,1.62,0,0,0,1.44.4.92.92,0,0,0,.79-1.2,1.56,1.56,0,0,0-1.43-.83,1.08,1.08,0,0,0-1.06,1.32c.28,1,2.19,1.23,2.55.15a1,1,0,0,0-.61-1.21,1.74,1.74,0,0,0-1.52-.18,1,1,0,0,0-.6,1.41,1.07,1.07,0,0,0,1.56.26.57.57,0,0,0,0-.8c-.14-.11-.36-.27-.55-.22,0,0-.09,0-.06,0l.07.57s.1,0,.14,0h.43l.09.06s0,0,0,0v-.3c.25-.12.29-.17.11-.15h-.12l-.23-.07c.21.41.19.64-.09.7l.13,0c.24.16,0-.06.18.09l-.16-.28a.25.25,0,0,0,0,.07V78l0,.08c.06-.09.11-.18.16-.27s.09,0,0,0h-.07a.34.34,0,0,1-.24-.11v.86a.34.34,0,0,1-.52-.14v-.3a.43.43,0,0,0,0,0l.15-.25c.06-.08.52-.14.06-.1a.6.6,0,0,0-.42,1Z"/><path class="cls-15" d="M168.29,78.24a.3.3,0,0,0,.24.44c.24,0,.55-.15.44-.42a.55.55,0,0,0-.34-.27.41.41,0,0,0-.45.17.26.26,0,0,0,0,.23.37.37,0,0,0,.05.15.43.43,0,0,0,.35.16.21.21,0,0,0,.18-.14h0a.12.12,0,0,0,0-.16.21.21,0,0,0-.17-.08h0s0,0,0,0h0s0,0,0,0l-.06.13h0l-.08,0s0,0,0,0a.28.28,0,0,0,.13,0h0s0,0,0,0l.11,0h0l-.05-.09h0a.36.36,0,0,1,0-.1s0,0,0,0,0,0,0,0,0,0,0,0h0s0,0,0,0a.13.13,0,0,0-.24-.1Z"/><path class="cls-15" d="M190.47,83.53a.65.65,0,0,0,.51.94c.5.09,1.17-.32.93-.89a1.1,1.1,0,0,0-.71-.57.91.91,0,0,0-1,.35.69.69,0,0,0-.05.49.92.92,0,0,0,.12.32.82.82,0,0,0,.73.33.41.41,0,0,0,.38-.29,0,0,0,0,1,0,0,.32.32,0,0,0,0-.36.57.57,0,0,0-.36-.16h0s0,0,0,0l0,0c0,.08,0,.08,0,0l-.12.29,0,0-.19.11q.08,0,0,0a.6.6,0,0,0,.27-.07l-.09,0c-.05,0-.05,0,0,0l.25.06q.11,0,0,0h0l-.12-.2v0c0-.07,0-.13.05-.2s0,0,0,0,0,0,0,0,0,0,0,0l0,0c-.05,0,0,0,0,0a.28.28,0,0,0-.51-.22Z"/><path class="cls-15" d="M188.3,81.11a.64.64,0,0,0,.51.93c.51.09,1.17-.32.94-.88a1.19,1.19,0,0,0-.72-.58.91.91,0,0,0-1,.35.65.65,0,0,0,0,.49.87.87,0,0,0,.11.32.85.85,0,0,0,.74.34.41.41,0,0,0,.37-.29v0a.3.3,0,0,0,0-.35.48.48,0,0,0-.35-.16h-.06s0,0,0,0l0,0c0,.07,0,.07,0,0l-.12.29,0,0a1.18,1.18,0,0,1-.19.11s0,0,0,0a.48.48,0,0,0,.26-.07.12.12,0,0,1-.08,0c-.06,0-.06,0,0,0l.24,0h0c.05,0,.06,0,0,0l-.12-.2v0l.05-.21s0,0,0,0,0,0,0,0h0l-.05,0s0,0,0,0a.29.29,0,0,0-.52-.22Z"/><path class="cls-18" d="M283.93,79.11c18.24,1.23,26.87,2.55,41.65,13.36l3.86-15.58s-5.53,10.06-5.7,10.32S322,85,321.28,84.81s-1.93.37-2.87-1.2-1.66-5.36-3.73-4.7-4.23,1.24-5.3-.06-2-1.64-3.13-1.14a7.73,7.73,0,0,1-5.23-.56,1.92,1.92,0,0,0-2.5.1,2,2,0,0,1-1.93.51c-.66-.23-.91-1-1.51-.46a4.39,4.39,0,0,1-5.41-.61c-1-1.08-2.93.87-3.54.77-1.61-.24-3-.15-2.2,1.65Z"/><path class="cls-15" d="M305.16,77.41l-.16-.07.06.07v0c-.07-.21-.41,0-.27.14a.6.6,0,0,0,.46.2.23.23,0,0,0,.22-.36.83.83,0,0,0-.71-.23.24.24,0,0,0-.16.38.33.33,0,0,0,.14.12l-.08-.06a.62.62,0,0,0,.35.27.94.94,0,0,0,.47,0,.27.27,0,0,0,.12-.4.43.43,0,0,0-.61-.1c-.06,0,0,.15,0,.21a.69.69,0,0,0,.13.11l.11.13c0-.13,0-.27,0-.41l-.09.08.11,0a.26.26,0,0,1-.28-.11s0,.1,0,.15a.65.65,0,0,0,0-.14l-.21.26c.16,0,.28.1.44.12-.05-.13-.1-.25-.14-.38,0,0,0,0,0,0s0,0,0,0-.06,0-.09,0,0,.15,0,.22v0l-.07,0h.16c.08,0,.1-.13,0-.15Z"/><path class="cls-15" d="M298.54,74c-.09.34.5.54.75.43a.32.32,0,0,0,.1-.46c-.15-.2-.43-.15-.64-.1a.16.16,0,0,0-.1.16.57.57,0,0,0,.17.4.33.33,0,0,0,.39,0c.24-.16.11-.49-.08-.64s-.63-.2-.67.15a.24.24,0,0,0,.41.21c.05-.06,0-.17-.1-.13s0,0,0,0a.24.24,0,0,1,.19.11s0,0,0,.06v0A.32.32,0,0,1,299,74l-.1.17c.07,0,.2-.07.26,0s-.05.07-.11.06-.31-.06-.33-.21a.08.08,0,0,0-.15,0Z"/><path class="cls-15" d="M318.33,80.72s0,0,0,0l-.38.09a1.69,1.69,0,0,0,.32,0l-.25,0,.26.11a.54.54,0,0,0,.74-.33.46.46,0,0,0,0-.41.54.54,0,0,0-.38-.28s-.15,0,0,0a.6.6,0,0,0-.19-.06.83.83,0,0,0-.35,0,.36.36,0,0,0-.31.29.37.37,0,0,0,.2.38l.07,0s0,0,0,0,0,0,0,0l0,.06c0-.07,0-.14-.08-.22s0,.13,0,0l.63-.44c-.14,0-.29,0-.43,0l.26.05a1.11,1.11,0,0,0-.31-.09l.24.11,0,0a.63.63,0,0,0-.63-.23.6.6,0,0,0-.12,1.12.61.61,0,0,0,.72-.16Z"/><path class="cls-15" d="M321,80.78a.42.42,0,0,0,.54.2.22.22,0,0,0,.06-.36.44.44,0,0,0-.27-.11.22.22,0,0,0-.24.18.21.21,0,0,0,.17.24l.12,0c0-.12,0-.24,0-.36s-.08,0-.12,0a.16.16,0,0,0-.22.2Z"/><path class="cls-15" d="M301.54,76.46c-.13-.34-.71-.49-1.05-.45a1,1,0,0,0-.81.73c-.11.53.29.85.71,1.07a3.43,3.43,0,0,0,1.76.46,1.16,1.16,0,0,0,1.1-1.09c0-.61-.49-.93-1-1.08a3.62,3.62,0,0,0-1.72-.21,1.07,1.07,0,0,0-.79,1.14.43.43,0,0,0,.67.3l.12-.1a.23.23,0,0,0,.07-.26c0,.1-.15,0,0,0l.3,0a5,5,0,0,1,.65.23,1.81,1.81,0,0,0,.31.09c.2,0,.05.09.08,0s-.07-.08,0-.12,0-.06-.05,0a2.8,2.8,0,0,0-.41,0,3.55,3.55,0,0,1-.71-.19c-.16-.07-.3-.06-.24-.22.12-.37.72-.11,1-.27a0,0,0,0,0,0-.05Z"/><path class="cls-15" d="M290,75.94c-.09.34.5.54.75.42a.3.3,0,0,0,.09-.45c-.14-.21-.42-.16-.63-.1a.18.18,0,0,0-.1.16.55.55,0,0,0,.18.4.32.32,0,0,0,.38,0c.24-.16.1-.5-.08-.64s-.63-.2-.67.15a.24.24,0,0,0,.41.21c.05-.06,0-.17-.1-.13s0,0,0,0a.21.21,0,0,1,.19.11.1.1,0,0,1,0,.05,0,0,0,0,0,0,0h0a.43.43,0,0,1-.07-.2l-.11.16c.08,0,.21-.06.27,0s0,.08-.11.07-.32-.06-.33-.22-.13-.08-.15,0Z"/><path class="cls-15" d="M294.8,75.82c-.08-.22-.45-.31-.66-.28a.61.61,0,0,0-.51.46c-.07.33.18.54.45.67a2.18,2.18,0,0,0,1.11.3.74.74,0,0,0,.69-.7c0-.38-.31-.58-.64-.67a2.27,2.27,0,0,0-1.09-.14.66.66,0,0,0-.49.72c0,.18.26.33.41.19l.08-.07a.14.14,0,0,0,.05-.16c0,.06-.1,0,0,0l.19,0c.14,0,.28.1.41.14a1.46,1.46,0,0,0,.19.07c.13,0,0,0,.06,0s-.05-.05,0-.07,0,0,0,0a2.25,2.25,0,0,0-.26,0,2.2,2.2,0,0,1-.44-.12c-.1,0-.19,0-.16-.14s.46-.06.63-.16c0,0,0,0,0,0Z"/><path class="cls-6" d="M160.35,81.61c15.4-1,25.71.46,37.32,10.9L197.43,94c-1.69-.43-13.51-13.31-37.08-12.36Z"/><path class="cls-6" d="M283.93,79.11l-.21-.76c19.18.51,32.45,5,41.86,14.12,0,0-13.25-11.9-41.65-13.36Z"/><polygon class="cls-14" points="311.84 49.48 314.81 57.85 313.17 47.47 292.51 55.07 311.84 49.48 311.84 49.48"/><path class="cls-6" d="M289.57,86.7c5.86,1.38,20.49,5.1,27.84,9.46l.07-.4A90.79,90.79,0,0,0,290.8,86c-1.11-.22-2-.38-2.66-.48s-1.21-.18-1.21-.18l.13.78s.94.2,2.51.57Z"/><path class="cls-14" d="M246.6,23.85c3.15-.72,6.31-1.38,9.49-1.93,1.57-.26,3.14-.51,4.72-.72l2.29-.29a24.24,24.24,0,0,0,2.58-.33.1.1,0,0,0,0-.2,26.79,26.79,0,0,0-4.62.52c-1.62.24-3.24.49-4.85.79-3.23.58-6.44,1.29-9.6,2.16Z"/><polygon class="cls-4" points="212.56 82.32 215.8 81.43 215.84 82.03 212.5 82.78 212.56 82.32 212.56 82.32"/><path class="cls-4" d="M212.81,85.48l3.91-2.19.3.64s-4.22,2.17-4,2.16-.17-.61-.17-.61Z"/><polygon class="cls-4" points="217.51 97.49 222.04 94.1 221.34 93.38 216.88 96.88 217.51 97.49 217.51 97.49"/><path class="cls-4" d="M320.06,64.84,336.55,50,336.36,49s-17.09,14.75-16.81,14.7.51,1.18.51,1.18Z"/><path class="cls-4" d="M316.16,43.1,333.44,33l.59.67s-17.94,11.57-17.72,11.53-.15-2.13-.15-2.13Z"/><path class="cls-4" d="M131.31,14.75c-.43.13,29.95-4.41,29.95-4.41l-.32,1.49-29.05,5.64-.58-2.72Z"/><path class="cls-4" d="M266.91,18l14.2-7.54,1.11.15.14,1.23-14.68,7.68s-.21-1.58-.49-1.55l-.28,0Z"/><path class="cls-4" d="M320.48,6.4S336.55,3.93,337,3.89s.1,1.2.1,1.2-16.76,3.15-16.6,3.14,0-1.83,0-1.83Z"/><polygon class="cls-4" points="335.54 64.78 348.69 50.67 348.59 53.58 334.88 67.73 334.52 66.05 335.54 64.78 335.54 64.78"/><path class="cls-4" d="M252.45,57.92,267,48.75s1.91-1,1.65-1.12.46,1.65.35,1.37-15.14,9.28-15.22,8.94-1.34,0-1.34,0Z"/><path class="cls-4" d="M319.41,31c.38.13,16.71-6.81,16.71-6.81l-15.61,8.44-2.45.7L319.41,31Z"/><polygon class="cls-4" points="179.7 24.27 191.65 20.68 192.44 20.03 202.22 17.76 211.76 17.4 192.84 21.21 180.8 24.76 179.7 24.27 179.7 24.27"/><path class="cls-4" d="M159.66,26c.28,0,8.12-2.78,8.12-2.78l-.06.81-6.17,2.09L159.66,26Z"/></g></g></svg>