<?xml version="1.0" encoding="UTF-8"?>
<svg width="184px" height="58px" viewBox="0 0 184 58" version="1.1" xmlns="http://www.w3.org/2000/svg" xmlns:xlink="http://www.w3.org/1999/xlink">
    <title>SR-logo</title>
    <g id="Page-1" stroke="none" stroke-width="1" fill="none" fill-rule="evenodd">
        <g id="SR-Homepage" transform="translate(-77.000000, -38.000000)" fill="#FFFFFF">
            <g id="SR-logo" transform="translate(77.000000, 38.000000)">
                <path d="M74.4932215,13.5 C74.1152337,13.2400789 73.730289,13.0152822 73.3430253,12.8232684 C72.9557617,12.6312546 72.5986443,12.4673404 72.2716732,12.3245009 C71.9423832,12.1863446 71.6571531,12.0833128 71.4183018,12.0130638 C71.1748127,11.9451565 71.0124866,11.891299 70.9266857,11.8585161 L70.6159472,11.776559 C70.3052087,11.6899187 69.9712808,11.598595 69.6095255,11.4932216 C69.2454513,11.3878482 68.9022476,11.2450086 68.5729575,11.0717279 C68.1764181,10.8656643 67.8679986,10.6268178 67.643061,10.3668967 C67.3323225,10.0367266 67.1792722,9.64099088 67.1792722,9.16798127 C67.1792722,8.39992605 67.5572601,7.7840769 68.3155548,7.31575055 C68.5729575,7.17525265 68.8744203,7.06051269 69.2222619,6.97387232 C69.5654656,6.88723194 69.9086693,6.84508257 70.2541919,6.84508257 C71.0472708,6.84508257 71.8055655,7.01836332 72.529076,7.36726645 C73.0114163,7.60845452 73.4844809,7.96672418 73.9505887,8.43739216 L76.1489476,6.19176732 C76.0098109,6.0723441 75.8498038,5.93652946 75.6689262,5.78900666 C75.4903675,5.63914222 75.2700678,5.48693616 75.0103461,5.33238846 C74.5117731,5.03500123 73.8392793,4.74229726 72.9951837,4.44491003 C72.1487692,4.1475228 71.1075633,4 69.8669283,4 C69.1944345,4 68.5103461,4.0960069 67.8123439,4.2880207 C67.1120228,4.47535124 66.4812701,4.79615479 65.9131288,5.24106483 C65.3449875,5.68363323 64.8811987,6.25499137 64.5287192,6.96450579 C64.1762397,7.66933695 64,8.53339906 64,9.55669214 C64,11.109194 64.7838031,12.4111412 66.3514092,13.4719004 C67.023903,13.926177 67.6987157,14.282105 68.3804852,14.5420261 C69.0599358,14.8042889 69.5816982,14.9869362 69.9434534,15.0923096 C70.0130218,15.1274341 70.0640385,15.1461671 70.0988227,15.1461671 C70.1521584,15.17895 70.210132,15.2023663 70.2820193,15.2093912 C70.3492686,15.2187577 70.4257938,15.242174 70.5115947,15.2749569 C70.7875491,15.3615972 71.0982875,15.4576041 71.4438102,15.5629776 C71.7870139,15.668351 72.116304,15.8041656 72.4247235,15.979788 C72.8027114,16.1530688 73.1134499,16.380207 73.356939,16.6612029 C73.6676775,17.0077644 73.8207278,17.3964752 73.8207278,17.8320187 C73.8207278,18.548558 73.5285408,19.1199162 72.941848,19.5554597 C72.6658937,19.7474735 72.3435605,19.8973379 71.9725294,20.0120779 C71.6038173,20.1268178 71.1933643,20.183017 70.7458081,20.183017 C70.5023189,20.183017 70.1938994,20.1549174 69.8135926,20.1034015 C69.4356047,20.0542273 69.0321085,19.9394873 68.6007849,19.7662066 C67.893507,19.4875524 67.2557974,19.0847917 66.6876561,18.5626078 L64.5426329,20.7309588 C65.2661434,21.32105 66.1867642,21.8455755 67.3068141,22.3092186 C68.429183,22.7705201 69.7046022,23 71.1330717,23 C72.030503,23 72.8398145,22.8712103 73.563325,22.6112891 C74.2868355,22.3490264 74.9036746,21.9790486 75.4115234,21.499014 C75.9193721,21.0236628 76.3112736,20.4382549 76.587228,19.7521568 C76.8608634,19.0660587 77,18.2933202 77,17.4433079 C77,15.9282721 76.1651802,14.6169583 74.4932215,13.5" id="Fill-1"></path>
                <path d="M94,11.4567474 C94,10.5640138 93.8317594,9.73125721 93.4930045,8.94694348 C93.1542497,8.16724337 92.6995453,7.48673587 92.1243442,6.90542099 C91.5514166,6.3194925 90.873907,5.86043829 90.0963624,5.51903114 C89.3188178,5.17070358 88.4912557,5 87.6136761,5 L81,5 L81,23 L84.0396992,23 L84.0396992,8.08650519 L87.6136761,8.08650519 C88.527632,8.08650519 89.3097237,8.42099193 89.9713186,9.0922722 C90.6306401,9.7266436 90.9580273,10.5155709 90.9580273,11.4567474 C90.9580273,12.3794694 90.6306401,13.177624 89.9713186,13.8489043 C89.3097237,14.5155709 88.527632,14.8500577 87.6136761,14.8500577 L86.3223155,14.8500577 L85.0786988,17.9365629 L87.6136761,17.9365629 C88.4912557,17.9365629 89.3188178,17.7635525 90.0963624,17.4221453 C90.873907,17.0807382 91.5514166,16.6147636 92.1243442,16.0334487 C92.6995453,15.4475202 93.1542497,14.7647059 93.4930045,13.9757785 C93.8317594,13.1868512 94,12.349481 94,11.4567474" id="Fill-3"></path>
                <polygon id="Fill-5" points="101.685063 5 93 23 96.6274072 23 98.111907 19.9134948 106.081846 19.9134948 104.599812 16.8316032 99.5964068 16.8316032 103.497534 8.75778547 107.401127 16.8316032 108.888093 19.9134948 110.370127 23 114 23 105.314937 5"></polygon>
                <path d="M119.247368,9.01343357 C119.884898,8.39992605 120.605798,7.9386246 121.407616,7.61313779 C122.206981,7.29467587 123.055387,7.13310328 123.94793,7.13310328 C124.860089,7.13310328 125.715852,7.29467587 126.517669,7.61313779 C127.319487,7.9386246 128.037935,8.39992605 128.677917,9.01343357 L131,6.79122504 C130.087841,5.92247966 129.031011,5.24106483 127.829511,4.74229726 C126.628011,4.24821297 125.330881,4 123.94793,4 C122.579691,4 121.29237,4.24821297 120.081062,4.74229726 C118.869753,5.24106483 117.812924,5.9177964 116.910573,6.78185852 C116.008222,7.64123737 115.299582,8.65282228 114.779749,9.80958837 C114.259916,10.9663544 114,12.1957111 114,13.5 C114,14.8042889 114.259916,16.0383288 114.779749,17.1950949 C115.299582,18.351861 116.008222,19.3587626 116.910573,20.2228247 C117.812924,21.0822036 118.869753,21.7589352 120.081062,22.2577027 C121.29237,22.751787 122.579691,23 123.94793,23 C125.330881,23 126.628011,22.751787 127.829511,22.2577027 C129.031011,21.7589352 130.087841,21.0775203 131,20.208775 L128.677917,18.014666 C128.037935,18.6258319 127.319487,19.0847917 126.517669,19.400912 C125.715852,19.7100074 124.860089,19.87158 123.94793,19.87158 C123.055387,19.87158 122.206981,19.7100074 121.407616,19.400912 C120.605798,19.0847917 119.884898,18.6258319 119.247368,18.014666 C118.609837,17.4058418 118.121881,16.7150604 117.783499,15.9423219 C117.44757,15.1649002 117.278379,14.3546956 117.278379,13.5 C117.278379,12.6499877 117.44757,11.8397831 117.783499,11.0717279 C118.121881,10.3083559 118.609837,9.62225783 119.247368,9.01343357" id="Fill-7"></path>
                <polygon id="Fill-9" points="145 8.08650519 145 5 133 5 133 23 145 23 145 19.9134948 136.058286 19.9134948 136.058286 15.5420992 143.470857 15.5420992 142.707429 12.4579008 136.058286 12.4579008 136.058286 8.08650519"></polygon>
                <path d="M75.9996502,37.9528326 C76.3111228,37.4568059 76.5566632,36.9123302 76.7339979,36.3217124 C76.9113326,35.7264804 77,35.1058703 77,34.4552679 C77,33.564727 76.8294858,32.7295565 76.4930045,31.9451423 C76.1542497,31.1676493 75.6972718,30.4870546 75.1243442,29.9056652 C74.5491431,29.3196616 73.878454,28.8605486 73.1100035,28.5167906 C72.341553,28.1707255 71.5162644,28 70.6409584,28 L64,28 L64,32.7849269 L64,40.9359139 L64,46 L67.0419727,46 L67.0419727,40.9359139 L67.0419727,37.8490131 L67.0419727,32.7849269 L67.0419727,31.0845937 L70.6409584,31.0845937 C71.5526408,31.0845937 72.3370059,31.4191233 72.9963274,32.0904896 C73.3009794,32.397334 73.5374257,32.7572417 73.7056663,33.1725199 C73.873907,33.5808767 73.9603008,34.0099974 73.9603008,34.4552679 C73.9603008,34.9028454 73.873907,35.3296591 73.7056663,35.740323 C73.5374257,36.1556011 73.3009794,36.520123 72.9963274,36.8477314 C72.3370059,37.5167906 71.5526408,37.8490131 70.6409584,37.8490131 L69.320042,37.8490131 L68.0809724,40.9359139 L70.1589717,40.9359139 L73.3760056,46 L77,46 L73.3760056,40.2922328 C73.9171039,40.0338375 74.4104582,39.7062292 74.8583421,39.3047936 C75.306226,38.8987439 75.6859042,38.4488593 75.9996502,37.9528326" id="Fill-11"></path>
                <polygon id="Fill-13" points="81 46 93 46 93 42.9134948 84.056 42.9134948 84.056 38.544406 91.4708571 38.544406 90.7051429 35.4579008 84.056 35.4579008 84.056 31.0865052 93 31.0865052 93 28 81 28"></polygon>
                <polygon id="Fill-15" points="104.715435 41.7064855 99.3033391 28 96 28 103.11506 46 106.391042 46 113 28 109.746815 28"></polygon>
                <polygon id="Fill-17" points="116 46 128 46 128 42.9134948 119.056 42.9134948 119.056 38.544406 126.470857 38.544406 125.705143 35.4579008 119.056 35.4579008 119.056 31.0865052 128 31.0865052 128 28 116 28"></polygon>
                <polygon id="Fill-19" points="143.609225 40.3137255 135.672073 28 132 28 132 46 135.390775 46 135.390775 33.6816609 143.327927 46 147 46 147 28 143.609225 28"></polygon>
                <path d="M167.868885,35.93579 L157.012076,35.93579 L156.230068,39.0688933 L164.686999,39.0688933 C164.389649,40.1788267 163.832409,41.1623121 163.01528,42.014666 C162.406531,42.6258319 161.713494,43.0847917 160.94085,43.400912 C160.165866,43.7100074 159.351078,43.87158 158.501171,43.87158 C157.648922,43.87158 156.838817,43.7100074 156.073198,43.400912 C155.307579,43.0847917 154.621565,42.6258319 154.012816,42.014666 C153.401725,41.4058418 152.938139,40.7150604 152.615034,39.9423219 C152.29427,39.1649002 152.132717,38.3546956 152.132717,37.5 C152.132717,36.6499877 152.29427,35.8397831 152.615034,35.0717279 C152.938139,34.3083559 153.401725,33.6222578 154.012816,33.0134336 C154.621565,32.3999261 155.307579,31.9386246 156.073198,31.6131378 C156.838817,31.2946759 157.648922,31.1331033 158.501171,31.1331033 C159.351078,31.1331033 160.165866,31.2946759 160.94085,31.6131378 C161.713494,31.9386246 162.406531,32.3999261 163.01528,33.0134336 L165.206778,30.791225 C164.354529,29.9224797 163.354775,29.2410648 162.205176,28.7422973 C161.057917,28.248213 159.821688,28 158.501171,28 C157.194701,28 155.965496,28.248213 154.808872,28.7422973 C153.652249,29.2410648 152.640789,29.9177964 151.781516,30.7818585 C150.919901,31.6412374 150.240912,32.6528223 149.744547,33.8095884 C149.250524,34.9663544 149,36.1957111 149,37.5 C149,38.8042889 149.250524,40.0383288 149.744547,41.1950949 C150.240912,42.351861 150.919901,43.3587626 151.781516,44.2228247 C152.640789,45.0822036 153.652249,45.7589352 154.808872,46.2577027 C155.965496,46.751787 157.194701,47 158.501171,47 C159.805299,47 161.036845,46.751787 162.193469,46.2577027 C163.350092,45.7589352 164.359211,45.0822036 165.220826,44.2228247 C166.080099,43.3587626 166.759088,42.351861 167.255453,41.1950949 C167.751818,40.0383288 168,38.8042889 168,37.5 C168,37.2400789 167.988293,36.9778161 167.960197,36.717895 C167.934442,36.4579739 167.904005,36.1957111 167.868885,35.93579" id="Fill-21"></path>
                <polygon id="Fill-23" points="184 31.0865052 184 28 172 28 172 46 184 46 184 42.9134948 175.058286 42.9134948 175.058286 38.5420992 182.470857 38.5420992 181.707429 35.4579008 175.058286 35.4579008 175.058286 31.0865052"></polygon>
                <g id="Group-27">
                    <path d="M32.8768,45.5607893 C33.8670933,39.895936 34.0384,34.1466027 33.3883733,28.4254293 L32.99648,25.0016427 L29.57504,24.612096 C23.8538667,23.9620693 18.1045333,24.133376 12.4420267,25.1236693 C19.0525867,18.5670827 26.7473067,13.453696 35.3408,9.90084267 C34.41152,11.9799893 33.7614933,14.1459627 33.4001067,16.361216 L32.67968,20.7799893 L34.99584,16.9478827 C38.8654933,10.546176 45.48544,6.188416 52.8610133,5.13006933 C50.7630933,20.3364693 43.69728,34.6464427 32.8768,45.5607893 M9.16373333,22.274816 C5.7024,25.738496 2.64938667,29.4532693 0,33.3581227 C9.59082667,29.237376 19.2309333,27.7918293 29.0845867,28.9158827 C30.2062933,38.769536 28.7607467,48.4096427 24.64,58.0004693 C28.5472,55.3510827 32.2619733,52.2980693 35.7233067,48.836736 C49.2330667,35.3293227 56.5546667,17.9780693 57.6974933,0.302976 C40.0224,1.44580267 22.6711467,8.76740267 9.16373333,22.274816" id="Fill-25"></path>
                </g>
            </g>
        </g>
    </g>
</svg>
